<mxfile host="Electron" agent="Mozilla/5.0 (Windows NT 10.0; Win64; x64) AppleWebKit/537.36 (KHTML, like Gecko) draw.io/28.0.6 Chrome/138.0.7204.100 Electron/37.2.3 Safari/537.36" version="28.0.6">
  <diagram name="페이지-1" id="nZ8UUJLYsIeD8SvH6EAQ">
    <mxGraphModel dx="1678" dy="2158" grid="1" gridSize="10" guides="1" tooltips="1" connect="1" arrows="1" fold="1" page="1" pageScale="1" pageWidth="827" pageHeight="1169" math="0" shadow="0">
      <root>
        <mxCell id="0" />
        <mxCell id="1" parent="0" />
        <mxCell id="Gk-Gb2TZYQ2Sssv7sJZE-1" value="" style="shape=image;verticalLabelPosition=bottom;labelBackgroundColor=default;verticalAlign=top;aspect=fixed;imageAspect=0;image=data:image/png,iVBORw0KGgoAAAANSUhEUgAAAo0AAAIzCAYAAABlbSNIAAAAAXNSR0IArs4c6QAAAARnQU1BAACxjwv8YQUAAAAJcEhZcwAADsMAAA7DAcdvqGQAAJLySURBVHhe7f09jONYfi9+f+dJJjKTMhM/lZQY2KWgoQoGK8CDvWjjshJvo4G7wgKXnfzpCbxOXNFyg15F3A6GG5UT7w3GusnQgKH1H/30OileuLFGG+BigiI6UNkBOUldJ3IldDTRPAFfRB4evumlSqr6foADdEuiRFKU+NXvnMP65OTk5HsQERERETX4/4g3EBERERGJGBqJiIiIqBVDIxERERG1YmgkIiIiolYMjURERETUiqGRiIiIiFoxNBIRERFRK4ZGIiIiImrF0EhERERErRgaiYiIiKgVQyMRERERtWJoJCIiIqJWDI33yHQDRFGEKHBhwoEXRYiiCIFrig/tz3QRRBGiKMB2nq64rttXfn4TbpDsi8hzxIf253jJc0Ue6p9ttf8bXzJ/ru3s125W+2MrxwYREdEWMDRuy+BH+IX7Lwhu0vAT3eD33gw/08UH0noG+LHzW/w+C5dRhJvf/xaXxqn4wCeuawDvGJqJiIhSDI3bMDAx+/u/wV+Mj6F8mt34KVTtv+Gv/saD0zs4rk7oTa17FaoQJJraVtJD87qv9xIDmO4/4leTIVRldeun6hAvfvmP8Prv4BJtUl3PvE008eFbVPe+TDFOt1MZTyX393nviYiItmO/QmPeFVjTCokj796UtJvg9/jtpQGxBtW4zE2A3//WhWP+AANhuTY/tn6K/6YCwHcI3/0Mfz4Y4M9/cYXb7wB8qmEyvcQPxIUeBR2Od5PsP8/BZtGt3uBnv4KVpqh4McfP/nyA//7Xf4frGAA+hfbiAr/o+6YVhPMBBoOaNg/FhycGWeC72Ti0EhERHYL9Co1b8qmiYvjil/jHHkHm008VqMMxJtO/xz/9y69hdg4hP4J+pib/vL3CLy5+gxsAN+5PYf/uNrn9eIgfd36+sqZAMzJm4sNbxb5deZ686Zb48Eb65RQT7VPguwW+/ksLnnC/7LV6vkRSZfxvZ/gUAL67xtd/beE3N0D021/ix/bvsASAT4c4v1g/lq9VaYxmMC5/hxifQpv8Cm73A6ZgBmMkeR86tE7vvTapbk/eJqjZMiIiIqlHGRozn2ov8NOfire2+/T4HNO//zV+LN4hdZp3mca3AX5fuMf7/S1iAICGyf+JMM36HB8D/RLTF8cAgPCdjV9G4gO25ccYpukmvv4tflV8nd/8BtfL5J/Hwx8V7rgnMxOXfgxAwfjilz1+aFSdGg7c3/4Lfn9zgxsx4N3c4Ob3/4LfzH4BDuEkIqKHsrehUValqquErapx/x3/0067hQEAn0KpOZEXK3j//X/+JZz5dWE5AOo5fuqsX73aV3Vj5PqOZ/zpT89xDADL3+HXVjEqr5Rea+1Z2Go+TnR5K1bXfotlksoB9RiGcG8zC7p4fDW2EWTFvdkv3mEBAMoY5prVTnP2e/zTLycYD4+hfvppUlUt+vRTfKoe4+y//QV++Y//gstuv2aAcC7ZjqzNUdPxTkREJLW3oXE9EX4/+ylmyWC3zqLfe/i19WP88M9t+IVFtbMfdxjfeJMHF+V4VBq7+OMfakhqiyG+HgxgF5+8I2nXaRrAHK9w23ScvtZ9+AV+dJZEm+X1b/Ab8e5aq0ky26q6RnlqlIQtidI+W7cVA3Y0xe+uk18bx+OfdqxOF5mr4Q3fhXj3t7/A/yMGvP/nF/jbdyG+A4BPjzH+Uf9XISIi2tTehkZZRay1GDb4AX78i9/gIg8kS4T/IjymSTSD8fV1cnJGUr36b+VHSPwWXt5Heo5f/TqZgHNq/BoX4zQMLHxIilQPQlrBHdRXcaV+dpaOh4ux+JffivfmSq81MnayDwb5dOrvVu/bPfvVdVqzU4fQe/eSz1bHz6caXvzVL/G/xZD6v3+Jv3qhpeM6b+H/tntMJyIi2pa9DY195NW4//P3+NVfnOUVt+Xvfg2nPtPI/SpEOn0FUNTKDGyZ3zi/xu+SGRk4Pv8l/imK8E+/PMfxp0n1aH45xbpD/qQTYdIAZumF22w/HT+5ez/SjtOq3i1CV7y3yapLuHvVdYk4TYPH2s+E+360ugTP8hZdVqW0z9ZtYsB2F2lXrwrth+W7upiZP8Cf/2IOf3GL5XeS8Pvdd/hueYvr3/0dfvE/foiLrpmRE2GIiGiLHkVorIhv8bu/+2v8T3O2dljLVE7gMtEM5v/8a/ydf5sHHOA7LMPf4W//WoclTiveQ4Mf6PjRj34E/QftHfJqNsgwjvF/xTu37jdYpIW8T4dj/Ky4eqaBrJh7u+j766D5epLV1vDXZaI4P07U4/VGbt64Fowf/RA/OD3FqRhST09x+oMf4sfmL+HeiEsSERHdj70NjbJuVLHAU0tRoH763VqBcWAPVxWY+Badz9HRb/FL44cYnWbre4of6CZ+tWeBUdbtH0UR/s/f/y/8zd/8DX510d4hf1q8wnYD+Ws1hC+pCNPfpkMGPj3DX/yvS/z4FBj86Bf4zUU6jvO7Ba4u5ZNx7sf/Rdy1cJppuyZppybbl7LL+KzG6m70uSIioidtb0NjH0kX7p/jZ/NF2kWrYPhqjWvnnf4Uv3wxzP/7Xfj7Tl2eZV3/jFs30okwhbaFl0h9h++++w7AH4p3VCxX5dT19Hxb8OufwUlTz6faC/zqnyL8n7/5C5wliRHhu8s1LvnTbfZ0t270P8SnXWbhEBERHbBHERoTN/iN9SP87F02IrH7tfNOf2jgZ7/+LX7/j1b+59uAW1z9+tflB25oZoySMDIyMCuElk4Xaq6hKF1mXsiqT2I7xenpKUbGr8SFK/5vFhoVBf9f8c7WMKbD6h3wIsyM/4GfzRerS+wA+G65wLtf/A/oa/X/d+ue7jbLu3hZoN+Jd8pZumTfZK25Mljal+LzEhER7cjehsZ1uza9CxvzMAs1Y1i/+pm0sFWs4P3T//4l/up8CDWvFn2HcG7jYp0sshVtwWvVfvDTvmP5NueGWTA/xnC9IXxriPAb60f4QSH8nv7gR7jYh0F+5jGSoZUxlje9E/F2NHZ3t/8t666fLyIierr2NjSuz4PlvEOWGz89+wv8Ta8/TLzE9d/+9ZrVqyfCvU4uaA0F2g8P/5qB0hnqlVZf1cuvx/ldiOv1i8ZERER77RGGRgCehb/8u+x6i59i+Op/wWn8I9TpJU2u/hY/+/Mf4Mfbmr3SeMmTQlv7r6U8kGiK36YXtFbHBtb4S417pW3caNYCV/Yu/RRGOoX7u4WH9s79HWns7u7a6oMxERHRfoXG1hPf6qSWjw+smf0Z/erHq0uXnCaXvSkuU27pJU1++iv8Zg96Ow/Br515Us399AzGZWMilyqP7zxcP3B+jOSP42x/DCwREdE++eTk5OR78UaiLnTHw99MNHyKW7z7yx8+4BjQBzL4BX77T3+B4afA8upn+MFPu151m4iI6PDsV6WRDopn/SWcqyW+wzFe/MrtNFP98dDh/K9XGH4KfBfO8QsGRiIieuRYaSQiIiKiVqw0EhEREVErhkYiIiIiasXQSEREREStGBqJiIiIqBVDIxERERG1YmgkIiIiolYMjURERETUiqGRiIiIiFoxNBIRERFRK4ZGIiIiImrF0EhERERErRgaiYiIiKgVQyMRERERtWJorOXAiyJEkQdHvKvxPsB0A0RRVGqBa64e4HjJ7Z5saSIiIqL9c5Ch0X77ER8/fsRbW7zn4TlehOlYQezbGAwGGAwGsP0YynjaPSSWQmUWUCNUF2+6b4tMF0FDSCYiIqLH77BCo/0WHz9+xMsT8Y7tcLxidXACDQCgYVKsGjamMxPHKgCEuDJm+a0z4wohAKjHKNQbazjwJhoQ+7B1S7zzYcwMjGwfMTRMGrefiIiIHqvDCY32W3zcVVpMWXpSGWxsjUFuhtslAGg4L3RHm+55EkCXt1hFSTnHS8JqeGW0PvZezQxchQC0cxR72omIiOhpOJzQmPr27Zf4JhZv3S7ZmMTmCuOKpRe6o9Nl8+7qxsAJAA7ONACxD7ftoQ/Acn3EUDA2uu0LIiIiejwOJzROX+LZs2d4ORXv2K66MYnQJp2D48wYVSqUo0J3dS3nDBqAeOFtVmXMxkTmrTwWsRKKA3fVbZ4tG7gwxQk7Mw+LGIB2xrGNRERET8zhhMZ7kY1JjLHwJGMSG8OSCTcQqpOyVgxoAjN5cSxv14+MphsgmiSjMWWyUFyijDGtrNcQF5XnWXW/n9XvCCIiInqEGBpLslCkYKhLxiSG16jvNZ7BGAnjH+chAJSqloNR/VjFU1UBEGN5I97TXfIcwmsO9GS9HQ+TtPvbzu+bJ4FYGaKwyYCiYDmvjuO8We54bAARERHtJYZGgaUPMA9RGZOIcN5hTGKD/LI1UWMlsOoG7TltFTSt6ySo5utf6FLPKplQxpjm1c9slrgC9TR/aOu4SvW4rl5KREREjxFDo0QyizqtwCHEvHXWdFly6Z4A7nHhxpmBkVCB7KsS1MxjpDFwxdIL645kLGYUlGc8h/PKmMvBYIAem7hRFzoREREdHobGXfL07pNgckLFDzN4i6TUqIwvSuHPMcZQACBeoDAEE4AFPQ2CST5NuttnSd87oE3KFwN3vM6TfLLubyIiInpaHlFofIWvPiR/KebDV6/EO9tVZhzXXNw7ihCUSohrsJIwKVYvs65lTZhlkk/EgYLxdLUeWS938ZqO5QuUrx6zvJ0Blgs/7erWJoXHde4uX00U2mTcJRERER2eRxQaN5QFuQ5tZNyKS2+HdV0zS9uCPrDzwLeSdJ03dyvH8O3sMclknUrveNfxmqaOoSKrbBIREdFj98nJycn34o3UxoEXTaAhxDybmVy811tV+JpVlzfdANOxgnDeFgbv3z6vGxEREe0WQ+NamkPjZnb53JtI1yv2YTdcNoiIiIgeJ4bGfWS6CKZjKHsTHE24wRRjJYZvj9BrXg8RERE9CgyNRERERNSKE2GIiIiIqBVDIxERERG1YmgkIiIiolYMjURERETUiqGRiIiIiFoxNBIRERFRK4ZGIiIiImrF0EhERERErRgaiYiIiKgVQyMRERERtWJoJCIiIqJWDI0Hx4EXRfAc8fZtMeEGdc+f3BdFzS1wTXHBfkwXQfE5AxfiMzre+q9jugEi+QYWOPCiAPKXaNpH27PeNhbW2/Gk+y6RHEer9626rY4XddhPm0j2Y/9tXFlvH630Wb7bcbNlpotA8t4UOV7L56/xOOi4fOSh+5bf0/cEEd07hsY9svuTdHYCWPeLewZjNMBgUN/mobhMT46HaDrEwl49p70YYtpw0suJYbPYdr1f+xLXtfP6iWEvaz1O6qaLIJoA88J7Zy8wnG4rCNf9sOkRtoXjtPd7WROUHiT41RDDWrF1W8Vkf04wL3wG51iOpx23Uba8jcWw6/LNwuLxJWkjYyYuQkR7jqHxKXE8RBMVfh7IkhNM9+DYXkGYaOIyfZhwzzWE8xGK55OZMcJ8Oca07XVmBkaSk5Ptx+Ijpcon8Qk0KBhPC7dJQshaTBfBdIxlflK14auTHifquPAeDjDomdQdYwwlnEO3CjfODFz6MbTzLW3jNsQ+7DXfy83Ij/PpWAG0SeX2dY8LS68eq4PBHCFiLG/ER0s4BsbwYZfeSAu67SPWztp/RDgGxkqIeflAgHHpI9bOG6ubRPQ0MTTuEUsfYFD6At8mWSBLTjAYG+0nmILdVRBOoSryE6Z1HQLhqiLSMyd1Uj6JJyfvUjgbGVh3y4ocYwz4diG0zWCM5gjv8UQdS3by7HYJKCpOxTuenPaKeqlt6bgAAJjHULHEbYcnNI9VYHlbfe3ZLZZQcdzlWIqXqBwJs1ssoUDlgUBEAobGp8LUMVRCXIuZdOZhEWs465MaH4p63FzREbt8ixUiUV4x6tGtuxUOzrQYC0881Vu4DhUM9cYt3BpFkgjMY1UeIg6VUq5Oy6qF0op1Uc0xJRsDug2mPoQSXkP8mMrMbpfyz0SP4Cn9kWAeQ+1a7WygTcR9JrTOlXUi2hcMjR0dHR3hzZs3eP/+Pd6/f483b97g6OhIfNhGpGMahbFd4t2dnapQpIFghuTcUzn11Go9GazZXQfcYBnLKxzOmSavqlQI1cGsiRXcvGqpN5ygi+tSHEs4hSyHdtJwQr9ZxtIw142GSRSl3erNLNdHrE3Kx5Lp4mKsILzaXtWsepxssN/WUde93bFibboBoqmKK/FYGgwwGFxBnfYdE9zGgTEGfLf+iCyxXPgYY1p6Ix140zHguw3Hdcpy4ccaJuUDAe7FGEp4VRoi0k/HSq34mSSivcfQ2JFlWXjx4gWOjo5wdHSEFy9ewLJ2+6VnuoEwBtHG8rw9FOxOx5PB2t11MxhXIbRJuYpjukFSEepTIdqQ6Z5DA6DlJVgLer6NNu5laF0vIeaDQdqt3mJmYDSYA8VQl04+2uZ5vDqMoed+q6sU3gsT+lBBOK/7UWFBn4dQhvqaP5CqHG8CTRrWCmNrSz/Iks/jHMVxlhOovt1xiIhs+SmGC3u9QFdblW1pa//IJKL7xtDY0eeffy7eJL1texwYY0UYg5iOfSs/sJubJWJZVxRMJEOjGk4y93kysPR8Jm/2PNMxKtXD+gqRMHml1Lp2RWf7fo5QrMhtqmG82amqSMca7kYxBA8wGJQnH2HnY2xbWHr1x0jWCutk6Q1jaDcKnTN4i7jyA2bFgTfREC+8NX8glSU/jMRJKZlC9Vzyg0ycUFPZH5YuXS7TafnGinyqZiJaa2tYNyLaLwyN+2pL44pydWMX0xmUlbGORfd9Mqi8XjXQSFWWE1uHEx9MuMEEWjiHbiXVpPrgsI6asYumi3PpWMfdabrkS962mpj767KO0i7ijqGzycwYVX7ArNo5lrYkYK3BdANMx0vMOx2fVa2XEaq5/FCu6fJGeev6g6ug7nmb1oWI9hpDY0cfPnwQb5Letl3ysW/rkXX9ptWSLuOfgDRQSU4CQpOexHupu87fdsyMUU1wcOBF0/JlTCwdtg+Mt3YNw2RMIcbTwvP1HUcmVFPX7KsXK0xiu5/L2zRrW8f6ivOWFH6IlMdDdvwh0yg5zqfDBew1A+NWNAXswQAD20ffI8HxIiSXAq0+n70YYrqjiUREtFsMjR05joN3797h7u4Od3d3ePfuHRxnSylCZnaLJSSVQfMYqnBTZ5aOwXxZCBx9xj+tVMeqrdrOT+Kt6i5+LbRKAlxVGMUK6cwYYbDNiuPMwMj2oeZjCqcYL+c1QVYkditnrX/oaKvide/KldvGRJi2dWzLy61VuIeSXmBd9e3K8bYW2fUjs9a2k+oqglmbjtHvbUuuEODb8mNyZoySH2LGHr4vRNSIobGju7s7vH79Gs+fP8fz58/x+vVr3N3diQ/bIgvXIaBNit1CyczI0hd4W9eTSKgq9A2M62n6k3zrqR/LVheqVk1eQUsn+dQFN0tvqS713EaxK73udXcs9u3K/im10np1/Ysuze9B301tW0f5cdBN9Tiq/9EhXq6n3LLPacd9lL7/m6x7SWFGeKV1+SUnmWlebvIASERPC0PjHrP0AeZhdimVCFF0hmthdqx5rG5tMP7OmMdQ4wXucbje/XsK24hTqG3jXw9ec+Ctb1moegr7qE0ybnc8lf+ISsZw9ri0EBHtDYbGPSKbrVoe06XDSk9qycNM6EPc6+QJSLsdV03WE2YmK9k72Da9ThTt14D6dbfxoSnjaXW/llqh0u2cQet44elt6rWOMrXVwazJw81aHmgfNW6j7EMpksw0F1tr9bTA0gfCUJhVS8ZwNlXtiWhffXJycvK9eCMdCgdecAx3G2OicibcYAr1qn83Yh3HC3Ds7s9JwnQDTNWrSkDvrrqPdrGNjhfhfNl/zGnO8RCdL2Fv6fgw3QDG7Whrx0W2H4eLDbZxz2x9H5kugukQC3u7xxYR0ToYGomIiIioFbuniYiIiKgVQyMRERERtWJoJCIiIqJWDI1ERERE1IqhkYiIiIhaMTQSERERUSuGRiIiIiJqxdBIRERERK0YGomIiIioFUMjEREREbViaCQiIiKiVgyNRERERNSKobE3E24QIYoCuKZ4XzPHixBFETwn+3f/56gqro8DL4oQRR4c8WGtNln20GX7MHlviIiIqOqgQqP99iM+fiy0D1/hlfigDWShrq4FbQnP8SrLbC2ElZ57nbCZhcL1n8N0g9V+kG7res+7l0wXQWXbkvZkgmX2Hgcutv2WZp+11s8UERHtjYMJja+++oCXJ8KNymf4+RaDo6UPMBgkzfZjAEDs2/ltI2MmLlJm6fljB4M5QvH+dZkugokGhHMMBgPMQwXjaY9w5niIogm02Iedrl/yHLKTtoaJLByZLi7GChDO2/fDI6dNZPuN+rD0AeYhoIwvuh/HRET0oA4mNAJ3+ObLZ3j2LG1ffoMYAJQ/xp9tKzUWnKqKeNODcYwxFMTwXQsAYLk+YiShL4qmGDeuqgn3XAMQw780kMU9S09CrTI2hEpoiHkaLPXk5ZLnuCivQ64QRJM2wuPKlKv9MRjYSH9LQBnqW6++PaTi0Ilc9iNotDputik/jo2nUrolIjpsBxMav/7iJb74unjDP+Pfk9SIP/yTwu1b4eBMS/5VDVWZLLS1V52O027dSfqc/Zg4VgFgidvszD27xRJZYFsFGblTJPm3sDwA4AbLGABUHDevPmDqGCoAwqtHFgj7msFbNO7sA5UdY/dsZuAqBKCds9pIRHQADiY0Vrz6M/yxAgAx/vPfxDs3YcINJtAQw7fnCKFhIh3EFsO3hW7r0ji/CbKMeGuM0i7h4vJdZaFPQlFxKt5WURcO68JklakPoQAIr4UqY5N8TGB5TGdlLFtx3FxpHKGs+10cl1msjBUnswiTlaTjE9cZa+rASMu68cIrVN9Wr5018YdENh40b6Vxgi3LF/dR9m/PWT2nOOYw395k+2VjdfPnN10EhWq1Nknu95yGMY2S8azlj0j2PgVwzfK2ifvFug4BKBjqlTebiIj2zIGGRhtvf/4ZFAD49n25ArkRB140xViJ4dsjGDMLuu0j1iaIpMFRrjgOcjDQ0SNq7cAMxlVyYh5frE7+jpeE2th3hfWrjmlMuupjLG9KD0woY0yLAUIMGJ0NcTEdJ+8pkFZyC8HOdBEUgnhGm4iBBVDPL1q67JFsZ6d1Xe2P/IdAaVxndsyUl1LG0zwgOV6EqfiAXPvyK0NcFMrVM2+RDtEYo9jDm4V8xAt4NT8IlPG0st+6MN0AkaRkXjfOc3hR3rbK694sET/C7n4iosfo8EKj/RYfP77ECQB8+xbPXk7FR6wnDyUh5sVxeTMDo4ENX52sWZ3aVFYplIiXkOW4CktPJuYUAt5ESyql1Ukt4phGSff4LigKlvM0aOcl2aw6mo2pBMLsMYXJStpZ+V1RsEjHWabv48zAqDTuMp2kpAzRu8AV+7BXgz0L4bvwQyFd/yQIrbp+i+uejRNsX76guI90a9W9W9oHJvRhktLCq+Q1ihO8KvstO77TYyxbx8ImrmSToYT1zZ6vOpRDgbJMJm8VJ4apxZJ3NtSCiIj23kGFxldffcDHdAp1/M2X2wuMKAYLWWVwBmNUd1+7rBtRUqDpYIbbJcrdy+YxVGRVvmqVSs6CXgpO4oSV7P6e2yhOhFl30kTsI59jY12nAUOBeopSF33WfRpFheqdelwKV1lYWhG7tasVy3pZiM6C5hjTvFS2CoTKeLp6/uyNVlScFsZBZuu+qsh1Wb6guI9SSfcuAO0sCWyOkR4PIbLRBGLXeH3Vs8WpmlYwfVwWDp6ZcZW+X+IQiOLEKQvZqirJm1ombisREe2dwwmN9lv8/LPkZPft22f4fHt90jXEoJG1KcbLuSR01ZttNKaxOss0n01tD0ozeptVx83J20NUU7tajSMttcagmo1RLVb61rkcUjpUAQC0SaVrt1RFzFsSwGfGCINs2Twglvdz0/KNLDd9/zWcOYCTzuDKhx04XhISC+E+qwzula5VcyIiejAHExrtZ6sK4zYLjFKS6xrmLRvjKJ2okShVjaJNxvmlZgZG8xDQJojSimU47x5aE1m1tK61BSmxitRVEmaApHvzvHuJryDroi+Py0wCYf37AGA187swJtN0z3tUGguK3cHnLsy8Cgxok+qEn1KwzCvZWcjXcOb0WL5WoZJ55qWz/mMs0sGMWYjE8jYN1qvJPDKlrmNROv6wMoYy359rDGHIquZERLT3DiQ02kgzI5TPfl7+qzAfP+KtDQCv8NWH5P8fvtrswo3ZibbazVkMDlnXaUHp4t6F1lgJ60h4bumYs53IQknPGa4zD9nVafIu5ekQebmtl2wyT9YlX6j61uefRD5mbnWJpLVXo3B9SyhjXLhmWgUGyhNmikMRxApvts5JiG1fvl0+IUbT0ok6q0sj3WQDYtMfHFE0gRqLW78Kr9kPHmlgLYZmyTCB6qSqDrIu7zzUEhHRvjqQ0Hi/snFiYvUHKFbLVmPGHrsslFQmZjSawbhcdckmXcsjXK0768HSS128iWyWe+lGQaFbGUjGKI6uNph8YcHNJ35M4Z0aGEmqtOG8KdgXJlvN1lleUAhzQPnSSDNjVBoWEfs2Lher/2fyMNzC0osTlTJ1k6ra5T/QnsqHiYjogH1ycnLyvXgjIR3TWDNhIpwns1d7crysa3mA67NsBnNb6Gljwg2yywRdQZ1mM8A7jIcrybZXvmyy7ttYX6JMeszFPuxtVOOJiGinWGmsJc42LrQ1AuOhyyfjlMYUEq0vGwspHQZCRER7h5VG6s7xksvBsDJEm8qOpTWr9kREdP8YGomIiIioFbuniYiIiKgVQyMRERERtWJoJCIiIqJWDI1ERERE1IqhkYiIiIhaMTQSERERUSuGRiIiIiJqxdBIRERERK0YGomIiIioFUMjEREREbViaCQiIiKiVgyNB8eBF0XwHPH2fkw3QFTzJI4XIXBN8eZU8vpRsQUuio9uXr6B6SKIAqyz6L0wXQSRB/leW1/T/nI8YV/LWs37uA2rdXPgrf3etC8rbmdlfzgeoh3s+5X2dazjeNl70PzZ3Pk27uj4XDHhBvXbV6+4XPLvyrav4b6OzTb136WbP/eD2Og4XPcY6WDnx7co2ZbK963QtnEsHxKGxj2yOvnsKwdeNIHq2xgMBnmbL8eYCsGxbHsnijqmG1Q+zLLWtHsrz9H04K5MF8EGz2npq/0sa7Yfi4v0VtruxvexhuOV91uv50iOjQnmhe2ysRhOe+8rOcmPnJ7vhxj2ui63ssk2tqx/r33djekGvT+rlc9O2no9T/pZKe6Shz02V+qD4bZ0CJib/qgW90Wxddm2TZeX2s7xbbpB82M3CJzhvPq9W2wjYyYu8qgxND4R4pf6dKwA2qR0W+sXvHMGLfZxKXxILH2OUBlCb1l8l2bGqPJhLrc5QnGhAseLMB0uYBeWmWPS/EXUxnQRTMdY5l86Nnx10usLVhpYxPdxE46H6XiJebrN9mKIaY/1M90A0QT58vlzVL6gFYynkuPMMTBWQsx1q/DYGYxLH7F2vv4JMmdBL76noXASKL2unBjc500HksxG21hd/7j4o21kYG9OWbFf+vwMep1QTbgXyWcl300PfWzmHBhjwHfTFRN+CFa/S8Xn78A8hireJpoZGM2XGF+s+Z1k6aX3pnRMLW/ER8tJ3uPBoNvnSO6Ajm8CGBr3i6Vv8uFr1h6qOnzBW9cIlTEuhC9Wx5tAixfwahefwRh1eP6HYro410LMhS8oS7fhYwyj9xkg4RhjwLdXJ0HMYIzmCFuDQlnpS1TWNjhmnDMN4VxH9gwz4wph4QQ40YQFShwYY6W0PADMjEv4sYbz0kbG8O2a4yxeonLKmt1iCQXqqXjHJkwcq4B63GPnb8tWtjFZf6X7Ams5VZWdv0aFY2AMH1kuw74cm8h+LBe+32YGRoXP3zwUw1T5Nbsw9SEUKBi3fdlYOubL9b+TqpJjankr2e57dz/HN22GofGpkXQxyH9dy1jQB3Msx9PS8hPMD+QXYQzpD+pTFYrspI4ZbpfrhgwHZ1qMRSVJW7gOFQwfsiybS9axvE9usIxX1bjGqpp5DFW6T5P91vnLX1FReWTtc2/AMTBWAGVs1FSC2ipORcf5eKfm8JLaxjam64/8R4cw5mo6xoZ15/SYAKCd1ewjQJukr9ej6tfMhHuuIbwqfofsybGZhtd44Um/30w3wESLEaP6Y7oz08XFcAE77Ylo263WdQjtfM1qo8jUMVRCXPdNubuw6fGtjDEVzm2dl22QH+91re0Ne2QYGjs6OjrCmzdv8P79e7x//x5v3rzB0dGR+LCNSMc0CiFPvLsPWXfNIAuBnZ+43J3QrdIlH9NY7jIP4Hb/Ht+umyVi2Ul9k1/h5jFULCFb9GYZ9zppKUJIr7Y1usNq9QjKtZWyZL916vKyXPixhknp+Eu6KpXwCrLCz1pMF8FEQzgfYB6Kr5eRV5zEIQJJSLyFMeoQXrClbUzXP/Zt2D4wnnpw0gp+/jm0fWw2wtWEGyRjlm1fxaRmaEbevS9+7isn7Y7HZefgcs/HJpL9fq6FuKq8SclYvKT7fITRKP0erdlntUwXwVTF1cjADDMYIxvL85bv+drvq/6S3hC3e2W08h4nrXF9u9jG8V3Xdd5lWSnh9eua+Dl45BgaO7IsCy9evMDR0RGOjo7w4sULWNZuD5Yk5Kn5iWwwsLE8n6BLYUPmVFUQV74gLOjzEFCPG7/sxBOnvHUfpO142Rdutm1XUCfr/xosa57FWjEzcBVqlZOk400rXWb3TRxPJ2/9u8O2w4Lrx9Am5XBguhcYK+KJtq6Kl3wxz1EcEzbFcGFv78vY8RClY0t1K9mnc/QbW1oZItBr3TbbRtMNEE2ToQ4jY4aZMUpCXZ9jvI3pIkjXKX8N6fi/BpWTdvm4TCo206SaVFRb6d/ENo7NtNs4vC5tR/JdOAHmxW1Mfkwn+0zy478iraJdAJel/ZQcK9dnDZNAZh4WsYou2bmR42EiDcQNKu9x0sTDOK/O1W1Dwb0c332Ikxe7tg7b+hgwNHb0+eefizdJb9uebEzOqFCJSMfElR/Y2c0ylnTNJV1Ddd0vmUp4sX3EhcpM0orr2sB0ca7F8O3il6UFfa1fg9th6YUv/LRt1O0+u8US8i/2U1VpqXS0zCisbT1O8LX6VVdnxgiDOTAprEcyoUgMsvIqXkY8viqPsfRKCOmi+MOreGKz9AHs5fmW9lk3a22j42E6VhDOy49P9nsIbdL9h1qtQqiuvgYw6fFjsElSobSx/oT/+z42TehDBaFQAs3eRzEoIXvNQfOPiiR0XgCXxYke5dnTlj7A4BK4iOrCiKyK2oPpIpiownfw9uTV6Lbvz20e3zVV0Cjq2T0tjFnt3Nq29ZFgaNxXtWNy1lf8Bbf6QK2qC+srh5zWMV6nKpSartudaeguzlQmCzV88berGbuYBubqWMciyRCATq3vCSBZx/LJ5xSqsqoUtL6XyMJOYT0qX54W9LYfFJKxttXWP+Al76n8tZP7+u6zzGq8Vad9hDW3Md230kPR0mu3rZf7eI3e9uDYlEzO6fYeRo29LknorHnNoiy8VNZ5Q/lVHTqsw65t6dirfHfbPmKEwlCsNT/rde+5NMw/fgyNHX348EG8SXrbdjWHnHVkHy7bj4EwuW5cn8Aovx5W9bIJrbbeHdViZmDU8qWx7WuxWa4PjKeFLpae49jyqkRL22Cdreuw1IVnuufQ0uOi63spXs5J3upPooDk5C62LVWha/enh/rwILUa79RlHwHb2sb6KnSge63HeBe172egwxvVnOB34KGPTekEGMl7WPwuXbU+x9I61isoOF6EaDrEQqi874/dH999OF4kmQeQvu+LIaY1x85jxtDYkeM4ePfuHe7u7nB3d4d3797BcdY/Wbea3WIJDWfiS3S5ntd9mBkYrfvFeLNELLuu46navQvhEMwMjGwfaj77borxct67glkZTyeesDZh6aXq83S4gN1z/Sq/8iutw5CKul/zWevTvSSVnIzKF9gu7MeWrmrZZCRx/FurTbfR8Qpj6cSWXiy88oOuj6R6Kl6vNG9XavNJUto9WL9Pc3UTOx7y2OzUI/BQTqEqfQsKxQvMr/m9jbr3OG0b/HgF7uP47iuZwV/XhZ/03KH9MkmPDENjR3d3d3j9+jWeP3+O58+f4/Xr17i7uxMftkUWrkMIA7kdeOKJxfE6fJCqv96qF6SNan9x92XpLdXLmYdFrJQvUpvOnivqUvmTVxKSyUJNl0rofcJHt2plhTg+pudJbz39/pRX6cS67a6wPmoG2a9aed93OT5y6YXp60JHdv2+yo+0vDux2hqP8To9t7HIOUtml8o3IR3vLPwY67WP0lnM4vVKc5aOuWzIhXgMddye3MzDombfP9SxmUyA6d4j0JX8+yr7zlpNyBFb+YL4Z9CKPTWdzgFpZVx+8HQjqbKW2ibPvebxXdtzMB1DgSYMxVq1rh8JqmJo3GOWnl4eJD/Yz3At/DI2j9VqF0pF1zFyG/wC7SW5tISPwq/WC+BS6J47VauD0EX1J6vmttYJ/2CcQu10CZPD1uX4yKUXpq/7iyLZrNquT/cQrOsQSmm4Q1FyuRzxIvu99lEa3sSrCOQcD5OdVN9m8BYxNFlqfBDyCTDbsI3vK7HbvNs5YP+tc3zX/aBra/JgKkrG1Y6n8mKK6QaYFv9S0BPB0LhHZH8Rpvyh0GGlATB5mAl9iB18ibdo6qLIWunEI/uLMMI1sEYGZqUubwdn2gOcxCvV12pbq0q5AVnXaNakf0bQOYMmXCbkIHQ4rlYnlL7HR/K5KV/2prAf1atuVbFN9dpGgaVjkEwHriyTX8KnVI3ru4+Sz6R4FYG8nS9h7+iHZfLXXvr9paSdSf/sY/f9do9MF+dq8U+5PtA5YBd6H9+7Z+kDDOZLaQU4Gcaxm8/DPmNoPGinUNH05/u2r/Mv5U0/3OYx1HsOPl237T6rlJ1+SQs/NMxjdSdVkp1q6/pKW76pax4ftfuzW+lhM323Uaq+16ByXK65j2o/B5t+phtZ0OfL9KLODyvpJhWvZ7sHTBfBdIjFZfF9uP9zwG71OL7vS93ndqefh/31ycnJyffijURERERERaw0EhEREVErhkYiIiIiasXQSEREREStGBqJiIiIqBVDIxERERG1YmgkIiIiolYMjURERETUiqGRiIiIiFoxNBIRERFRK4ZGIiIiImrF0EhERERErRgaiYiIiKgVQ+NDcDxEUYTIc8R7qE227wIXpngfERER7cxBhcZXX33Ax48f8/bhq1fiQzZnugiiKAkmjc1DXeRzPOGxfQNOKVSacAPxtdvX4UnI36snvh+IiIjuweGERvstfv6ZUrpJ+ezn+PjWLt22sZmB0WCAQW2bIxSXySUBb6LF8O308baPWBlj2jnYOPAmGhD7sHVLvFOgYZKHyydoZmBk+4ihYfJU9wEREdE9OZzQCCD+5ks8e/YMz549w5ffxMmNR3+EHdQb1+MYGCtA7F/CmKW3zQxc+jEADedue73R8SbQAIRXBrKnyITzmvCqTfBkM9PMwFUIQDtHh91LREREazqc0Dh9ic+/+Dr/79f/cVe6ex+Yx6p4EwBgdrsEACjqqXiXwMGZBiD24bYVGWFBH9jw0+ysnffsAn9ELNdHDAVj46kmZyIiot07nNAosJ+dAADif/9nrKLkw8rCoSgLk/HyRryrzDmDBiBeeJUqo9wMxlVab1RUFCOp6QYt4yrFsZJi97kDTxhDWaxmVp5f2k3e/Bzt91dfxzsr3w8AmHlYxAC0s45DAIiIiKivgwqN9tvVJJiXJwC+fVuqPm5fFmrEQFXDcuHHgDK+KHSVOjDGCoAQV3mftVwWLpe3zY8ruVkiKTaqOE5f0/EiTMfl8Z9QxpjmwdGBF01RfkhhXKDpIoiSbvLSIybVUFeiTRBkG17zHLma+4uvIdsOTROXAIAZkryu4axp/YiIiGhtBxUaK05eYtvzYFqZx1ABIF6iWjecwRgNMA8VjKdZdWwCLfZhD3S09TifqgqAGG0FyZJTFaVY5XiYpF3ctjj+URlCN1fjJoEQc/ExMOFejKEIYyjttB9cS1PZzBiVJwjNk6WVoZ4E02y9SusxQDK3p8NrmC7O03wY+3b+mPRlKm6WaT89ERER7cRBhcbpy2QSzLNnz/Ds7bcAgJOXH7CLK+9swtKLE1YGGIyqk1q2ZTWOconbWeH/yhjTvFs3C4kK1FMT2UPCeTHIWtB1C8Ap1DSFapNVt3Be8VOPk1CYXRYoaxOhAmhdp0E1W49itbbDaxRC52WhQmtd16TGlJqVW4mIiGirDio0lkz/AckEagV/+CfinTuUXZKnMQim3dqVcYTblnV9Awivy5XMcF4OrqVKXxeFywaJAdh0EUy0cqWyUgK0oJcqg8nlgfLua6D5NQqP6qNX1z4RERF1diCh8RW++iBUFO2fILlsY4z//LfC7QdPQeskayANplkFMYafTrfOJ+OIl+FxvHSiSjb+D9AmxeqfA89zANwg6elVML4ohl4TbhDANQFTH6ZVwKyL3oSb9SUL8qprqfu6/TXysZrKGKtJ0fWvk3TtExER0a58cnJy8r144/55ha8+/DwNiYJv3+LZy2npMfE3X64xQaYYwvoIMa+MV0yfK/Zh96maOV7SzRvOMchLgibcQJy0UhTDt0er60I2PT57XtNFME3GFErvz9ajIn2t0+r9cRxDUZRkDOPIwKzuObq+xky+HZXXAQrbLO4LIiIi2pYDqTR+jS8+f4tkFONK/M2XaWDchqQ7tdJV2trEwLiBbBxg10vHhHMMBmJIyibjFG8rhDVkXeziX7YJMc/ut/TkL9mU7i8EMkvPJ60AyXOPruSXGyqKfXu1Dm2vgRmM0eo6lEDD65g6hgqAeAGPgZGIiGgnDqTSeGi6Vi2rVUrTDTAdKwjnfcYfPm3cZ0RERLvH0Lh3ssBZDZQks+ZQACIiIurlQLqnnxILuu0jhoZJ14uKP1km3GACDTH8SwZGIiKiXWKlkYiIiIhasdJIRERERK0YGomIiIioFUMjEREREbViaCQiIiKiVgyNRERERNSKoZGIiIiIWjE0EhEREVErhkYiIiIiasXQSEREREStGBqJiIiIqBVDIxERERG1Ymg8OA68KILniLdvh+kGiNZ5ctNFEAVwzfQ5Ahem+Jgmposg8uBssg4bLlvchp0obGOF6SKIIkSNbVfrVjymHHh169iF4yFqWN7xxG2KhPfLgdewnaYbNCx7D+/hpsdYl+Urx4K4P024QYSgz0Y6XnW/V5r4OkREZQyNe8TxJCfBLamcbEutw0m2ciLruFxJEk6y5ftvanKyLK5Dt+dY4yS7hnIg6rlvZgZGgwEGtW2OUFxmHU3BtVGyD7vtbznHizDBvLJtc0w6HfeOF2E6XMAWl+37A6WLdfaT9DOStg7bB6ThbjrEwi7sozkw6Xs8ycR+ad9Vmw5LXIaIqICh8YmYGaPVycH2EZdOICMYM3EJgRhqbB+x+JhGJtxgAtW30+eYA5M+J0IHXjTFcJEtnz2HJAxqk/Rk3fOkvwHHizBRC/t0vsR42mP7mgJHFCGKJtDEZfZA5cfIZEdrabo412L4lwaKh6qlzxEqYxj39Ua3kQQz2+/6STHhnmuI/cvy59HSMQ8VjPdmI4noqWJo3COWPsBAv4ff+qcqFEXFqXj7Lpk6hvBxmZ8NLbg+MJ6mYWM6hiIsUmS659Di4vIAYEGfh1DGRjkchlk1K6uczGCMBhi1JuM1mS7OtRDzUSHQWDpsHz1P9CHmQuAotw7hvs2p2rif+yr9GBkMMJjX10MtPa0MCoF4gnnH436J28r232AZA+px13S+/5bVjcRNspHbr6gSEfXA0PjkJNUMQMN5XRmsT6VOT8dKtYU+fQhleVuqEs1ul6vKTEvl8lRVAGF5AMDNEjFUPGRmMPUhlPC60rU38xaItbP2fXiPnLPkvT+TrJQ26V/R7FtptHQxCPf5oSR7n0+RHBqVI2MLZK+3JQ2fMVkArj3++1DGmAqBvdx6VMaJ6EliaOzo6OgIb968wfv37/H+/Xu8efMGR0dH4sM2Ih3TKAxgF+/uy/GmGMOHbfvA+EJ+kqhU6iTdp1lI9PTksS2hT+pmibhjxbO20nKqQpFWoIrkYxrLgSeA22VFJE5VBfHyRrwZmN1i2St4aJhUTuTlJm5DL46XdKHbPtRJNayE80HvsZPdKo3lsay1rWls4szAVahgfFF+jONNoMU+3K65syNTH0KBAnXNY6KV7DOGGYyrEIr4uXQ8TLQY/iYbaaWf08a2hUo2ET1qDI0dWZaFFy9e4OjoCEdHR3jx4gUsa4Mv8Q5MN0A0UeHng+JtLM/7VYJWkuA0UX3YIwOzmYGRvcCwz7i7Svfp/Z1kZsYVQmWMi/LZFN5EQ+y75SpfQxUn43gRpuNlYXuuoE6aq6U7JY4ZrWlrd7E7XnIsXabv/RyYNOyf7bKgC9th+zHifHxr2ord+xKWPoC9GJaqZRPMW5frz4Q+BHw/hCYryaJ4jAmfH0k1bzrucVRZOgb2AsNs2EYUIZoA8zU/a9LZ6h3apj9OiehxYmjs6PPPPxdvkt62PQ6MsYJwXjxZzGCM+lWCEskkkvFSOMHODIwGV1CnG1aw1nWqQomXkNToJCzoAxuL4bRwcpsAc0mQklZxCrJJFXbxfgv6OtXStAqqyEpS5jHUlipopXu3Y+v1fjleNXhYejort19wTLqwZa3f85SUqunNP4oqlU2xa3tmYLRmwMqY7gXGyysYhgtfncgDVH6MFV6rKfiL69mk8jzicdx9jK50OECH1md1iejpYGjcV+YxVMSQ9Xr2l1Z6pGeC5L4uJyCp7ITfMqZx5i0QC93L5rG6qsy0LJ9ITpZNJ7eZMarZzoJOXdrd1Y1ddIyxdKxjUSUEdWy93i9LlwSP4u3JMZDsNgu67LGSfV9usmXqzYzRahsqXacNoU8cJiFtfarnAtPFxXiJuW4l23zpQ+01yz9T1yXv4bT1GK1eWkrWev1wABqfVxqMiYgEDI0dffjwQbxJett2bS/YlNSeeAPoXtsJTZCd8NuqdDMPCxS7lx0YY6y63tuWBxpOxELrcgbsXOHsYGbgKtQwKY7J6zsOrfY9Kb8/vXOCVP1+7B9E+ulWWW3YzkoVTmzrVOJTjodoOsZyXgjAMwOjvpdPcry8Cl5Zvzkwad3PbQF9AOnQ0Sami6ByyarVPsOk4+eGiJ40hsaOHMfBu3fvcHd3h7u7O7x79w6Os8Mv2dktlrJZruYxVOGmPkw3qF48OG9tXdWyiRpduyWTrvXlOOtengClrvcuqmPjxNbpmng3S8TKELq4mRtcjsbSB5gvC+PZJip8u+/2iWNGi22DMFSQhLZzLKXvf9r93zQhxfGa72/RXllt2c7WcN3cvV0vGR8bzqvV66Qrf1mZhCOXXWvRrj4PsucKoQz1hueqrwhmrWWSekUyw39eU6G2oA/mCLXz7sGYiJ4khsaO7u7u8Pr1azx//hzPnz/H69evcXd3Jz5siyxch4BWmuXqwBO7cXudxE3oQ3GcZFF63UPZCa22wtOnW7Ic+qQn1fsw87CIhZm4potAOBO3/rk3QXn8WN0+3rI13v/KxaNz6ZhZWaDuqq4rPNVeaewS+prCtWTfd9pHxS56CUvfwYSbZsls9vomD4BERLvD0LjHLH2AeVis7p3hWqjEmMcq4oXX8WQ2g7eIodWO0UpnI3d+vkM1gzGy4aNQGbwALoUu8lNVQXhdlyL2wzrvvzKe1oxhS/5qjxYv4HV7wrVUZk1X2nYDd799tKnssjk1+9jxED3AZywZd1v35xodeNEEWni11f1ORI/PJycnJ9+LN9KhMOEGF8Blz5Os6SIQK5YAgHiNLtWU6SKYDrGwR/D0IPkbwX0qM6aLYKriaqDjxg0wVa/6ja1MmRssW+bAi85w3VA1662wjZXnrH1PisT3Z833PwsJ4s1poGusYKWhp03d85hu0O0SNGHNX4nptJ+Kr7/uPqrX7Rir28ch5rL3v8SEG0zRupvi9PJZ4u216p9X2i1PRCRgaDxoDrzgGG6vE8eOPLbQaLoIjFuMNn2eoqbQuJY9ev/31vb30daOMSKiA8PQSEREREStOKaRiIiIiFoxNBIRERFRK4ZGIiIiImrF0EhERERErRgaiYiIiKgVQyMRERERtWJoJCIiIqJWDI1ERERE1IqhkYiIiIhaMTQSERERUSuGRiIiIiJqxdBIRERERK0+OTk5+V68kYoceNEEGkLMBzos8e6ty16vRezDHhmYibdTCxNuMMVYAcL5APru31AiIqJH4UArja/w1YeP+PjxIz589Uq884GZcIMIUdTSAhemuCgAwII+GGBQ2+YIxUVEjpe8hudU18dzxEcnsmUa123frLatbrM6MV0E4vsTRYiiAO7Od8SWtoGIiGjHDjM02j/BZ4p443aYbiAEh6zqp2EihIqgMVHE8G0x8A0wsH3E4kP7MI+hireVOPAmWlKJlJXRtDPIsolz1lrbfIIUjKe7DnMzGCMbfgxoE0/63hAREe2DAwyNr/DV8xPxxq2ZGaNSyLP9VcSLfbt038jYv85hx0tCbngldl3HiGMA0HAmJhPTxbkGII43C7T3bgZjlLwXsnzcX4i5pKKrnW+x8ppVNUvV3BmMqxCAhvPGHyJEREQP5+BC46uv/gqfKTG+/Xb38cZ0A0zHChCHCGNAGU93XHXqYXkrGc/o4ExLxju6lRClYLlMYpAmpEZTH0IBEC6X2FEB9wBZcLMfDIqKU/HudZ2q8n1sufBjQBkbrDYSEdFeOrDQaOMnnymIv/lb/MN/ivdtT9ZFPR0rSXVxpEMfJVVHbRIhinbRjejAq4ypk7TpOAkd2iS9rbAuzhk0APHCkwRKANfXSfVMOy+M1TOhDxUAIa6vS48uqK7bKjyXx+Q5XrX7vtTlLxkvWR0SII4lzF4/gGtm//bgSMcDVte1+nw9xUvcpP9sX1dI1yHfN5N0GIAyxrS0P2bwFrG8EkxERLQHDio02m9f4gTf4v0XX4t3bUUWeKZjBeG82gWdd13PkY9vbB7X2EfbBJi6tprRbR4nox2Xt9LICMDCdQgACoZ6ut6mjiQzXstnhpsuAslsbm1SHeunngfIMhEAKOMLeF5arV3diIvCPnO8ZH+X1Y8lHF5U16WdgvG0b9B3YGTrlVZ1O61rzf7qYna7BCSVYCIion1wMKHx1Vcf8PIE+PbtS0zFO7fE0ldhrHGMnKXnj6sf15iEiXJVqlAp3IFTVQEQY5mVxSSsJDVCGeowi13T17INNuFeJOubhehBYZynGG4ULGAPBoXxgAo0bZmPE5yngwSz14bj5SGz+PzZ46pjCRUoy3klLJeJ4TuZZNKtglec7JQFvxBz3eq+rln3c+yn+2J1PFn6AINsgez+4mWTbpYHNqaUiIieksMIja++wl99pgDfvsXLXSXGrVlNzkhaFqCKkyyEsFDS8ZI963aRW2kXtTKEbmbVtBDSzIhTqGnCTbrlk5ZX29TjUqhbTb7JKprlCmYWWDNZZRThvBTSLTedYV4ZSxjDrw7WFIj7L7km41piH3YaTjuva75/0+7ndd4nYb8SERHtg4MIja/+7I+T6s3JS3z8mFyf8efpNXeUz36Ojx++wuZXa6yOQ+vW1ggFjcTQKbYO12lsVOiiNs6Sy/fUdU3nai4fVBt8V+KmsucOOF4SElcz3bNKYxddg32TpNKZFRSz6mWvYQzSSU5EREQP6yBC4/0QuzXFkCYEirzVdZOuS6yUia1tvJwCtWWqb1YdUzQNSmP17gbLpIyG8UWxq9iEG8gmgPSTjeErT8wBHCPtwi9MQOkmnT1eHNfpGOtXGgv6rms+1CFNj3mXfKZSRW2YWU1ERLQHDiI0fv3F53j27FmpfflNUj6Kv/kSzz7/Al8/+F+JqatU1l8cvLlSWRdS68Nq1v0rjjWsmHlYZNW3eAGvtqyVXT+w2N0abdblW5ReZkYc/5mPHaxca7JNFnIL3ekTNb0+5Ya6rmvxL+tEhdnSWfUwH7eYHg+F2eRZF/h9V2eJiIi6OIjQeBjqKpVtrRr+1paNp6v5qy8r2eVdGi7Pk7F0yV+xieHbI9TOAeos6YovXkA9kQTmxslIUjMYo2L3fQzfvsSi9Jh1rb+usW9jkD1gZuCy8hzA6tJHMRb1KZ6IiOjBfHJycvK9eCMVOfCiCTSEmG8z4NUy4QbdKnnhvBpWsguSy+6jPWa6CKZjKOF8FTCJiIj2CENjq/sOjZs6tPUlpNeAnGjbquASERFtH0PjY5RVrRgcD0JWHY59u+G6n0RERA+LoZGIiIiIWnEiDBERERG1YmgkIiIiolYMjURERETUiqGRiIiIiFoxNBIRERFRK4ZGIiIiImrF0EhERERErRgaiYiIiKgVQyMRERERtWJoJCIiIqJWDI1ERERE1Iqh8eA48KIIniPevi9MuMGa62e6CKIArine0UfT6zvwmp7f8RBFUakFpQe3LN/A8SJE8pVam+kGq+d0PESBi/pVS44bcfuiyMN216rO+vsuZ7oIGtbX8Zreu+z9rV9+c1vYxtb3scWmy69B3O/StuVjn4geBkPjHtlFsCgxXQTil7msNa1D5Tm6nISTIFc5ie8Tx0M0UeHbAwwGWZtjOZ42r/dWgm6dpgDcg+MhiibAvLhtaZsDk01+hFSOhx7HkoTjrXOcJPtpgnlh22wshtPer9/FOuvYFqxaV1Pyg6bzsinTDSrLVtt6x3Ls29Vjq9h0S1yEiA4QQ+NTMjMwEr/MhTYPxYUKHA/RdIhFMVjNgcmaJ5rtSALD6qQ3xVgBtEm/E6FzpiH2L2HMirda0OchlKF+r5WbbUu2zYb0vG3psP0Y2lnH5CESjql5CITFcCp90S1zDIyVEPPSa81gXPqItfPW9/4+WHphn9g+YoSYF/Zb626y9MpnNXmeGMsb8cFyM2NUfY5Sm6Pp409ExNC4Ryz9nk6yazHhnmsI56NysLJ02D4wNppCxwzGaIBROZFtSfLc1RNgsQnrLGFdh1DGF0LAcOBNNMQLD7WLzwyMOjz/02DiWAXU43VTWrL8KqQLPwimYyjiIpl4iUp2mt1iCQXqqXjHAztVoUDF2rspZepDKPEC3mmhCjnRxIcREW0NQyNVxNLSxSlURV7VmN0uAfX4watx1S7A9gpjztIxmC8xnhaXT7p0dxN2708SiKfybkzHw3SsILze/MeK6V5grADK2KgZsqDk+1favWvqGCJEiDEuXLP6g8D2EYvLZBQVlWxoHkPtUYnrQ1k7iSY/vuK47YdWGwfGWEF4ZWBWrEI2dBW0d09PsG7kVMZTyfMV2j2PsySi3WBo7Ojo6Ahv3rzB+/fv8f79e7x58wZHR0fiwzYiHdMojGUS774/N1jG8qqNeawCy9v6alzNmMbySSyAK3nubmRj2gZ5COy8zyRdgK2FX+mYRmHSSecV2BFLx2AeCl32aZtoCOcdtrON42E6Bnx7ANtXMZGGhDgfM1oN4g686RCLSx36qOd4RMuFH2uYlB5vwr0YQwmvtlwFdnCmYc0fSSbcYIrxco7R6BK+Oql8Jrox4QYTqHVDDpqEwmek0vpXzUtd73VtZDR8PxDRoWBo7MiyLLx48QJHR0c4OjrCixcvYFl9v7H7Md1AmJxhY3m+fjVAJA2ptWYwrkJoEyEgZWHB7bcvHC/CdLwsjOu6gjpp6H5slFRBK+tg6ZiHbd2ldbOKhSYNQRKmiyBKTujZCdNenmM/eg3L4+i2NYbN8bLwmQSOmTHCfDnGtBKm6zjwogmQD31IKoz28rxjtTh5/ByTwns2xXBhb3+4h3MGLfThYwhdul6ramrps2W6CKIkMCbrNIORheOuxxaQ7qs0eKbprvTj694OtI6fm0rrMnGOiPYVQ2NHn3/+uXiT9LbtSbufSmMIZzBG2znRr8XSMbAXGBa7cCfAvG91wnRxrsXwbR2rU7oFvan7sVFSBa1096Wvs/CaVs6CLlRFbD8GYh/2GpUSxxhDCVcndKQTEBp6DTejpUGpEhaEk/pEA6BhUjqBJz9AyhXIfid10w0w0ZIwWsxnlj5IxrpOW57P8RBF51ja1WpnMnGj+7ElVrwq1UxLx2BQPOb6cuBNVPiuAeNqifGFLOytqqmrwOrAS8qwQohNw+5yjGmHH2/J8It0FnzheUoTXNoOtOx4aWod1kX2uenWNtn/RPTQGBr31Q7HY9VLJiIsbxvO0pUZ2GucBE5VKFii6WX6Sao2viqcEKdDLOzuoUOqNDygrcqb7D/5mNAdybobK2Hhfk7qSWCRL1O+z4IuC4CWLgRDcTb8qnmnBkY1rwWI71VdawmxDRxvAjWbYW/pncNe9l5UQmyqdQJcelmjbPhF00ObVGZPS2ZxDwYt61Kn9tJL6+9vIto/DI0dffjwQbxJett2bTNYdZFUPhrPGS0XWO5MNtt1I9mkCRt+nF32RRJSasnHXZbHOXar8jaG7odSe1Lv0v3brn2SRYfXKnbhikHG9qFOWqpgkjGp4nOsV8lOx8yqPi4LB5Slpz9UmtZJULoge1fZD7Xsg1n7XkbwoHeuim+L6QbVS3FlbdPrgBLRXmFo7MhxHLx79w53d3e4u7vDu3fv4Dg7/Cac3WIJDZXL55nHUIWbDs7NErEiGRN2qq45pnG7ZsZozRPvDLdLSK55mFQg1yWbwFIJtw0aT+qDK6jTfs8nU6liVVp74M669qWVrpmBkd1y3cW2SmPTJXsamO4FxvBhV46JVYV7a6HIag59ze/lHGgL1ltnQh+Kw2gKsklY57KufCI6NAyNHd3d3eH169d4/vw5nj9/jtevX+Pu7k582BZZuA4BbVKs6iVjo0onvi5/NqymMpEMc2sY49T2vFIdqpUzD4tYKY8JM10Ewri8TlWZSlCQXdx73W0R1XSxFljJm1YKEY6XrNNK17/0Un8NyrquzqqWk3rtBcy7ruOeEceiVlq5e7vLMdb8I6LD8b41Hd5L20esnZV6AqqXokrbdAylMs511Vp2CxE9QQyNe8zSB5iHxS/1M1wLFRvzWG2++DQK3Vt9W+2JclNphQZjTLNtuwAuhe7DU7XD9QPbuiR3vi0CyeVtzq7Fv7RzClUJ0bZp2zGDt4iFHx9FdRcwv891TFiuj1ir6e41XQTT7V9Cp9Mxtjey97Kumz/9URlel4KxOEGoa+sWhLN1qgmZjpfMrL+6p88fEe3UJycnJ9+LN9KhMOEGF8BlXeVhB7KTt3i7KJZ15/XhwIvOcN008aE3B150jqV0ckx6Db3WDUv+zm73Sp+E4yE6u5Z3w/ZgugGm6lXyPI6H6HxZv89r37cYvmx/bGkdV5r2fZnjpVXwkpr1LEoDSpvVdSm3fYy1b6PpBph2OMgar53Z9728D7XrFGK+tf1LRA+NofGgOfCCY7h1QeGQmS4C4xaj2jPnOtpP6vfBdAMYt6P6UNBRr9DY07bWcWU/9n3J1o+xPdxGIqItYmgkIiIiolYc00hERERErRgaiYiIiKgVQyMRERERtWJoJCIiIqJWDI1ERERE1IqhkYiIiIhaMTQSERERUSuGRiIiIiJqxdBIRERERK0YGomIiIioFUMjEREREbViaCQiIiKiVgyNrRx4UYQo8uCId+2VLayn4yGKIgSuKd5DrbL9H6Df7jPhBhGiKIK39htHRES0e4cTGl99hQ8fP+Kj2D58hVfiYx/UKgQ0tsBFr2yRMt2gd8DIlqltHZ8se57ANfOAmbS6oFTeFx1f5uFl27bme5RxPMm+7rG/71u2vvzRQEREMocTGv/kD6GIt+1ANWBNoAEANEyEk3/zyTWGbw8wGAjN9hGLD92xmTFavf48BADEvr26TbfERapMFxdjBQjnGBkz4U4FQ12yL0wdw/t40w6NNtk4kO6CpQ8wDwFlfFHzI4CIiJ6ywwmNqfibL/Hs2bNV+/wLfC0+aAOlgDUYwPZXEa8UtAYDSXjaf+axCgBQ1FPxrgYm3IsxFMTwXSFgxjFiAMpQr4Qgx0iWie87JW/K0pP3eGRgG+9w8bjJjydlDGNHBcesYrhOQdNyfcRQMN7VyhER0cE6mND46o+OxJt2znQDTMcKEIcIY0AZT9c6EW/TqbpJ6c6EnpX+tLPuYx+zimF4hWpOXmKZpEaUi40OzjQA8RLL4s1P3My4QlLrBdRjMWZvg4n0d8F6ZgauQgDaOauNRERUcjChMaN89vPVeMa3tnj3VmRd1NOxklSJRjr0UVIl0ibRZpNNtmSdwGG6FxgrMXzbhh9rmHRMwKY+hAIgvJZ1Yy9xvYgBsTrlnEEDEC+ua0NjZShAscu2OK7QdBHkj8v2fTbxpK6qVr4/iqpjCfPX9xz5eM3C+lTWVfJ8fS1vKwm8PA5S8vzV9SiMJzVdBNEU4+x3waS6bxqXT1nXYf2QAyIierIOLjSWnLzcanDMTtjTsYJwXu2Czruu58jHNzaPa9y2tHpX0x2cWI29FMNCsl0jGLMZjNEcoTaRBhNRUt2MsbwR70nceItknGaheukkZUYsPPlCjpfs5xJljGllrN8QF9NxYTyrhonnwcvHmqa3TgpB3nQRCPcDDWMJ1fNkvGZf2qT3+2+65+l6Vfeneh5gUt6o0vNL9xkUjKey0FzVefmbZe2QAyIieroOJjR+/cXnpbGMX36Tjg07eY6vtjR92tJX4xUb54ZkY94axzUmJ+NKdaoUgPpJAkcM3w8bxsSFmJe2Iam4TceAbxe3y4I+sOGrE2m1aSXr7lxCUhhLzDwsktSIMweFrukFPNkyjpeEo9iHnY8RnSfdtmI3t6JgmQb4fDygpkHNxgnmE4uy187GXwrPnz1Ott8UYJFOWqp7P8WxrtmEoi7BShlP8/c/C22xf1np6lewSNfXRj70MRt7mu0zIP9BMxgkE1cAQDt3Yc4MjArLZo/TrY7LJ/8EZre11WEiInq6DiY0ir7+4j2+FW/cCzMYo0K4yMJQIcwNBmtMskhnL8f+JQxDxzwUqmu1LOiDAQaDUSWkrNZVdl8fM3hJaoR25uTVtHjhSbcxm4wDZYxpHqizyqCC0hyd2Ec292aWVTQRY5Gl0TywZk6RDPuM4V8W9nE2Vk/WtS8dqykoXWIoQlQqCfYTzuXhNLzK1ne1P6Eewyzus3Be+kGTTFwBoKhomtq01vKy24iI6Mk62NC4fZIxcJ1al+C2KQfedAylcLkbS0/HJfZ5/Sz4dOnL7CkPdNoZjLQ7Ow92dcJ5uXqXtsYqL9Bc9dwF00Uw0crBPyvRdSDOum/fvj0RLyEfXEBERE/RgYTGV/jqbfki3vbblzgBANzhP7ZyzZ2sIie2mkph3nTsNAM4HqJoknTHltLGDMZojeDYJO12l1XBABViga4kr+Rp0LTm6t3sNu381CblsXSOt4VAe5PM5hYn5pguztPioGwCSpNsItAqRJlwsye7J6t9Vp7VnFzWSB7wihXVXsubx9hkAjYRET1OBxIaARx9hp8X/hLMyyQx4tu3LzEFkmD5Ibnvw7YGOfZSV6msvzh4l0qleeM2BLmse3mXwTXrKm2fTZvMuk3IZ1qnLDcfd5fN8I2izbp8V2Ywsn5obbJ67mwsaaG7u6s8cOXd6VMM7/sS7fk+K4+VzccpFrq2V6ubjKX0nD7LAzhVk321vJUOLyAioqfpQELj1/jib78RTtMxvvnyGV4miXEP1FUq21pz4JvNHv60nXU9t076sK7zqmxTZszCbqWHN5x3++s0bSy9UCFeSS6f1HMsKZLnK17kHeEco6v7niqS7LPSegB5Bbw0TlGvbnuf5ZOZ7y3Bn4iInpxPTk5OvhdvpCInvbxLiHlLwHtYHdbT8bpV8yThzfEiTLQYvr3ppBnab+lxFPuw1wnYRET0aB1IpZG2onCpoMYmqfblf17uQnKdQ3o0spnvpe5qIiIiVhqpl6xSySrU45S9v5JKMxEREUMjEREREbVi9zQRERERtWJoJCIiIqJWDI1ERERE1IqhkYiIiIhaMTQSERERUSuGRiIiIiJqxdBIRERERK0YGomIiIioFUMjEREREbViaCQiIiKiVgyNRERERNSKofHgOPCiCJ4j3r4ex4sQuKZ4846YcIMIUdTS1t0400UQBdjZ5pgugsjDmmsHOB6ih1x+0/XflOkiEN/rSmt4/zZdHoDpBuXHi8faro8hIqIDxtC4RxxPchLbK91CX30IncEYDTAY1Dfbj8WF8tetf97tcLzu4aOoEkSKLXDR9jTl16221kOiIUx13meOV1lW1lrXpVWIueR9X7URjJm4TGpmYFR5fLHNEYrLFDhehOlwAbuwzByTTu8RERExND4psnAy0QBlPK3c3hQOwrl4si6chJvO2h3Fyxvxpp1zvAgT1V8FivkS42n34Ii4sGza5AG4ytILy83DynPplriEQBqmkgC1vK1LYAJLr7yX5Waj4+bsTkM4TtoEmrhMxnRxrsXwLw0U94ilzxEqYxgNxzsRESUYGveIpQ8waE0I6yuFk0KwQDivhIQdrsYakgrlqLYEtSHTxbkWYj4qBApLh+0D40NNE84ZNIS4vikErekYivi4g7NBpRJLVDP0DZYxoB53/XVARPR0MTQ+WQ68rDKjTfamW/xUvf9YY+pDKOE1xJw88xaItbN7HQNoHquAouJUvKMXE+65hth3YRWrkLaP2mJha/f0FOOtvDUaJpXnLrfdHYoqqtnwFKrSoyJLRPSEMTR2dHR0hDdv3uD9+/d4//493rx5g6OjI/FhG5GOaRRO5uLd/SUTaaJoAi2vMNrw1Un6GjuYKNHarbhqpe7yfKyZfExjeSxhAHfNpHWqKvIu8dktltKgsTtJaN7sNR1vivFy3r8yK+liF9tGFWhpN3q1Nb9Ge+gUjxMgee2rUMH4ojx+0fEm0GIfbuNrEhERGBq7sywLL168wNHREY6OjvDixQtY1m7PNKYbIJqo8O3shGpjed4wbqtJHj4nQDYmMT87ryao2L6anpS3GB47hoVKK3YXCxwvwnS8LHRVXkGdHHj3q+niXAMAZc1u8SRcT1QfdvbeFn90PFD3dONEoYZWCX+V42iOEHHh85G0urBs6QPYiyGmhdeYYN54nBER0QpDY0eff/65eJP0tu1xYIwVhPPiGK0ZjFHzDNFahYkOTZWcmTFKH6dXumsz2qR6gs9Pwmsl2p6ySQ12cR0t6E3drw1uljEUVVKmNI+hSsfB7YZjjKHEPux5CGjn3Sfh5MFsiuHCLoeg4gSXtv2jjEuBStrWmGm8Oqb6tbrwt4nKuogfhpmBUeO4SCKip4uhcV+Zx1ARQ9Zr+nCql8xJJvvaHU/2m16yJ3WqQtlimKsbu+gYY+lYx51wPEyy2b2WjrmkK1UuGW6QXUqmft+3qMyellfxtlGVk83ib3rf6yuVE2hQMJ6Ktzc8X6ehEj1mzRMRPSEMjR19+PBBvEl623ZtKRh1OlFK2hpVpWbV0Cm2zpfsiZfYWp6eGbgKNUyK25uFuK6D3SRVumnXmSOOh2iilarKlj7AfDnGtPU9sKCXwlw2ZrXaAt3DqKGCvHvJuk1Qna0/GNhYDKfSY65SHezYpAG60sUttjUr+URETwBDY0eO4+Ddu3e4u7vD3d0d3r17B8cRa1NbNLvFEhrOxJcwj6EKN7VqOFHKKoV520JVqay90tipe/tmiVgZQhfTxam69pi9PKRl6zJR4dvduikbQ03bPjRdBOm4VbGnNF+nrrOfHK88ZrXU6kPZvXHOoMWF8ZYlMxgjGz7qr5lYX3Est8bd1foDas0xw0RETwBDY0d3d3d4/fo1nj9/jufPn+P169e4u7sTH7ZFFq5DQJsUJ6Q48MTJDI63+yDQcKKtuzh4FNVXKpsuDj6oqxAVzTwsYqH71nQRCInTdIPqbPQG5etYdguMG2sZQ9fn2p3OmYbYtyvhM5GOhxXCdn0Q69j1ex/HX6oxnA8GPaqEm1zrkYjo6WJo3GOWPsA8LF5i5AzXwonRPFYRL7zmatamGiqVja2tyra2VVUqrwxeAJfCRI9TVUF4LU1Qj5J1HUIZT2sqbSbcYAItXsArvCntQUzesmDf6/izrhEqdV3uJtxgijF4+Rsion31ycnJyffijXQoTLjBBXC5fmXE8SKcL+326t5WpMGgtQ85xHzjsXcOvOgM1xs/T4HpIpiquFr3OR0PSe/xLpcvXLRdEM6rXeCbWe/4czz5MITY3/Q4TLYdTdtpugjEar3E5utCRPT4MDQeNAdecAx3g4re/YbGe2S6CIxbjGrTwxoOIjTep82Pv+3qEBqJiGhtDI1ERERE1IpjGomIiIioFUMjEREREbViaCQiIiKiVgyNRERERNSKoZGIiIiIWjE0EhEREVErhkYiIiIiasXQSEREREStGBqJiIiIqBVDIxERERG1YmgkIiIiolYMjeswXQRRhMhzxHuIiIiIHiWGxjqOh2hXwXAnz+3AiyJEkYf1nnXT5R9Cts4BXFO8bw3Z+xK42MbTkciEG0SIoghbPfSJiOheHF5otN/i48ePhfYWtviYB5OFGFnbTrBxvP4nXdMNJOuTth4BKXuewDVXAavSDil07rfq+/a49m12LAfb+GAQEdHOHVRofPXVB3x8eSLevEcs6IMBBqVmw4/Fxz2M2LeFdRtgMDIwEx8oY7q4GCtAOMfIaFpCw2RLAfnpSn58TMeKcLuGSY+Qv+8sfYB5CCjjCx4vREQH4HBC46uv8FefJSfRb98+w7NnWXuJqfjYLTCP1eQf2tmjqu6sx4R7MYaCGL5rle+KfdhZALV9JPlYwdjgXluPAy+aQAMAxPDtYsifIxQffuAs10fM44WI6CAcTGi0f/IZFADxN1/i5S5SYokJfagg9n2E0DDp0xe8Uw7OkjQB7axunTRM0u7M9VZbsrypY6gACK/QWGScGbjKUo16/GgqYvfJdM/TwBhiPhgJ+9uC3rUyfCiyY0Y7Z7WRiGjPHUhotPHsBAC+xft//jN8KIxpfLuLAY2OgbES4sowoNs+Ym3Sa+zfrjjeBBpCzOchoE1qQmGIeVqZ0oWiYDfV5U19CAVAeN3jCZe3ebipjM0LXPy/6Xi26n6VTG4Rxk/Kx8CtJlnIH1O+X/7acpX1l3a/C8/vOavlPKewDdVlV2P7/hb6MKmmx76L9r3dvk2ldchV97F8XSPJOMrqa5b3dXVcr/w4XbGuQwAKhnplpxIR0R45jND46o9wBAA4wcufJxXHzMnLD/jqVeGGjTnwJtrqpD0zMBrY8DHGVHLCL8kuxVNqU1SGpq3B8SJMtBDzgQ7L0jGYh9Am4gm7mTKeCusmO+lXnaoKgBjLG/EegeniPK2ExumDHU82Ng/4/+lpV6syRrFnMq+0pVVN0w0QTdInTcnGwA0vyvtZGU8LYcWBJ3sflDGmlVBUJl9/BeNpMQyZcAPh+bVJeTlLxzzZ4HJXbL7PQlwZ/wU1XWR521ZPXH+bGqnnCEr7uziOsuY1M6aLIO9aX9EmLcHxZokYgDLUO4V4IiJ6GIcRGgvib75MxzJ+iW9iAFDw2U+2VW5Mx5NVJnvMYIwGGFS6C2sUx/nlreOyojSITlQf9kBfVZ8sHYPBHMvxtFJdEs2MUXUCTKE1T2wxkQzvXEKaY5QxplkAnY6TQB/7uDRmhWWBcF54zZGBGSxcp13Zq672ZFgAsqpmNvlGmMRj+8v08RkFynKe3r8a96cep1HHy4LMqoq6epyGczGBZhwPWX4qrn8S/gDtPN3vjpEGqeIYxOr4w6SiVh4nm1VxEV53qCyurL1NbRRgkW6Dnc3gUlScAoB5jOTtLL5mdvxk417L+yp7jvrhFABmtxDfUSIi2j8HFhq/xfsvvk7//TX++d+3OS3ZhBtMoMU+7LZ+3ZmB0WCAQdvjtsLDZR60ROlsbel9fWUzvwvBdB3hvLA+M3iLNDRMqlXNZBJEIURlYydjH64F4FQVQmhiZuhCAC9O0FmFUUU9FYJrcdssuGmgSR5XlU+GCuelrv58vdMwtXpccczn6vlzlpvOpNeQZKgsJFcnGGWBV279bWpV2IaZt0gnNqk4NgHMPCRvZzbutVh5P82rpNl7HRVngHcZ45qFUyIi2kuHERq//g/cibdtXVpNHBmYScZlSVtjn9uWzGblQCjtAo8QRROovt0Y+qpj82StZ9emWFUVgvTMGBVmVWdd5Olr5BNnkhCVVd3ihbeFELyPZjDSmUJassFpSF7Am6EceMdGv/fhXiSfkbwCmXbTlz8H4ozvtHX5YRMv0TYCgoiIHs5hhEZM8fFbJGMa85kvNn6SXoIn/s9/Kz54e8RAlLVCCLpPphskXcBh1hVbaPOwHMgaSK/XKOlOLUurTevIKrP5NSuzStuqy1Y7D9Ku6BBXWakrHesGZYyLQoXSdL3KmMZ6M9ymfZ95dzIAwIGRdX3XDNacrRYsvZ5jZN3wSciRP271/CXWdbKftXMEWXfu1SpQ5VVMaJiI76XpIghcmOtsU7FLPJ+hvZ58uEP2OdDO4OAGy+TNwviiuE4m3KBtLHDW7U1ERPvsQEIjMP2Hb5IT1MnLdOb0S5wAQPwN/vaLrwG8wlcfkhnVH7Y7M6a/4jg/oa1fnKzvygSKXZ8bhDuprIt5ndmt4kzbbBJFYVJNtt6KklQZi7OGC5fwKU7imY77RYxVd3LxfVmNCcxDqijfp2lFLV02H+eYhb0sCJYeN4Eay35aZF3ICpRkg5Ou+MzMwGVeyVtd/iiKCmNGe2zTqot59VzTIdb70SNWufMxrEvcFKqo5XVqmDiTyYYhFGbcExHR/jmY0Iivv8DnX6bBMRN/gy8//wLZKMcHl1fU6tv6wyBX4a1cyUllkzHyrs7tyYLHdma3itcfLIQNxFgIK2/pxe7QROxf9ptUlM2AF5NSOG/szq92x2aSiSCr99KCLlRqY9/G5aJwQ8HMuMofK+uKTyp5kspv7MPOunm7blMphGbPcbW9iSfFMayWLqnCx/Dt5klgTnrx0V6XdCIionv3ycnJyffijVT8qxwNwnllDF8njpdcRmad5U0XQaHiVBT7duNMaNMNJJePEaWX9RFuTS750x4A1pGv1zr7Y48l+0xynOTvoXxfPy3pZ60YiImIaC8xND6ETULjQ8mCzrZP7oUQHM43qcQ+JBNucAFcrgJ1MaCXt6twTcdDev93JNtPh/veExE9HQyN1F0WdrcRHLPnyhx0gJJc3DuTb5dYvWaV8SB/PBERPWEMjfQwiqHxUYQGMRSKFcbi/QyMRER0eBgaiYiIiKjV4cyeJiIiIqIHw9BIRERERK0YGomIiIioFUMjEREREbViaCQiIiKiVgyNRERERNSKoZGIiIiIWjE0EhEREVErhkYiIiIiasXQSEREREStGBoPjgMviuA54u39mG6AqOZJHC9C4Jrizank9aNiC1wUH928fAPTRRAFWGfRdibcYJP99rDLO15U+35148Cr3bdd1q3pMcl99e+5eMxU12Pz7WvTtP1dtC/veOXPRWV/OB6iyMPutrJ9HeWKy23n+6X6nOusV8J0g8p3zFaYLoLG90O23sVjvekz0cDxyt+f4mu0rtc9MV0E4nd9pYn7hx47hsY9svsT56YceNEEqm9jMBjkbb4cY9r4pd4WKrbHdIPer2O6geTLMG2N21XVFMaldhqU94DpIogmwHx1vAzsBYbTNU62HThe/+cVw16pdXqy5PieYF74XNhYDKcdl+9nm9vY63kcrxQS5M/Z/Vhu+tyt9RlON6bpedd57o04Xuk7xHQDJB+HdT8PybEmblOlSX7Ir3cshuV1rbQRjJm4DD1mDI1PhPhFOh0rgDbp92XqnEGLfVwK3xKWPkeoDKG3LL7XYh925QtxgMHIwJP9TixVRKZIDpn6E5OMY4yhhHPoVuHGmYFLP4Z23r78vQmLga/QSitewzEwVkLMyxsJ49JHrJ13DlE7J9nGLpuXcOBNVPi2EBIqz9k9RMyMUWV9BgMbfgwsbzs+CQDAgTEGfDfZmPLzzhEihm+vXmPUtIKlY34CDQrG0+J35Km4RAMT7rmG8Cr7DjGhDxWEcx2l3Z59Hs66hLoZjJG4z4Q2D8WFYOk2fHXSMZgS1WNo3COW3vEktQb5F3S5NX6ZAoB1jVAZ40I4CzreBFq8gFe7ePJF1/r8W3CqKlDUPl/sD2xmYNTjRLs28xgqFAz7JHtLLxwfyck8LFYMOwbqeHkj3oTZ7RJQVGz3nTJxrALqcY9t3JZ4icpWzm6xhILtHo4Ps42mew4tvNr9cYpTqEoMySFTzzmr//5Jj/vO70HpmK+2kdFjxUwdQyXE9W6+0ntKfsSo+/RDjQ4SQ+NTUxlP06HCmLOgD+ZYjqel5SeYdw4Qu+XgTAOgndWOB8orZWv+5O60vHq8d1/MjjEG4hjK2KjdN41MHUMFhWpIsZssqULWkYV481iVB61NpOuoDPWa/b+qGnU/5osalpcFYPMYKnoGoDY730aZciVvp5oCYA3nTEO88KTfP9lx37eqXel6F6rqynjaetyb+hBKeF2oKs7gLWJoE2G8ouniYqwg7JQuxfHBkjbRxIUSMw8LjGH0+gLQMBGfX2hNX4X0+DA0dnR0dIQ3b97g/fv3eP/+Pd68eYOjoyPxYRuRjjsRQp54dx/S8TRZCOz8xBZ08Rd4a3VUPqax3GUeoFfPT4UJN0jGW9q+iklN12leKWtdZ7nm5ZPuJ2mAqCMd0yicGDq/N3KmG2Ci+rgcjTAPNUx6P58DbzqGAgDaJH0fi91kSRVSxnJ9xJrQLZadJPNuu21I1nE5T8fYSrdx1U25XtW7ZnnLhR+L+9WEezGGstXq3IbbKAxHEYNQrTWC3HrE7twOTBfnWogrcVvT79P8uK/dX1WOJ45PHcBeDEvjtmPfbjzu64L2zBhhMEc5iE2HWNjiUIFVWJOtdqniL2vSH/Ez3C57VKlnBkbi80qa9KuQHi2Gxo4sy8KLFy9wdHSEo6MjvHjxApa1209LEvLUwngcG8vzCWp+R7Y6VRXEvlseTwML+jxsrY5VfnlLmxh+6jlehOl4WQiwV1AnaTDpy3QRRFMMFzZGxgwzY5R8yfeZgaiMMa1sT/2XtpSpYwgffqihbnhSXqmsO2GnE0eKk43s5TnqigdtTDdI9nN6ErH0AeaY1L++IAn2E2jZmM95mFRZOi6fnHjmQHEspPQkuQHHQ5ROttGt/tsISAJVr2M6CdBzFJ8jOR7lPy7WsI1tFMcfloJFVqGsfr+YxyqwvJWEkDb1zyljuhcYw0efgma1mof8R9dE9WGLx32f74RNNAXttAt8HmbhUzY8ZTUBZVuHEABY16G08l8kjn/v2sSiAD1ODI0dff755+JN0tu2x4ExVhDOi18oMxijOarDnLu5Wcq6J5Nf93XdOxlLF35h2j5iYYC5/MtPwnRxrsXw7eKAcAu67aP2h3sdx0OUVl+KlZXVL/r2k37beM9uX9pJZWl5ZcBwfahiF1QqrxBIKwGriSPitkjGtrdyvAjT4QL2oDzw3tKrlROZJNgryTpn65ud8JZjTDvs24RYna4eJ+uO5y3+sCounm9jh5BQObZb1rWO+DyVSp+lYyC8F11sYxvbZZ/l9b9fqno8p+OVftx0k04sKXXrJj0OWlgdMmPpg8ZeiMwqYK4C0XS4yANoF01d5ttQmpBW02p/7LYUCNq+D+ta5XinR4mhcV/tYDzUzBglX5qlL5dVhW595e7U1qrYqQoFS/SaIFknDTHSvGHpvU76zZJqkvR1sirJMp0lPDNw2eHkVJVMcpBNHFmHpdeH05kxqr0vk4Ug2TYn92X7tn2iU6dKde1Zrl5ygpO/x8l9/UOanAW95nVykvHC1dY/4N3fNj4Qx0tDcc/tcAxJZTIdNiE7aDse95D8AFgt036sy7vMq5fKmWjZ2MjC7a3fGdkPsCSIl7qpbR/xDiqUdZ9dVhafJobGjj58+CDeJL1tu7YUrAqyX5F2MhW29y9EU3qh3XIlqVNVbNuTIFK1XSuBDq8h9Mm+1GVNlmvyrvbCk8+MdBxVZV+163e5kS62c8Hm2n3bIQhVTsJCs+sHh/VSd4KLPLSEvg4TDNoqqy0zb5OT+ubW38Z9k37mJsB8jfVureYJ10hcT8Nx4Z1Kf0jKu8w7XCpnUP8jb6s6DzVIu/mF8Z1JS69DuvH+pUPD0NiR4zh49+4d7u7ucHd3h3fv3sFx2k6VG5jdYgnJ2DjzGKpw04PY5FIxN0vEsus6nqrrjWkE8hNQ0h0rfsENMLhSO3Wn1g8wrxn07niYaCHmkmqPpSfduOIliuolA9Wr12tLKpC701xFbd236cD+plBaG3TSNm2ahtpJ0wkuGRfaHm7F4RbF1q2LVdyuUssmE61tw22UjdvscNKfJbMn5I9b8zmTbUnHfUo+O63SIS4L6aDBjmYGRk2v7XiIonMsa46JZH+L3ynpsKKmmdBbCbPrMY/V7j0Z6XV5bekXwwzGyIbfezY2HTqGxo7u7u7w+vVrPH/+HM+fP8fr169xd3cnPmyLLFyHEC7PUJjFmt/U5Quo+mtZdnHv6hfgeiy9pXo587CIFYwvCuttugiEfu3iX3lolV4TrXZMlKVjHva8TmEXLePUWveFwEre9FIAczzx0h5r/vmydXXYt3aHixMng/6rJ9+8lU5OPbex8QQHzIxL+LHkR9i21V0kPm/lY6XXMb7BNtZWeuve0yLrWnrx/o2eM+2d6PPZKEqqeducmV7lnGmI/cva10j2t3ANyPQ96jOZp0IaZsXv8GRyUWls43QMpXKJnOL5IxkDuv2eDHpKGBr3mKUPkkuk5F8AZ7gWKh7msdrcRQNUuo/r25qVw95Wv1LzGcsXwKXQfXeqtvxiL5p5WMRa/ThCx8Nk08rEfbB0DOZh6WRwdi12+Z9Cvc+LBnfYt9O26kpvPbcxvfB83WVVTPcC4z7Pd096HeMPto0Wrnfxg2ttsgkw22ddh1DGF7U/pGX7u7XLfG1dv8PFVgiffS82nh1v0s+9CTeYSsaU0mP3ycnJyffijXQoTLjBBXC53bDneBHOl/LJMcklXDp0ssWry12sx4EXneG68ou7We36ta5P+iUoWbQoTC950l/y/OrVussXOB6is+vawf5Vyd8Mb5uf1LaP1t+3yTHVOkEKhW7+3tuYqH2dcN7yXF32UVz9M3pFjld/YeWC1TG03jG+/jbWceBF51jaIxizZD9kl/bJmS6CqYqrzusqPmf2b/Fx7Uw3KM9edrx0HGTLunR8P2Jf/l2XaDguxP1tugimQyzatnMr69Wf4yU/QPseInXH27bXjw4DQ+NBc+AFx3BbTth9NYXGe2O6CIxbjPp+w+2t7YVG0w1g3I42fp599hS2cX+OcTHgSUKjLLw1Ep9ze6FxL76fJEw3wFS9WjO475bjpWNh93Dd6LAwNBIRERFRK45pJCIiIqJWDI1ERERE1IqhkYiIiIhaMTQSERERUSuGRiIiIiJqxdBIRERERK0YGomIiIioFUMjEREREbViaCQiIiKiVgyNRERERNSKoZGIiIiIWjE0EhEREVErhsbeTLhBhCgK4JrifV089PKPjOMhiiJEgQvuDiIiot05jNBov8XHjx/r21tbXGJjphsgiiIEfZJZFmCkzYMjPr5J+ly9Xj+TrYcnvqIDT1ivtZ7/sTJdBOu8V0RERE/AYYTGFvF//pt408MK5xgMBkLTYYmP2wkH3kQDYh+2vnrFJARPoJUeCyjjKSrZ8qmaGRjZPmJomHCnEBERlRxGaJy+xLNnz4T2Ft8CAL7F+y++Fpd4shwvCYbhlYFZepvpBpiOleQ/QqC1/bi4OM0MXIUAtHN2/xMRERUcRmiUePXVc5wAiL/5B0zFOzdmQh8mIUsZ6jVj5RSMp5t08TYvbx6r4k0dODjTAMQ+3LzI6MBIA2Ps2xgUqo8AMDNGEG568izXRwwFY4PVRiIiosyBhkYbP/lM2VmV0XQvMFZi+HMfsTLGhSTUATF8O6nWjYysptdHt+UV9VS8qZ5zBg1AvPDyKmN2GxDiquF1cpJxmaWe2ppxf44nBODiBJV8mUg6gScbP5o3YVJL2/1SbduRj+8M4JrZv9NtmnlYxAC0M45tJCIiSh1kaMyqjPj249arjElXLuDbIxhWMsYN46lkUkkDbVIJLFEkm5hSZ1XprA8u1UplVp1c3q7CYV6xjJe4yW+VM90A0UQc9QhoE3k1tJshLqZjpFuTrvcqcDpetOo6l5Der4wxbQiOfbdjeCGO9ZzhdgkAGs7kO5+IiOjJOcDQ+Ap/9scKgBjf/MM2I2NSbZqOl5gPRsiLcjMDo4ENX51UqmsVli6ZAFNoXfuBHQNjBQj9ZFLGuSToyCqVp2qyX5Zt6VDGdHFR7MYWxjwqY6N52+soCpbzdPvnYXqjimMTAExkmTbMHjMYYDBKx2M6HiZpd7ud78c5QgBQhtBlu6X3dihQltk4z9VkpZslx3oSEREVHV5otH+CzxQA8b/jn7fZM23ewBWCw8oMxqjuvr6y5yoE05J09nM4h24YuPRjKOOLSpdub4qKxo7uUzWpBsY+LgsrNjOukpCWB72eiuMrrev0uRQkve4zeIsknGmTctUUxSqpMsY0r9hmVcHsOQS9tyOGvxoAWqGutdFERESPz8GFRvvZCQAg/vd/xjYzI2az1ThAoDDmTWxTjJfzhtAnH09XbdWxfcmFuyfQCpfLmRkjzEMF46ns8e1m3gJpLKupWD6smTHCwPbTdUwuAVSp6EovYTS4lwk8xa5+IiKip+zAQuMr/NERAMT4962WGQWOl1S0St2iabN9xNqkJvQJpGHHhvQqN6aLIAukWfdsytIHPYKjUIHLLiGTBjJxTJ/jpRNEbpZJcFPGKE4aNt3ztLK3RDk/Fcb7mS7Oq0MIu5sZGJX2TfLcs2RgIaBNypNYHK9+fGjv7ZBLuvqJiIgoc1ih8dWf4Y8VALjDf1Qy4yt89SH5CzEfvnol3tmLc5bONy5c6zCXh7Ca7tG1ebgc1I97tPSmLu2EdZ2kQ02YvWHp6TjAvJK3qnjm80UK4TLrKo6i1SSU2HeTrvlsZnHxcdMh8lJhL9mfRCxUcZO+5WRcpuXmAbu4TrJJLrmu29EoG2u55vhQIiKiR+iwQuOf/GE6Xu0/scu/AZOHr4lk4kteVQtx3Z4+uqt0j68hGzNYmXFtQa+5kHc4X3XzWnpxskommXCzuizQDMblqjs5uX+Eq7QouLmwMBEpGf9ZWaVwXhuu0Xk7Gpg6hgqAeAGvw8OJiIiegk9OTk6+F28kpGMaxUuxpFpCCxyvuRoG5GGrS4YpM+EG0+Q6kpLls7/+UgyD1A/3IRERURVD48FpDo2rsBtivpXZ3k9Nuv9iH7YwtpSIiOgpY2h8jEwXwXQMhcGxp7ZATkRE9HQxNBIRERFRq8OaCENERERED4KhkYiIiIhaMTQSERERUSuGRiIiIiJqxdBIRERERK0YGomIiIioFUMjEREREbViaCQiIiKiVgyNRERERNSKoZGIiIiIWjE0EhEREVErhsaD48CLIniOePu2mHCDuudP7oui5ha4prhgP6aLoPicgQvxGR1v/dcx3QCRfAMLHHhRAPlLNO2jh9Ftm1qI+13a6vYJERE9dgyNe8Txos1P/G0cb4OAN4MxGmAwqG/zUFymJ8dDNB1iYa+e014MMZUEx4qm0LPr/bqhzUKfCX2oANoZ1n2GlRBzyfu6aiMYM3EZIiJ6ChganxLHQzRR4eeBbI7leNojOLZXGieauEwfJtxzDeG8HExmxgjz5RjTtteZGRhVQs4Ath+Lj5RyvOK2TKBBwXhauK1LcF3TqaqIN3XkwIumGC/nsH0Vk8jbQnAkIiKqYmjcI5Y+wEC3xJu3RBbILOi2D4yNXkEjnFeDWbGN1i5FnUJVYixvxNsB6zoEwnn+GhtXNCUsvbgdc4SICwF7gMHIwLpb1szBmQZAO+/R9ZsF+AkwT46bmTHCYA5MdhxwiYjoaWJofCpMHUMlxLWYSWceFrGGsz6p8aGox81BqKZ7ejqWVPG0SXr/w1fmHC8NfvMlxhctYS/fxinUqyTMln5nWHoScK/UtDLbdwyiloTOhrZ2LzoRER00hsaOjo6O8ObNG7x//x7v37/HmzdvcHR0JD5sI9IxjcIYRPHuzk5VKPES1SLeDLdLQD3uniy0STVIlNraVa4bLGMF6ql4O+CcacDytkOlT6gOZk2s4OZVSx1ijl4prksyASnZxilkOXQdjhfhfGknwc/Sk7DXtP8KXfDFTaqMiczCY58xiDXd+2ITdyURET0NDI0dWZaFFy9e4OjoCEdHR3jx4gUsa7dnT9MNhDGINpbnE8iG892P9okwg8Em3bgzGFchtEm5Oma6QTKGMa8O1oxp3CLTPYcGQMtLsBb0fBttdBwmWS/9MXB2LXTnWzoGl8DFJj8QejLdoBr8O7TuY2GJiOgx+OTk5OR78Uaq+td//Vf8wR/8Qem2//qv/8Kf/umflm7bhONFmGCeVsUceOl4tXJlp+72FqaLYKriqlJZM+EGSVdn8nzi/7Nlx+hdXIt92OsEyMrrxfDtcsUsq9CVAldlOVGI+UDHjRtgql5Vq4+5bB/PgYlsX0v2UVfZOobZ+5zdXF0nx0vCcZi/frJe/fNyst19V5WIiKiIobGjew+NpotgOsRCCEtrh8a6oON4SJ4uCxU1j9sz0tDYkSygFe6FGySzkQe6VZhxXnwftr+PmtfpfmVhVRT76+1vIiJ6HNg93dGHDx/Em6S3bdcSt1s7R8u6fh14Ew2x73asQrVfcmc73Za7vYD5zBjVhLP08jXwYWf3WzpsHxhPd7c++yPZ7xOsZqmvmo3FcLrBeFUiIjp0DI0dOY6Dd+/e4e7uDnd3d3j37h0cZ4cpYnaLJSSzms1jqMJNnVl6MkM3v/bgBOoa1aOmS+7s4lI4/RQnrDS0SgI04QYTaOG8MiYzuZSNGLgfUsdt7BvwnDNocSEwl8xgjGz4GMMQdx0RET0JDI0d3d3d4fXr13j+/DmeP3+O169f4+7uTnzYFlm4DgFtUrwkjANPHLPneP3CQT6rNml9A+N6mv4k33osvW7dixNW5E1+se90ko80MGX7TRwqUNRlG+vD3nSslCb6lJt4WaB1t5GIiGh9DI17zNIHmIfF6+ad4XowR7GYZx6riBde/8km98k8hhov4O31Sm6o0za2hz15u6dJLNY1QmVcc8mfdKwnfLj3sjJERLRvGBr3iOwvwpT/SokOKw0eycNM6ENg0ZxUtq7pOo2yCRRmspK9g23T60TRGt2vO7TuNu6X5NgS/2Rj0qYYLuxK1z0RET0dDI0H7RQq2qpb29TtOo1it/Gp2jfYdqzI7VGA6b+N+6v8Q6X+fSUioqeFl9whIiIiolasNBIRERFRK4ZGIiIiImrF0EhERERErRgaiYiIiKgVQyMRERERtWJoJCIiIqJWDI1ERERE1IqhkYiIiIhaMTQSERERUSuGRiIiIiJqxdBIRERERK0YGomIiIio1ScnJyffizfSLjjwogk0hJgPXBwHU4yVEPOBDkt8qFS2fItwjoHe7RkrTBfBdAwl9mGPDMzE+4mIiOjJOqxK46uv8OHjR3zM2oev8Ep8zKZMF0EUIWptHpzKooHkcRGiwIUpPHZtsQ97MMBAbLaPWHysoLp+1W1oki0fuOWt2fR5H638WHro/WHCDZL3xtt0RfZmm4iI6L4dTmi03+Ljzz+DUrxN+Qw///gWdvG2Tc0MjMRAVmpzhOIyqZkxKj92nj5yefvAVbskNEzHCsJ5cTs0TKIAQgaUM11cjBUgnGNkZFvjwIuS5y3TMNlmUKb9MTMwsn3E0DDZOIESEdEhOZjQaD87Sf7x7Vs8e/YMz569xbcAgBM8/2rr9cYtMOGeJ53J8fJGvPN+OQbGStJ1veq5tqDPQwAKxkbbyd+EezGGghi+mz1Bsbs8hm93C9Zrc7ykismgsoYZjFHy3qw7cqFkZuAqBKCdd/vBQUREj8KBhMZX+KOj5F/ffpymt03xMUmN+ykLaghxlVfmkFThoml63xqUMaZi93cUIZqOy1XYAvNYBWTh9WaZdGmrx81VQVPHUAEQXiHbFNM9TwNjiPlglN+esKBveUxktg20HyzXR9zpBwcRET0WBxIav8Y//3syYu/keTaO0UZSfIzx7//8dfnhD86BN0kj1Vyc6BJiPrDhtw1ArLCgV7rKJU1SSprdLgEAinpavuNUTYJmS/e5qQ+hAAivs+c2oQ+TiBr7buNEnny8Y6lCmHRrR0LXeGVsZODCLHStAwC0SeX5KstVutyLr7ca31cc4+d4heUr1czyMpEwrrO4jXXjPnNZxTRwYZbGz4rrXBw/mN1f3W/ZepderzLuUDKmsbgehSpuvh8qwwuE1555WMQAtDOObSQieiIOJDQCX3/xOd5+m41j/IiPH1/iBDG++fJzfLGzzJidKPsM+jfhBmm3bak7+AFZbhJStUlhIkQWbItdznKnqgIgxqpQeQo1zXDL26a42Z3jycZGtpMvp2A8lU/6GF6Uq7zaxIPnRUgzfnZjeT9JKsPKeFoNhup5Mu6zkyEuStVhBeNp4ThzPKF6rGA87TB7vrchLgobb+np0AJljGIRMa8s59XmGZLfIhrOJPuZiIgen4MJjavKYpGCz36y1Wkw7cxjqAAQL1EdqbgKGLFvS6t+vXWezS20UqUoGdM2DwFtkj1mAi32YVe6lkUmkp7hJbaUDyWy10Bhos4Ag5GBWbrudlaaDeeriqrj5WGvuFw2/0g7F6tlCpRlunw+21yDpmYz0lcVYC1NQo6XBLXYt1frlb6AMtTLz68Ai3Rs52qyUA1FwTJb52yFoeLYRPLDIx0PW5otnz9ui4rroVsALFxn+y9Pg6vK8qraDNwse5fLiYjogB1IaHyFrz68xAmA+Jsv04kwX+KbGMDJS3zYh4kwposgvw6jLDRk3cs6rHxigth1LVE7mzubbJK8XuV+yZhCS29/TF9qknI2NIO3SCNcGmorVTyJfJyjUNFNxtsBUFSUO+QLVdWsexVAvPDS/bBaj8QqzCrj6SqQZ0lVfP7CmM9WsY+8wGtdp++lgmQEQVbJjeFfFt6j/HFbVFyPVL7/sq7nbEyr5LHY2jFARET77jBC46s/wx8rAPAt3ud90V/ji/fJTBjlj/9s+9drrJOFODFw5eFOh5V3a7e1Ht3eWcWxMtbsIayqUcrY6L4NDWbGqHStySSk9dg/G+jSxV6qgOatQ+g/RNns6LTrORvTugrXZV32HxERHb7DCI25Ezwr9Ebnl+G5+w/sbFjjWtomrawzEeahZV2nibwaBQ0TMdyZLgIx3BYmTKxmXgvy4J3tH8l4ucJM72yCj3jpF8dIxwJKhxD0kY3bS8Y+FlfF8eRjJrfjBknPb3l2cu1+E7rK8+3fgJX+KtDOg3ScpngVgGysKxERPRWHERq//gJpUREnL1d/EeZldunGj9O0Czu5fb3uall1MJt4oGFSuW+NauEDqM4srmsBXGFydSLrslUw1AvJbGbgMk++wv4pTOCYeYtCuEzunw4h/PUacXZyNvFkNfkmD4jZJYc8ZzXBJ534ki2fj3O82rz7vRyOq6+xG4Vu8my2uHS/rcJd8VJMEzWuPK63bN8qSlJlrMySz7ruixOkiIjoMTuM0Ahg+vIZvvxGPBXG+ObLZ3iZXbpxI23Vwbr2UF2UxTGS9Sp/paa2jWDUnPyz4CdO/EieW3Ih7+Lfri6Fy+y+K6QRsIFw/UdLzye4rAiTZHLJOM9tzENKqp/VbQznW3r+GjNjJGxXiLlsv4n7JZxjcLko3LCuGYykjxpAjIUnxO98nOMC4l1ERPQ4fXJycvK9eCPtmgk3mGKshJi3hL6c6SJouID3So/nFGWvUQx9KceLMNFi+HbbbGvaneyv8NzP+2C6QXI5o3BeuRJAdt+uwzMREe2Pg6k0Pnm1s6jFtmZgbJH/BZCLfZiIQzuX/a1x4TI7CQdGcl0p6WxqIiJ6nFhppO4cL7ncjKQSSffhHiqN2XucqVQZsyr5DteBiIj2EiuN1J2lJ9VMBsanoRIYkY8jHbReFJ6IiB4bVhqJiIiIqBUrjURERETUiqGRiIiIiFoxNBIRERFRK4ZGIiIiImrF0EhERERErRgaiYiIiKgVQyMRERERtWJoJCIiIqJWDI1ERERE1IqhkYiIiIhaMTQeHAdeFMFzxNv7Md0AUc2TOF6EwDXFm1PJ60fFFrgoPrp5+QamiyAKsM6iTVbrY8INavad6SIQt6vStr9uCQde/twN65gy3UCybmvu84rk9cXnFlv9a226vOy98FDeHclrND7Hhpo+H920v48bc7zKZ6+v5s+q+FmvHv+OF/XbT5X3Vtaqr0NE+4GhcY/0/gK+dw68aALVtzEYDPI2X44xbTx57fIk3xRSxLDRJsS8sF3lNkcoPryPLZzgs22dDhewK+tnYzGcbuE1EuFcfP5yGxkzcZHUDMao+vhimzftSMdDNB1iYReWmQOTbQWJxtDS7XipC5TNAawPMawVW8f9UHO81a17hekiiCZA8TiwFxhOtxGEmz5nAwwGI9QeXkT0oBganwixOjUdK4A2Kd3WesJzzqDFPi6Fb3RLnyNUhtBbFt+NYkiZI0QMPw8cOizx4YfM1DFUQsxHBqrn1BmM0UO+D5mmEJ+0iSYukzHhnmuI/ctyaLB0zEMFY2PjtJIqHiPFtl/Hizy430+gcowxlHAOvbhDZgYu/RjaeTWMEtHTwNC4Ryx9gEHpW3p7ZsZIcgIqt/rqUcq6RqiMcSGES8ebQIsX8GoXT4Jd6/PToyEPPN2OteVt9b6bZQyox3sfVpTxNA3HU4wV8d49UfixWB/ggXh5I96E2e0SUFScincQ0ZPA0PjUOF6l8tNaYcxZ0AdzLPMTY3riwRwDafXrnpnHUMXbetEwkVTGkjZBw/n1fsw8LGINE0m3Y1Lhawvv3WkTcfuFtnkfZS31uLp1p6oCLG/v9xjLwpVsfwtV+igNYHE+dMOGH4sL7YAyxjSK5F3r+X2rNh0rQDjPw3vTUAFFrUZD81gF4iWqcbKPps9Z0nZ4eBHRBhgaOzo6OsKbN2/w/v17vH//Hm/evMHR0ZH4sI1IxzQKIU+8uw/TDZAMUypWfdIQ2PmJLehi5ai1Oiof01juMg/gVs9R/ZyqUKBAPS3vt6ZqSm5mYCTsl3JX9+DeugbrzWCMbPiohoEommIMH/bG4b19TGKX97w1dMqCGGYwrkIo44vyuD3Hw0SL4bvNr7l1WbiS7dNC8MpaUwDbmdhPx7dKutbz+1bN7phkLddHrE3K3zemi4uxgvBKsj+6qnzO5K3l8CKiB8LQ2JFlWXjx4gWOjo5wdHSEFy9ewLJ2+82WhDy1EFxsLM/Xr3idqgpi3xVOLhb0edja9ed4khN/pXUcpJ8+33S8LATYK6iTMTbp0XPOkj2jnTmApT/syXzHVhWtfmGgVuMEkYZWCX/V0DkPq+srDWJIxi9mEy7y15gA860GdgXj4vMXmvjDpq9tdk/XBu/OP/BqdOmenhkYJTOQVq+bTlBaJ9CJY6q7tk3fDyLark9OTk6+F2+kqn/913/FH/zBH5Ru+6//+i/86Z/+aem2TThe2tWrW+kMymT2YvlLuu72dqYbpEGtWJUw4QZTDBd2Ps7M8SKcL1f/lzJdBNMhFnb1ZF5dXniNumXrbu8iW3a+wHBSfo7V+gBuMIV6tdp3yT7pf3aP/Zb9I3I8ROfLmkpg8p4Wz99h4f29t3XckerxcNia3o/VPk+O+eKxdq8cD1FdIgyz75jH994Q0W6x0rivzGOoiCEZi762mTGC7avCeKJyYFxP+RIhdeeq3KkKBUtI5jusLZnteQXDMnDVY6ZtlwlCsrbZ/pLJusKrY+EeZB0lY1+jSFZZTDVUKidasQLX5fnaZ2BHG1ah2i4903R/0/ux0T4X1Vw2J9d0f6HSXmk9UmynHoaa/dSk7nk3eU+JaPcYGjv68OGDeJP0tu3abrBC4YRn+3E+LqvPic50A8mJqjzOsVN38MaD6VdMN8BE9WGnJ0NLnyPUJo/2BFR3wl3n5C3jeFmXcDVw2IshprJhCB3HqlWatPJa7eIWW6djbKfu4eLdW7DptSMtvbrvi63/sIjkB+YE1TGh277WKBFtH0NjR47j4N27d7i7u8Pd3R3evXsHx9nhGWN2iyU0nIkvsfEM4S2ZGRitO87sZolYdj3BU7X/mEbHS7rcS+HDgm77wNioziit0XXM1UYhQTKbVTrrtVbTCXcAe3ne8/lkHJxpMXxbMrEir1ajvpLbUHEstcYd2V5pbK1mdyGZAZ21uu7neyc9ZtK2lZ3QrPYHyrr7Kb3Wa/YDr2w10avu8CKih8XQ2NHd3R1ev36N58+f4/nz53j9+jXu7u7Eh22RhesQ0CbFEODAmwqTRZq6qHLVvzAhu7h3n4ksTSy9pXo587CIFYwvCuttugiEk2BTF2HO0uUzR2cGRrLbazR1OSat5i/CdNr/Td2F3dex+YQLzIxL+LHkh0bXddyGDhXHrlXCftd6LP4pxo4kM6Cz1r+CJkqqpdXxyD3XUTIDOm9dd2SD1s+qZNJVpdUcj0T0+DA07jFLH2AeFq9pdoZrIbyYxyrihSfp4iuSXCZH2tasHPYmuXTMBXBp+yieqk9VBeH1fp+Quu3/Lam5uHrGdC8wVkKIu6zfOlq4DhWMp/Jwk0wCwf1f/qaNeQx1S9eo3JlDWMddS49h+Z8dTSYPjeFj3w4vIkpw9vRBM+EGF8DldsNe04zKppmjJfGm1wx04EVnuO5TiavRNHu6O9ms9W3tfwdedI6lPYIxa59163g13bOFWbEra65j3ezbjd/XdP3zqwTIpOGh7TArrIvpBrjApfSYlel0HEv3Z2b361j7HhS1vB+1x0pJKFxRYWXT5evUPe++zPgnIjmGxoPmwAuO4TacNNbRFBrvjekiMG4xqj1pd7e70Lit/d8vNPazrXXcnvbQ2J/jBTh2ewbje3YI60hE1IShkYiIiIhacUwjEREREbViaCQiIiKiVgyNRERERNSKoZGIiIiIWjE0EhEREVErhkYiIiIiasXQSEREREStGBqJiIiIqBVDIxERERG1YmgkIiIiolYMjURERETUiqGRiIiIiFoxNBIRERFRq09OTk6+F2/cW/ZbfHx5kv83/uZLfP7F16WHbMLxIkw08VYAsQ97ZGCW/d/xEGUPDOcY6FbhwYLiYzNtyxARERHtmYOpNL766kMpMAKA8tnP8eGrV6Xb7oNzVgiB2hmc4p05E24QVQMjAGgTRJFXsxwRERHR/jmQ0GjjJ58pAIBv3z7Ds2fP8OzttwAA5bOfwBYevanYtzEYDFatWGWEgyQzxohjANBwJkl/jjfFOFllhPPCc9k+YgCAhkngwiwvRkRERLSXDiM02s+Q1Bi/xcdpetv0H/BNDAAneLbt1NjAdM+hAUB4hctFGv/E1Gi6OE8LjLFvo9QTPTMwmofJv5UxDEngJCIiIto3hxEaM/F/4t/y/3yN/7hL/nX0R/fVRW1CHyblw/DawsxbJFVD7RxusWR4qiJ9FK6MVY0yZ7nwk7wJ9Zi1RiIiItp/hxEa/+0/k3CmfIafZFXFV1/heXmI49Yo4ymiKMpbkCVCU0eSGUNcWwBmHpJio4Khvgp/5rGa/CNe4ia/tWiG22XyL0U9Fe8kIiIi2juHERq//gLvkyGMOHn5ER8/fsTHn3+WVvPuj6kPk9cMr5H0OM/gpV3UylDn+EQiIiJ6tA4jNAKYvvwyHcOYiL/5EulcGNz9x/YuuwPJRJiRMQPgwMhmtmiTvAo5zW5ThigUG9PbVMjriCZWxUh5LZKIiIhonxxMaAS+xhefpzOnnz3D51/8CZ6dAECM/1wNdNwd5yyZAFNr1UWdj3WEhvPSYMeUY6Qzq2MsPMmYRyIiIqI9czCh0X77tnBpnVf46sPLZEb1t++xxet718qvzRjOy5fjGQwwSGdDK2MjufbizMBVPkF6Cq84Q9p0EeQXBr+CbJ4MERER0b45mNAInODlx3Q848efI7ls47d4+zK7Bs8rfPUhuX/7F/zOrs2YzJqusK6RZMTVNRst3c5nSGuT1aSaaDpOxkXGPmz+VRgiIiI6EAcTGqcv3yIdwpiIv8GXz14ii4y7lF+bMZs1XWHhOq0srq7ZOIMxGsDOkqNIGWPKvwpDREREB+Kw/vb0YyH+PWr+LWoiIiLacwyNRERERNTqYLqniYiIiOjhMDQSERERUSuGRiIiIiJqxdBIRERERK0YGomIiIioFUMjEREREbViaCQiIiKiVgyNRERERNSKoZGIiIiIWjE0EhEREVErhkYiIiIiasXQSEREREStGBqJiIiIqNUnJycn34s30j5z4EUTYD6Abon3bYMJN5hCvZI9f3LfWBFvL4t9GyNjJt68NaYbYKpeYVBdwY6atrEbx4sw0cRbBeG8dh03XT47DlZPEcO3RyjudseLMEHTcxAREXXHSuMecbwIkeeIN2+JAy+KENU2D11fOZwPMBjI2zwUH92D6SKorFe/9TPdQLoPHS9C4JrizRuJfbuy/aXWENYsXfL4QrP9WFxkxXQRpD8c8mXsBYbTCJJNJyIi2gqGxifDgi6GknBeCCo66iPOfYrh29UQtT/rtx2OJ4bicps2lHMdYwwlnJerpDMDl34M7dzFdqMxERFRgqFxj1h6c3Vqe0zoQwVQj59UwFDG0zSUtXex34dNKpXx8ka8CbPbJaCoOBXvICIi2gKGxifI8aYYL+eYL8e4WKPLVptUK2NZax2nty3aJHnNQFJZy+4T1msV0mw09f52tQqhNU22bluiqNVoaB6rQLxENU4SERFtjqGxo6OjI7x58wbv37/H+/fv8ebNGxwdHYkP24h0TKPjlYKIeHc/ybjGbHKEpQ9wpU57hJsZjJGkIia0XU6CyWVd6yMDlVcrdbsnbaOxlhJtYxJr162gNXTWjOO0XB+xNikfC6aLi7GC8Kr5NYmIiNbF0NiRZVl48eIFjo6OcHR0hBcvXsCy6rsPt8F0A0QTtTDGz8byvDhjtgfHQ5RNnih0e1r6AIMrFdMowBpFxx1QMJ6K4Slpm05k2bx7um0yUV2rhj8xdFbHmA7qx3HODIwGc6BY8Z0OsbDXnw1ORETUhpfc6ehf//Vf8Qd/8Ael2/7rv/4Lf/qnf1q6bRPlS6TUXVqn7vYdMl0E0zF656zYh91Sbds20w1qJ5GsLgW0+SV3tm3zywgRERHtFkNjR/ceGk0XwXSIhXDtvc1DY7drLYYdn9/xIpwvt3tdxrYA1XZ/uy2FxtowHWIurRKK11bsSv58m1/rkYiIqDt2T3f04cMH8Sbpbdu1xO32sliqbVxi0ySRpHt2s3GV98GEG+x2PU03yLuEK/twDkyk+6l82aPurRoYIeniFlvjtR6JiIh6YmjsyHEcvHv3Dnd3d7i7u8O7d+/gOJVUsD2zWyyh4Ux8CfMYqnBTP0mgqo67y1p7FfJeSGZAZ62u+/n+JJcsCudiFThl6RjMw4ZrJnYcG9kyQWmTaz0SERH1xdDY0d3dHV6/fo3nz5/j+fPneP36Ne7u7sSHbZGF6xDQJsVJFA48sTvU8VrDhUzTX3UZDLp321p6l9nSDry+E20qk0K2WUFLqq3VsaI913Ft7RXHrtu4ybUeiYiI+mBo3GOWPsA81DDJq0dnuB7MUbx6jHmsIl549zrZpDfzGGq8gLfPK9lrHWfwFjG0iawLOg3yE42XvyEiokeFE2EOmgk3uAAua7pJpbpNhJHPfO44kUNY1nQDXOCyQ0Uy0TQDOtc4waP/NvZdR2CdiTDdmW6A6XAheQ9WOk2E2cK6EBERgaHx0DnwgmO4DcFiHzhegGO3T7C9f/u2jl1CIxER0X1iaCQiIiKiVhzTSEREREStGBqJiIiIqBVDIxERERG1YmgkIiIiolYMjURERETUiqGRiIiIiFoxNBIRERFRK4ZGIiIiImrF0EhERERErRgaiYiIiKgVQyMRERERtWJoJCIiIqJWDI1ERERE1IqhkYiIiIhaMTQSERERUSuGRiIiIiJqxdBIRERERK0YGomIiIioFUMjEREREbViaCQiIiKiVgyNRERERNSKoZGIiIiIWjE0EhEREVErhkYiIiIiavX/B+wxASyyzpmaAAAAAElFTkSuQmCC;" vertex="1" parent="1">
          <mxGeometry x="1828" y="-10" width="653" height="563" as="geometry" />
        </mxCell>
        <mxCell id="Gk-Gb2TZYQ2Sssv7sJZE-2" value="회원" style="shape=table;startSize=30;container=1;collapsible=1;childLayout=tableLayout;fixedRows=1;rowLines=0;fontStyle=1;align=center;resizeLast=1;html=1;" vertex="1" parent="1">
          <mxGeometry x="620" y="180" width="180" height="160" as="geometry" />
        </mxCell>
        <mxCell id="Gk-Gb2TZYQ2Sssv7sJZE-3" value="" style="shape=tableRow;horizontal=0;startSize=0;swimlaneHead=0;swimlaneBody=0;fillColor=none;collapsible=0;dropTarget=0;points=[[0,0.5],[1,0.5]];portConstraint=eastwest;top=0;left=0;right=0;bottom=1;" vertex="1" parent="Gk-Gb2TZYQ2Sssv7sJZE-2">
          <mxGeometry y="30" width="180" height="30" as="geometry" />
        </mxCell>
        <mxCell id="Gk-Gb2TZYQ2Sssv7sJZE-4" value="PK" style="shape=partialRectangle;connectable=0;fillColor=none;top=0;left=0;bottom=0;right=0;fontStyle=1;overflow=hidden;whiteSpace=wrap;html=1;" vertex="1" parent="Gk-Gb2TZYQ2Sssv7sJZE-3">
          <mxGeometry width="30" height="30" as="geometry">
            <mxRectangle width="30" height="30" as="alternateBounds" />
          </mxGeometry>
        </mxCell>
        <mxCell id="Gk-Gb2TZYQ2Sssv7sJZE-5" value="회원ID" style="shape=partialRectangle;connectable=0;fillColor=none;top=0;left=0;bottom=0;right=0;align=left;spacingLeft=6;fontStyle=5;overflow=hidden;whiteSpace=wrap;html=1;" vertex="1" parent="Gk-Gb2TZYQ2Sssv7sJZE-3">
          <mxGeometry x="30" width="150" height="30" as="geometry">
            <mxRectangle width="150" height="30" as="alternateBounds" />
          </mxGeometry>
        </mxCell>
        <mxCell id="Gk-Gb2TZYQ2Sssv7sJZE-6" value="" style="shape=tableRow;horizontal=0;startSize=0;swimlaneHead=0;swimlaneBody=0;fillColor=none;collapsible=0;dropTarget=0;points=[[0,0.5],[1,0.5]];portConstraint=eastwest;top=0;left=0;right=0;bottom=0;" vertex="1" parent="Gk-Gb2TZYQ2Sssv7sJZE-2">
          <mxGeometry y="60" width="180" height="40" as="geometry" />
        </mxCell>
        <mxCell id="Gk-Gb2TZYQ2Sssv7sJZE-7" value="" style="shape=partialRectangle;connectable=0;fillColor=none;top=0;left=0;bottom=0;right=0;editable=1;overflow=hidden;whiteSpace=wrap;html=1;" vertex="1" parent="Gk-Gb2TZYQ2Sssv7sJZE-6">
          <mxGeometry width="30" height="40" as="geometry">
            <mxRectangle width="30" height="40" as="alternateBounds" />
          </mxGeometry>
        </mxCell>
        <mxCell id="Gk-Gb2TZYQ2Sssv7sJZE-8" value="Row 1" style="shape=partialRectangle;connectable=0;fillColor=none;top=0;left=0;bottom=0;right=0;align=left;spacingLeft=6;overflow=hidden;whiteSpace=wrap;html=1;" vertex="1" parent="Gk-Gb2TZYQ2Sssv7sJZE-6">
          <mxGeometry x="30" width="150" height="40" as="geometry">
            <mxRectangle width="150" height="40" as="alternateBounds" />
          </mxGeometry>
        </mxCell>
        <mxCell id="Gk-Gb2TZYQ2Sssv7sJZE-9" value="" style="shape=tableRow;horizontal=0;startSize=0;swimlaneHead=0;swimlaneBody=0;fillColor=none;collapsible=0;dropTarget=0;points=[[0,0.5],[1,0.5]];portConstraint=eastwest;top=0;left=0;right=0;bottom=0;" vertex="1" parent="Gk-Gb2TZYQ2Sssv7sJZE-2">
          <mxGeometry y="100" width="180" height="30" as="geometry" />
        </mxCell>
        <mxCell id="Gk-Gb2TZYQ2Sssv7sJZE-10" value="" style="shape=partialRectangle;connectable=0;fillColor=none;top=0;left=0;bottom=0;right=0;editable=1;overflow=hidden;whiteSpace=wrap;html=1;" vertex="1" parent="Gk-Gb2TZYQ2Sssv7sJZE-9">
          <mxGeometry width="30" height="30" as="geometry">
            <mxRectangle width="30" height="30" as="alternateBounds" />
          </mxGeometry>
        </mxCell>
        <mxCell id="Gk-Gb2TZYQ2Sssv7sJZE-11" value="Row 2" style="shape=partialRectangle;connectable=0;fillColor=none;top=0;left=0;bottom=0;right=0;align=left;spacingLeft=6;overflow=hidden;whiteSpace=wrap;html=1;" vertex="1" parent="Gk-Gb2TZYQ2Sssv7sJZE-9">
          <mxGeometry x="30" width="150" height="30" as="geometry">
            <mxRectangle width="150" height="30" as="alternateBounds" />
          </mxGeometry>
        </mxCell>
        <mxCell id="Gk-Gb2TZYQ2Sssv7sJZE-12" value="" style="shape=tableRow;horizontal=0;startSize=0;swimlaneHead=0;swimlaneBody=0;fillColor=none;collapsible=0;dropTarget=0;points=[[0,0.5],[1,0.5]];portConstraint=eastwest;top=0;left=0;right=0;bottom=0;" vertex="1" parent="Gk-Gb2TZYQ2Sssv7sJZE-2">
          <mxGeometry y="130" width="180" height="30" as="geometry" />
        </mxCell>
        <mxCell id="Gk-Gb2TZYQ2Sssv7sJZE-13" value="" style="shape=partialRectangle;connectable=0;fillColor=none;top=0;left=0;bottom=0;right=0;editable=1;overflow=hidden;whiteSpace=wrap;html=1;" vertex="1" parent="Gk-Gb2TZYQ2Sssv7sJZE-12">
          <mxGeometry width="30" height="30" as="geometry">
            <mxRectangle width="30" height="30" as="alternateBounds" />
          </mxGeometry>
        </mxCell>
        <mxCell id="Gk-Gb2TZYQ2Sssv7sJZE-14" value="Row 3" style="shape=partialRectangle;connectable=0;fillColor=none;top=0;left=0;bottom=0;right=0;align=left;spacingLeft=6;overflow=hidden;whiteSpace=wrap;html=1;" vertex="1" parent="Gk-Gb2TZYQ2Sssv7sJZE-12">
          <mxGeometry x="30" width="150" height="30" as="geometry">
            <mxRectangle width="150" height="30" as="alternateBounds" />
          </mxGeometry>
        </mxCell>
        <mxCell id="Gk-Gb2TZYQ2Sssv7sJZE-15" value="장례" style="shape=table;startSize=30;container=1;collapsible=1;childLayout=tableLayout;fixedRows=1;rowLines=0;fontStyle=1;align=center;resizeLast=1;html=1;" vertex="1" parent="1">
          <mxGeometry x="300" y="350" width="180" height="150" as="geometry" />
        </mxCell>
        <mxCell id="Gk-Gb2TZYQ2Sssv7sJZE-16" value="" style="shape=tableRow;horizontal=0;startSize=0;swimlaneHead=0;swimlaneBody=0;fillColor=none;collapsible=0;dropTarget=0;points=[[0,0.5],[1,0.5]];portConstraint=eastwest;top=0;left=0;right=0;bottom=1;" vertex="1" parent="Gk-Gb2TZYQ2Sssv7sJZE-15">
          <mxGeometry y="30" width="180" height="30" as="geometry" />
        </mxCell>
        <mxCell id="Gk-Gb2TZYQ2Sssv7sJZE-17" value="" style="shape=partialRectangle;connectable=0;fillColor=none;top=0;left=0;bottom=0;right=0;fontStyle=1;overflow=hidden;whiteSpace=wrap;html=1;" vertex="1" parent="Gk-Gb2TZYQ2Sssv7sJZE-16">
          <mxGeometry width="30" height="30" as="geometry">
            <mxRectangle width="30" height="30" as="alternateBounds" />
          </mxGeometry>
        </mxCell>
        <mxCell id="Gk-Gb2TZYQ2Sssv7sJZE-18" value="장례ID" style="shape=partialRectangle;connectable=0;fillColor=none;top=0;left=0;bottom=0;right=0;align=left;spacingLeft=6;fontStyle=5;overflow=hidden;whiteSpace=wrap;html=1;" vertex="1" parent="Gk-Gb2TZYQ2Sssv7sJZE-16">
          <mxGeometry x="30" width="150" height="30" as="geometry">
            <mxRectangle width="150" height="30" as="alternateBounds" />
          </mxGeometry>
        </mxCell>
        <mxCell id="Gk-Gb2TZYQ2Sssv7sJZE-19" value="" style="shape=tableRow;horizontal=0;startSize=0;swimlaneHead=0;swimlaneBody=0;fillColor=none;collapsible=0;dropTarget=0;points=[[0,0.5],[1,0.5]];portConstraint=eastwest;top=0;left=0;right=0;bottom=0;" vertex="1" parent="Gk-Gb2TZYQ2Sssv7sJZE-15">
          <mxGeometry y="60" width="180" height="30" as="geometry" />
        </mxCell>
        <mxCell id="Gk-Gb2TZYQ2Sssv7sJZE-20" value="FK&lt;span style=&quot;white-space: pre;&quot;&gt;&#x9;&lt;/span&gt;" style="shape=partialRectangle;connectable=0;fillColor=none;top=0;left=0;bottom=0;right=0;editable=1;overflow=hidden;whiteSpace=wrap;html=1;" vertex="1" parent="Gk-Gb2TZYQ2Sssv7sJZE-19">
          <mxGeometry width="30" height="30" as="geometry">
            <mxRectangle width="30" height="30" as="alternateBounds" />
          </mxGeometry>
        </mxCell>
        <mxCell id="Gk-Gb2TZYQ2Sssv7sJZE-21" value="반려동물ID&lt;span style=&quot;white-space: pre;&quot;&gt;&#x9;&lt;/span&gt;" style="shape=partialRectangle;connectable=0;fillColor=none;top=0;left=0;bottom=0;right=0;align=left;spacingLeft=6;overflow=hidden;whiteSpace=wrap;html=1;" vertex="1" parent="Gk-Gb2TZYQ2Sssv7sJZE-19">
          <mxGeometry x="30" width="150" height="30" as="geometry">
            <mxRectangle width="150" height="30" as="alternateBounds" />
          </mxGeometry>
        </mxCell>
        <mxCell id="Gk-Gb2TZYQ2Sssv7sJZE-22" value="" style="shape=tableRow;horizontal=0;startSize=0;swimlaneHead=0;swimlaneBody=0;fillColor=none;collapsible=0;dropTarget=0;points=[[0,0.5],[1,0.5]];portConstraint=eastwest;top=0;left=0;right=0;bottom=0;" vertex="1" parent="Gk-Gb2TZYQ2Sssv7sJZE-15">
          <mxGeometry y="90" width="180" height="30" as="geometry" />
        </mxCell>
        <mxCell id="Gk-Gb2TZYQ2Sssv7sJZE-23" value="FK" style="shape=partialRectangle;connectable=0;fillColor=none;top=0;left=0;bottom=0;right=0;editable=1;overflow=hidden;whiteSpace=wrap;html=1;" vertex="1" parent="Gk-Gb2TZYQ2Sssv7sJZE-22">
          <mxGeometry width="30" height="30" as="geometry">
            <mxRectangle width="30" height="30" as="alternateBounds" />
          </mxGeometry>
        </mxCell>
        <mxCell id="Gk-Gb2TZYQ2Sssv7sJZE-24" value="회원ID" style="shape=partialRectangle;connectable=0;fillColor=none;top=0;left=0;bottom=0;right=0;align=left;spacingLeft=6;overflow=hidden;whiteSpace=wrap;html=1;" vertex="1" parent="Gk-Gb2TZYQ2Sssv7sJZE-22">
          <mxGeometry x="30" width="150" height="30" as="geometry">
            <mxRectangle width="150" height="30" as="alternateBounds" />
          </mxGeometry>
        </mxCell>
        <mxCell id="Gk-Gb2TZYQ2Sssv7sJZE-25" value="" style="shape=tableRow;horizontal=0;startSize=0;swimlaneHead=0;swimlaneBody=0;fillColor=none;collapsible=0;dropTarget=0;points=[[0,0.5],[1,0.5]];portConstraint=eastwest;top=0;left=0;right=0;bottom=0;" vertex="1" parent="Gk-Gb2TZYQ2Sssv7sJZE-15">
          <mxGeometry y="120" width="180" height="30" as="geometry" />
        </mxCell>
        <mxCell id="Gk-Gb2TZYQ2Sssv7sJZE-26" value="" style="shape=partialRectangle;connectable=0;fillColor=none;top=0;left=0;bottom=0;right=0;editable=1;overflow=hidden;whiteSpace=wrap;html=1;" vertex="1" parent="Gk-Gb2TZYQ2Sssv7sJZE-25">
          <mxGeometry width="30" height="30" as="geometry">
            <mxRectangle width="30" height="30" as="alternateBounds" />
          </mxGeometry>
        </mxCell>
        <mxCell id="Gk-Gb2TZYQ2Sssv7sJZE-27" value="Row 3" style="shape=partialRectangle;connectable=0;fillColor=none;top=0;left=0;bottom=0;right=0;align=left;spacingLeft=6;overflow=hidden;whiteSpace=wrap;html=1;" vertex="1" parent="Gk-Gb2TZYQ2Sssv7sJZE-25">
          <mxGeometry x="30" width="150" height="30" as="geometry">
            <mxRectangle width="150" height="30" as="alternateBounds" />
          </mxGeometry>
        </mxCell>
        <mxCell id="Gk-Gb2TZYQ2Sssv7sJZE-28" value="" style="shape=image;verticalLabelPosition=bottom;labelBackgroundColor=default;verticalAlign=top;aspect=fixed;imageAspect=0;image=data:image/png,iVBORw0KGgoAAAANSUhEUgAAAWEAAAD8CAYAAACmcBX+AAAAAXNSR0IArs4c6QAAAARnQU1BAACxjwv8YQUAAAAJcEhZcwAADsMAAA7DAcdvqGQAADAnSURBVHhe7Z0tcORItrbf+UgzkbqFrkmXkI3KqAU6dsIRK5Ntk+0iqyVXl0wPGSOLeApVm6iRh0wvWS0ZLVFfUj3E2ghHbzTQIBeykYR8kW4RMaP5QCqrVFLqt34k2+eJyAiH/pxKVb558uSRzjcvX778HQRBEEQr/L/0BoIgCGJ3kAgTBEG0CIkwQRBEi5AIEwRBtAiJMEEQRIuQCBMEQbQIiTBBEESLkAgTBEG0CIkwQRBEizwuETZdBEGAYGZDT+9bh5XrmnCDAEEwg73GP9HtGbuma6Z3MXQbsyBAELjIOWJ795ugtJ55LOpftazXnttHhz1jda3bFMi042Z+Q2lMl9VvZuvL/7fWb2M79STq0QERXv7484o7SZ9Th4LrN+ltUHFmuQkBmuHf9o94M0gf1ya8c+UVF2s16ZbY10zY7m+4u0vU9e4Ov7k2TG0/fXglFmJVUKr8DLgAZsu/cfkqfXRDBm9hfl7W9+63zzDfrvPDWv72Z6SynaUDIlxGCP+39La2UGG6P+H7b2VIi20S9pT/xoe/mVBXjq2KjFGmY8dlJKcP3gyhj7Wb1NIwHAwwSJSJFy12h1/OVvYNBkNo1soVEqg4+/Qbfn0/giL38eJFYteLF+jLCkbvf8Vvn84atvE2eUC0dmMCgIrLf3zA6GD5y3rRP8Dowz9w2b2bJjZIB0TYgjZc7cyDwR/x880D2x3ewv2cPqcZvpP6P6qRPqSQwY+nOJFfAHiAPz3DnwZ/xA+/3OIBwAt5hNNJE6vFh5MSs0Vx/PTBFTGgpq81MLFo0pvP2FCTLhjoNk4VCXiIEAHoK+9gVhSPV5djfH/YBwBEt1f4+ewv+GP8O/jL2c+48pm49w+/h2HWMzstbZht18EAg4ED1roPiML0WVkMdfX8P/JnE93jLn1wE969w/EeAIT4cvZHDL77BbcPALCHk7+xQXlbYzLRLh0QYQH6GH89ZOaQ/+UjPqX3SwrGNaaSm0JTDvACAG4dfHf6CXcI8Hn8A5xbtv9AeYf6MrwbS1i91MCa1McXa5MSPMBb08X/jBVI8eB05vh4eCFj9NO/8bHUjfAGurLH/rz9BX9+8w4fPv2GAAAQ4LdPH/BO/TN+idtYVjTUk+EyHvDwf+lt5WgH8bORvsX7IMBYWVqwTThT+W9rCv1TALhjfPxSYXQgHj3dE2F1gs+n37LpfniFj8ZG5noAAHm0FLj64q3jINYK/9aKRQIAAoxvYquov4dvF9u7g3r2CR9OWOXvpyaETSqP4raptkiz/wcNZ5c23Nm/8GEkMwF2zvCd4cI1vsOP03s8vNjD8ftfMfv8EWdvX+UMUH1Isfvh3rcT7ZokgO3fsz+lPg7Su6tQZSG0KoMJlEaVyGOAftwI97672Pr5Phbhhxv8PBig/sToP1ZdO0Qn6ZQI77+z8NtPf8WBBODBh/Pju6wVDACRh0k8LazpUVhhsdhSyeL8T0gSAEQI71JSEYSIwASizO5bIPCp5pahhlx3aiH70D66+On7Q7AmdTA5XXbyxugW/vmP9/j+RIEcP6urH/8M1fi8sGA/nf4BP/zs4f4BkA6O8f2Hf+Jfd//Gx7fpi4WIYjfJnqzlCPUAmhyPgFGI2CheD62PFw8AEOL+y+quxWCdE3nw6vTbeCDw4fyRPaOkP7w+32KPeWPw8JAYIf+XuXbwQkK8ux5vD7AXi7Akv8Kb9H6iE3RAhAd4pZv49O87/Gp8i/4LANEtfvlBhbEBvUiS9Ak3F+8XePEf6W3VqbJan1+qWanAPt6efcTn2a94fyyDNekv+EE1kNukvhO3TdECWoylY3IVAg8hbq9M/PAnFe/srGfU/aDhD3/6AebVLcLoAeGNBTMzqn6G5cVW7sFf8T8rVvMAr96e4aP7P/hrbHn6nr3+oiIA2Dr+sD/AYKDCEJvfYgZnMJjzFg83V/hY59wd805TluLdP8TbzABIdIGWRXiIHz//in+ORziMh+zo9hf88Oc3GOeqxeZYLLZUmuf9LyJmlkDqp+y1QZ+5T6JwM4s0a/EWH3/7FR++P2YzCkS4dc7w5zfjfAFuwKd3rzDYf4U37z7ic5EQBZ/x8d0bvBru45WWdOMs+e10gp9v2NR7YTUHAYLgX/jnh+9xLDN/a3jzM0yhL0VEKjRxrMQRLWIf/MxezmEWg3VmBjLA2Yf/XvjWp+YH4f3U5wu450GSEvbqf0qszg8RanuH336EHq+rMPr49l3TCB5im7QswjO8/8GEFz4g8r/g72d/wvDNuLhTt4aF29hgk5XTxOLQAJPD2J0R3iM1s82Qv1pfpVSwUvEJ73504D88ILyd4sc/DfHG+LQhsUBW3OoW4RTfxYe3X+JohTx8fHn7ocZAsnRzbArV/Bv++zCOjnFM4P3yvtZbmAsQxpXt7y1952/l2I59cYjv60RHDHTY42NmBUcezJ9v8ADm9/9g6zkuH6ItWhZhAIEF7dU+hqqO959K7EhDzbFQqpFcmOOlzgKd/SX+Me8d48NHDfsY4I35N4ziqfKt97G62NV540woXAW4BtT9fbx6cwqBl6DzrIQSVpqliPiMd6/Sg1h+GWrFDaVOPuPDiLl2HvwpzA37yj64LNQRByd4/24fgzcm3ikNPMHqGT79cww2JkTwLn/Exw9nMGOftaQY+KfdxXjr50v7Iszhr+hWKXVFqZDqdkHwwYTjPwB4gb3j9/g1+Bd+WnRMB5fjyhK8I7bxWqoorjsuE48tJCGCNxHsHzQfQNdizcgI1XTx018P4oidLzC/Y771ZOzwegtzAD5+xNU9AEhQjF/xr59GkF8AwD2m37H/UToeqZf499++Bwu5jnD7yxk0KwAQwNLO8MttBOAF+sr3eG9p6bOJluiOCG+NAtEYDKDWWpX5DWP1B/z8xY/FBgAi3Ht/x1ncMStTITpi7Y5NbATXMPF3L0QUXmHyFx1WnZ9MZVyc/tcZnNvlM38Ib+Gc/RcqB7S4p/jO9BBG9/hi/gVvVhZWXIzf/AXmlxCR7+BH3U7sI9qkOyLMXQ1FpdQU2AUuPuhqQkCH+IP2vr4fu4I7Yj0/YzUWPurm4SINSfuWR+AuzxW30cIRmlpQ2+hsCCuDdbYpXHzQXmH46t2WBDgm+ATjzXLNYP/VGxif6v3Du48aXg3/AP2jyL1yh4/6KwyLomSIndMdEX62FLy2zEsbU3iCIHYCiXDriEOmVsu6Pl0Jyjh9zXRZ93/UpdhNVFoaDUxV2pq+OEbsFhJhgtgAu3Dr8IXAYXmcIvGI+Obly5e/pzcSBEEQu4EsYYIgiBYhESYIgmgREmGCIIgWIREmCIJoERJhgiCIFiERJgiCaBESYYIgiBYhESYIgmgREmGCIIgWIREmCIJoERJhgiCIFiERJgiCaBESYYIgiBYhESYIgmgREmGCIIgWIRFegWcnFmXlLdoH6PasOEMDzybtis7uFvxeameYSN5j/HftawgwXdaersnz0jXJArLOuQSxPUiEN4DpsqSckTdZpN+ZeBEkZdwt0eUimVdKk2fygWi1bOQWU4lP618znTi0yTUExPXKXEu3McsZkJPwASRvMDLd5T7TfRyDNLFZnr0I807CCs/4m8pFVtgxdOz1AcDHVSLtjKVdwQeA/l6JsO2QZEbriYcIACIPk8p52wyoiTxvm0t+bcIdK5Diuky8CPJIIHx56DZmwRiKtEyayq+RfXbLfHt5wrhEh32qIHSSGZjjgWisoE4ubEnRSgXbUCfw+qPq9008CZ69CPO8XYWlMG+YhfsQAGQcJzq1bh8zQQ/vS4StJfb7tURkm/C28q/YIMAHMHnExHKR9T4HU2OC6Dsq+JOytEt4EQD5OOV+iOBNKuZqMzUo8GAvHr8OezZC35ssB7EqRBEiyBiVqqsF7dJD/7hsRkI8JZ69CHNEPt2sFSXGUBPuh/jchXuiUMDbwzyMlU1SoOXc5uJ+ytwUe7EroUwtc9jvSwAihHd8yx3CCACYZVtscfOZSPJ8JAZHCf395Paq6LCP5cXAwGAZokvFO014hUsvAuQKVq7l4hb5z4R4enRahHu9Hi4uLnB9fY3r62tcXFyg1+ulD1ubPJ8u5FFlIV5k202U2p01B7GvkE2LM5sroNszjGQg8iZwfEAeiX2bi/ZYuClWfcILzb3XMBwMMChWyxy4iIroY69Q/VEgtnniXBFdxYHk46bmGGq64kGLW+Z5bb2E3U+//MaJJ0KnRdgwDJycnKDX66HX6+Hk5ASGUbNXlLLsrLeuwKcrHxZ0muxikLAIOmU12PVHcgRvOSeOMaA6PuRRFd/mkuSAM9Qs5oeMZIwqLDItSPqRB0l/aTsYNnMNJAVOt0+hSAD8K6yOhRV9wvt9SFGIJvothrkaopTbSoRx40NqZr4Tj5BOi/Dr16/Tm4Tb1mNpSR2oAp+uf7PwM2Zh09MVCzi2BpNWdfmCVxa2YDhmQpIQjpUSm6LcbVBsFXNBB3wnaaWze5h4fYxKr7ENePuLCHFfpeEsDcMBH0xY24wVCb4j8ufX8Ak3wFALnrel4dKLICmn5WFyXVrQJbZKp0V4Vxgq8zumfbrwHUEnrkEy7Kqhv3RzLAcM0S1xd4poXyn8Phve410YpdwJ++hLWESpVLtsdkBcvRe+f5iyjHcLm2FJUE6bzo6Ip0anRfjr16/pTcJtm4BFSTjMBREvCNURYGa5zmDvJTZasa+0gb+U1WfCVvh5fdIlZXXXqC6QCc9blrESwqljKfL7rHmPnEU0RBwVsIiWcNh9Vr1s3v2slrZf1mBuJEgKTosq0tWoGmLjdFqETdPEdDrFfD7HfD7HdDqFae58vlwPl8XiVhawQpj15vii8CYT7khOuRaqwhbYRvJyar4sy2l9rs9UUjDeqLAZUCceovi63Gddd1ApDjfkA1pF7kJEUh9b8cwaajzz0nCY3gdA3+sjarSaSDxGOi3C8/kc5+fnODo6wtHREc7PzzGfz9OHNSfzBlnOyxpBgNmKidsA/qJEXWXh4pI5j704kdlcBfMw9nenF63AhP+KmZ7ZxaHVlzWWZQNT/OSsYWOD2BpYLm4jGYfpsa+EvOiINIbqwIcMOeNq0aEeSAgrOcOJp0CnRXjrJN8gKylD7T599uPFuIkjP0Rxqyw+FgD8uvFZTwoL7m0Eua4KVyZ2S6RpGBpHPF6etwhvnJwohpVSIxRsazCLlsUIp+u3fP23kZX9hLC0K/iZN+4WOzEcLN/Q46SjI8SzmJjYCEha/aamIEy8+Uc8fUiEN0SxPzJZutPB8uvcnTq2iwHVCaGMdzNwmm6AEZxnP/g9N755+fLl7+mNBEEQxG4gS5ggCKJFSIQJgiBahESYIAiiRUiECYIgWoREmCAIokVIhAmCIFqERJggCKJFSIQJgiBahESYIAiiRUiECYIgWoREmCAIokVIhAmCIFqERLgSPKty/QwSPOWOayZSINW8RpZkfXga+iZf+lrn3EcI/4h/9iPKTxfdxuy5PN9HyrMX4bK8ZLkpfjiZ7BwbFLWVazcRby6y61xjRySTohaW/LbNPMsKGS5KieuV0e3a4sYGzsx1ihD9tlwTuj3Lbt/Evdai2v0s6ppzoG7PlvtMt/D5PlWevQgnv6k7iZOQJdPVl6bZWcnOwROFbgDdxozlp8dgMIDjS1DGNUTUdFm6psjDJK4fu4ZoYFmmc8rpK9snld4oW4ralgnCSs68Rc66dTq1DvtUQegkP3AfD2xjBdLqwbmwwWEMpeoJSRLPbzBIfCA+/l0sSuJD8tum0f3kfRw/iaFi4vUF+RSfNs9ehJPsszzrncDUFEiI4Nms0xm2h2iRuaOsA/AURRG8y2SWByZkkqKlhGmZzflRflDc1KBIQORdLnPdWRouvQiAjOPS3p+DqUGBh/gRxGI/Qt+bMJFfPVqIbs8w6nuY1E002lEa3U8Usd/uabm1bmmX8PoVBPsJQSK8wMRhnHQxK1KcZfqirDW5yl48DRtlEjlWQcdeHwBCLPI9WvcIwS2jsg6wDzaeJM4HANwhjACgj73i6j8qdNZYGaz7EBAmLK0CG8j8q6SFybJfl86OEljacKdWqphs4tp0qWp8NrufW1yy9NI4Lek3LLcfoGgVK/QE6LQI93o9XFxc4Pr6GtfX17i4uECv10sftgGYhSMjgjdhWXDFU6LldHfREVf8djxbM3CvDWMXQPL8qnARFVApDXue2OaJcwN0GzOBj1m3Zzv3T3KxTcPFuVH6+IYJN6tmW94ZpW6ezc6AmA9Y4AIyVDAdPs38ZtJY9yHQ3+tOG26ZTouwYRg4OTlBr9dDr9fDyckJDGNDv5YFJtxgDEWK4E2G0CwD6sRDJI9yFxNEJP3I7edo42nrV6eApssGicizU/Wr6RM2XeYT9a8yqe4t7RIe1vXF1ozaMGx4UbqDm9AUCYCPq3Qlq7DfhxSFaCDfm0VSME5arTObDcLyKGXNVmyrFmHuMKncyjVu4FcyNp4GnRbh169fpzcJtzVGtzELRpDhwxkMV/yJw8EEXn/U0o+bW7ICqgqDobLFrEQn5gtX2el0RZ8wj2DgPpaMEAQJf3Us7JuyCvU99JF3/8xNwBceF7OSyMNkxwNiOtvyWqws+i4X4Ix4lrVaVu8zEylSsVQahAuwtGGmLksMqCzFd4X/k57FPV06LcJbZzFVE/1oWMcW7yuHh+Y08wlbYDPsxA+Ri5CkYFy6MMdhqe2XHTUx0Kzsb3aPXSOTPXpTYtglKobGZdqiYikchDdBPGuRR+X38FzotAh//fo1vUm4bXOk42p5GUMJHYGI5cMsgqY+4UQ0RDx1W0RLTAYYlC7McfhLHWWlYofgg1Z8U6suGF543WLrelNCyP934fXi57cp6/spUFG0d4cF7dJDlLvuwtnAusUjodMibJomptMp5vM55vM5ptMpTLPowa2BIK52UbiPWLAQxZGU8aqwrSsEloZhPHXjFrXvVB8EGNyazytFsbcFGCoGEw8QLLLo9ikU7N4NsHHuQkTPyC+5U3j4oHwMTRTYou+hL3Q7PU06LcLz+Rzn5+c4OjrC0dERzs/PMZ/P04dtBDOOT1sNSYqxNFz5ACAhE+0k8tuVWmwVSV1761PFOlgahoKZQf0QJtHsg0eZFIVWNbDueHtWaUjLxW0k47DmP9lUdESuT3esQCpol0LjcgfkRkeksLRLeJEEWc761XT1AFJ4X+M39LjptAjvEuOG2YRCX5Vu41gGgPohS0QZab911bJtS9uCextBrqvCG6KzPt2Nwd0SaXSoBxL8Z9TRvnn58uXv6Y3PFxNuItZ3Bd+pZkGlMF3uShjg5pBHKGQtyHrosGc8rO4K/TGP8KgrTPx+m5zbRQqe3wpV79eEGxwjXPt5tYhuY1bhFWt/5dXsFjFdBIc3jfraY4VEeMuQCD9yTBfBCNQ+u+CZtjWJMEEQRIuQT5ggCKJFSIQJgiBahESYIAiiRUiECYIgWoREmCAIokVIhAmCIFqERJggCKJFSIQJgiBahESYIAiiRUiECYIgWoREmCAIokVIhAmCIFqEPuCzK0yXJchs+EnMbZL80tsuqsb/XzGb+NocQXQfsoSRyCJcWgQffI/JZELYQHaFrsKTmBaX/FRQZR8sb5qXT5zVguXZK8s4sbinnAN1e7bcZ7qFvwWCqAOJMBJJJHNLUS421sl5OvnBIM5JJykYd7GjCgacZQb7egNJcaLPpujYE+UdK8N0Mep7mCRSK7GBsWpm6hj5OHfwWGComHj9kkSVBFENEuF1MTUoEhB5l8upM09kCBnHpT16x6QHnEkixUw6yWmtXHFtosM+llfyA+r2jIlynUEhiliG69PiwQc8R1q/gmATRAkkwmui55ht1n0IAJAymUE7xCL1TQTfjwBJwbgz1l2NlOemBgUe7IQ/u37CUQC4xaXjA5KC01J1teDeAorWlfYiHiudFuFer4eLiwtcX1/j+voaFxcX6PV66cNahYttGi7OUbh+4m7TFfkqWZbizOYqcJfEWIEUeZgMhlDVIbOK5RGCptctIeM3FxbuPlhmFC6ri3koI7p1awlublZgQwXT4dNSK9e6D4H+XqnVTBBFdFqEDcPAyckJer0eer0eTk5OYBjbXr7nKdgFHVSEYcOL0p3WhKZIAHxcrbW8n/A3J808gGUpdnzIowCzMrXgmC4TurECyXeyLoeFq8IBuH+4xC9ch7IFubxSHLHBfMhhZbO5HEN14EMqt3KNG/hSHx2e6xCPgE6L8OvXr9ObhNu2jr6HPgBEIbJ2rQVtOIDjS1DG3JobQY48TNZIWLi6qJS8dqLEK2qSMq5kMcJQl+JWqGyJNPQFU3r+f8WWbLextCEGuc+HDXCQR+Vtij72NjVKEc+STovwYyJj5RWI12OHCdjyXnlIme8k2yA/xrdaiFuFQWWbxDMceVRxRkQQDem0CH/9+jW9Sbht6/BpeqGwxm6MDU3fmajzlX0fjmCaPojVj4eKFRq3lX2y2bJpMUyLeLo0jRPeLBa0Sw8R5JJQtBoLiAQhoNMibJomptMp5vM55vM5ptMpTLOoQzw1uKtDJAQm3JEM3xlgmGdypshY6ynRW7Vkl6VM3OtSZgmXv02XxAJbH9vE0JeChxrKx9BEQTD6HvpCFxVBVOeZv7Zswg1GqNXngdgyTfsT42tFqy8MPAaqvrZc7XXjLOnr6vYMY0XKbG+M6SI4DnPaXYc9G6N/JapDuHiOuj3D+OBWcA12PltnXX3lXLdnGPevSvzrBFFMpy3h7ZNYgKpV0gL8PMizpMvK1jXKuIEvHUDdgjG8dEuk0aEeSPBvtn1zxFPnmVvCm6SqVS2yotulqiW8KbglXEqNjx3t3Co1XQSHN7v7f8SThUSY2LkIbwfmNji4nVT2kTfGdBGM0LnBlHickAgTBEG0yDP3CRMEQbQLiTBBEESLkAgTBEG0CIkwQRBEi5AIEwRBtAiJMEEQRIuQCBMEQbQIiTBBEESLkAgTBEG0CIkwQRBEi5AIEwRBtAiJMEEQRIuQCAupmXF5bfj/KykbSp20aXjapEzyj07BMlcHwaw0lX0uuo1ZECDo9o0SjwwS4Y3AO3hJyRXRso/LO+hE2rUNUZbeiJWGYmm6CIIAszonx+fkltznVoFYuDO6rduYVRjk+QCXdz+mu9xnujRAPEZIhIWiwD/OLmOU6pB5nYERwZukBXSAwUSUmaEG+h5EKc5agVuDicJTHsmjeuLFE5SuFp7cdIcYavZZ+c5yWyblUVV02KcKwpXvNMeznrGCCp+1XyApWqlgG+oEXn+UFXyi05AIC7L/ThIqkBaKrX8wvOvwzNNp0QKAyMMkua+xeLXIfp+JY3+vcACphKlBgQd7IcA67NkIfW9Sb2COogpZn7FIxdQ/Lh78iG5BIpxikXon8uFHgKSMu2NZhPfdEjXdxmysQEIEnzUWxi03lr633pzBPIzN+rVz1umwj2X4V8mBiGXPrj2Qh1dx1ucKVq7l4hYKtLLjiM7QaRHu9Xq4uLjA9fU1rq+vcXFxgV6vlz5sI3CXxFiRmPU7VKEOmVXMptnl/rv6VFyQ41NXeRRvq1cXsa+Q/e/M5ipwl8RYgRR5mAyGUNUhs+7iOja67gaR+vvpTeWY7iLNk+NLUE7XsCh1FQeSj7p5QE1X7MaxtEswHS579hbuQ6C/l74C0VU6LcKGYeDk5AS9Xg+9Xg8nJycwjJq/6hL4wgdPwZ52OSxcFQ4W/uFiv3Adyhbk8krV3GZswXAkR/CWc+IYA6rjQx7VuB++gDVWIHGfadLlsHBVOAD3DwsEZXuwDMgAAPkwR6wkKGPBczRdBCMZkTeBasT+VSgYN63/fh9SFOIuvb0xPOuzjOOS52Xc+M0GIaIVOi3Cr1+/Tm8SbluHZBr3wiSXicWb/OnksoMLLdkdwgaXMVhS45x6xStqkjKuZr0mF7CKG2s5uBT4hfn/XS28zg0wNSgS4HtFYrVcPGXPMY5sGcnwneSzZa4DJ1QwrtI2G8JQC9rM0nDpRZCU0/LIkU34tImd0GkRfjywDru0VHlImQ8nacHmda6qIW413RBdJb0Q6sTxd3wmwsoQuWOdEBMu8yVA1WqIVeLZicYVPkiL9rWBpV3Bx5quEqJTdFqEv379mt4k3Nacij7ZTNm0GKZFPF3qxwkz8eDhXqnBgJdY/XgESJnQcNdN3bJ9K5JFHciRh0l8E5Y2ZH7dcY14Y+7rbuqC2AnMjQRJwWnRjXVtEZfIpdMibJomptMp5vM55vM5ptMpTHOTPTrPJ5tjyS5KVZ9sVcosYR63XJd4Su2LwpuY5bg6BS8m6bpJFrEluyxl4r4Wuo1ZMIYSOpmZhqHGC2x1hLgI7vOuckN3ISKpj614Zg0VTIc1HKb3xREiUbg5bzSxXTotwvP5HOfn5zg6OsLR0RHOz88xn8/Th7VIniWd/7IHK3mWdJ7o89JM/A1VJBxsAMps3iJ5lnTuyx5xyYwfK7i4LBBGNnDUdW1sAMvFbSTjsLDuWfKiI9IYqgMfMuTM6MwWJ8P7Xd8w0ZROi3D3ybOky0ozMX3s5FnSZSVHXxmW1dFptwX3NoJcV4UrE7sl0jQMjSPa45uXL1/+nt5ImHCDEWT4cHYimDrsWbWoAH/lFdhuYLrMmu1i3ZbwNo7gTXIs48XLJyVEHia5i6xJTLjBMcK8/7cFTDfA4U2XnwORhkRYyK5F+HHzZER4G5gughF28jsy3QAjOLmuGaKbkAgTBEG0CPmECYIgWoREmCAIokVIhAmCIFqERJggCKJFSIQJgiBahESYIAiiRUiECYIgWoREmCAIokVIhAmCIFqERJggCKJFSIQJgiBahESYEMA/Mp/33WOCIDYFifAK/CPtIvEp2gfo9izzMfJMNt9AlHq+LYrvZz22cW0+MDTNkrHu+QSxHUiEN4DpBhgr0iJX22AwwMSLWDbhzojuZsjLjpEZdBrCB7Na1+IDnLCsORDEeecyj1G3Matwbd5eefdjust9ptulQZrYFc9ehFdFJSctUWHH0LHXBwAfV4mP1LKsuE8v9bgoO8aEZRNtH9/J1G29LCY67FMF4cp3kmMrv8rH3xNIilYq2IY6gdcfZQWfeNI8exEWiUqmFH4k28J9CAAyjhPWjm4fM0HvatZbfQ99AED9PGjPBlODAg/24vGzrM59b4LBxEPloSeKEEGUbDWNBe3SQ/+4PMcc8XR49iLMEfl0iy3gJYaacD/E5y7cE4UC3h66egAp8uD5gDwqn1bvBpakEgCkAzVHiCQo4+IpfjFVz9dhH8vwr5JpjFj26qrZqReEV7j0IkCuYOVaLm6hQCs7jngydFqEe70eLi4ucH19jevra1xcXKDX66UPW5s8ny7kUWUhtrRhxoKu3VlzEPsK2bQ4s7kSJjRFgn+lQVMn8CIZow4sWOn2KUs/5HiIJAWnwgpF8CbrtG/F8xsmzMzLlmxpl2A/qbIBj82s+nvpKxBPlU6LsGEYODk5Qa/XQ6/Xw8nJCQyjZq8ohft0I9y6Ap+ufFjQafiKe0kRdMpqsOuP5Ajeck4cw7LtyqMyiy6L6Y4gR3yazay7iQco47Jrie93XCVDaQm6PcNYAcv/ZmgYsgoJBp8C5FGmbkEgGsAqsN+HFIW4S29vDHM1RCm3lQjjxofU309vJp4onRbh169fpzcJt60H9+lKOFAFPl3/pmBhhwnYigUcpyFPWtWDSpl5V2ELhjwD83IKvVJGbBmRu0GqaA1LyunDSdWJW/KF1uGCpTW5vuXPLPqxEsIZJBJwWhqGA7ZQVRrhYKiZuqyUHbqEDLXgeVsaLr0IknJaPut4Ygu6RD6dFuFdYagDOP5SzBbWnb9m5to4vCkpmG2i2zNmVU/KIgb44FJ23AbQ72AP8v7XJuvBr7XDTMsC2AxLgnLadHZEPDU6LcJfv35NbxJu2wQsSsJhLgj4cGpaUMxyncHeS2y0NAxTFnJVWH0mYNFfcX3SJWV1l1WXWbtMhIrifZelxALdBJaVshr5ix7pMoYSOsUiWhgvzEvbvm/mRkKuzzumq1E1xMbptAibponpdIr5fI75fI7pdArT3LosrIfLpsbNpuZpmPXm+KLwJhPuSIbvrPO/xG6FpfjvGNNlsdqRh0m6ThMPkTyqJqLCeOGa93QXIpL62Ipn1lDjmZeGw/Q+APpeH1G4OW800W06LcLz+Rzn5+c4OjrC0dERzs/PMZ/P04c1J2M55bysEQSYrZi4DeB+yzJzVYChis4zoFawfrdDjo86aLgIFmMestZfDQuLsTRc+QAgYSdrVpaL26h+DHVedEQaQ3XgQ4ac8VKxML3wPtMCxBOl0yK8dcoWdBJlqN2nz36GCBYi02WNUcG4Ye4VYRiXbuOYrZTWDhtrhgX3NoJcV4UrE7sl0jQMjSMeL9+8fPny9/RGQoQJNxhBhg9HsFDEog5SG4WIz9811erbtK7FbVUMP1dA2UKp6VZYAI1YGFwlQ9OEGxwjrHz8+phugMObtmY4RBuQCFdmHWF5bjyhtjJdBCPs5D5MN8AIJQMN8eQgESYIgmiR5+0TJgiCaBkSYYIgiBYhESYIgmgREmGCIIgWIREmCIJoERJhgiCIFiERJgiCaBESYYIgiBYhESYIgmgREmGCIIgWIREmCIJoERLhqvBURWt8L5cgCCINiXAS/pH3bQjtVq7NUwEJvr9biXXP3yU803OFzBpC2j6fIMSQCK9NXk60zXVYng+ujn7r9kxQn7hUyPzQFrzeszoNl8mQkiw1B5j4WrX+fxHxDIo9O/5byftdmHBz961iutk6mu6mB3liF5AIrw1LM7SaYaJmPrMtwpOArpS8lOyPHWFuue1/BzgfHfapgtBJf6RdgqI1E0s+SIm+XW+oE3j9Ua3BmmgfEuEE+l6f/SEf1rOeCEKEqUGBBzs1CkRRBMgNxNJ0MVZCOIMBRJmRAAvapYf+cXdnOkQWEuEFLMFi5HnwIcpu3BYm4vyXBfnOlolJm1V73fM3BXsGACAdqDlCskwymp6OV6P4/MVAvDY67GNZmLQ0vLqEF+Xk0ivCUMste8vFLRQ0NLSJFui0CPd6PVxcXOD6+hrX19e4uLhAr9dLH7YZTA2K5ONK06Dy9Ood8J2abpwmyPELrCcfTjz9bpYZp8H5uo2ZwH+p27PG7abbp1CkCJ7jIZIUnKYvDsQ54lhdh40Sv1U7X1o3pXNhwk5msUYlgz1zPdQUali4D4H+nqjtiC7SaRE2DAMnJyfo9Xro9Xo4OTmBYQh/1Wtiwh3JiDybWRmWhuFgAg8KxgKhWYGHrq2UMRRm0K0FS8YZ52kzVAwcH/JIbMHlISljwWJVvWtkMF0EYwWSf5VJgGlpl3G71RMP3Z5hrIAl4TQ0DCceoIzrLTTJo8x9BkGdxaqlJZ7vkiq2pBfs9yFFIe7S2zmWhksvAuTj4t9XA4wbf/1BhNgZnRbh169fpzcJt61HnJTSd1KWEU/vXjHTbuRhklkUqnhumljYR30Pk+T001AxGDgIlXGptWlpQ8Ei1bIUWYG58AGHrwoJRY8PQLGLo6SePGKA+ToT7cUHwv6o3Bo01Mz9rZSq5r2pQZEA32NW6rFQHatZ0lWwtEt4kQTlVNxG7BmWuB/y6O8Jr0l0j06L8PbRYc9GkCMPk7KOamkY1unQa+HicpAXxRBHYwj31YVHdjTs6JtAv4OdWwc+EIr21aVsUGWzIfgOVI1ZqZJyunErdRUL2pUP5LpeiOdAp0X469ev6U3Cbc2JO+ZQg1UY79tkarsGlrUqsEKXR4AgGKHvTQpFqjBeeFFKLE0OH4jipXlh+NsiPC/2M5cNFul7zX0OYyihUyCisZskc166iNxL2cHY0oZwfAnKWHT8BjFUOD42L/jhfXG7E52h0yJsmiam0ynm8znm8zmm0ylMs5JcNEfoVhhgMPHQRuivbs9i/6sgBtbxY59vuYiKBdOBMNKpDEPFYOIBAuHQ7VMoSLlRqmK6CIJYDNN15YulQhFNIWqrvNht3caMC3xqwDDUQXMhvgsRSX1U8cwaqgMfEhTtML2rEfpeH1GY640mOkanRXg+n+P8/BxHR0c4OjrC+fk55vN5+rBuICkYZ6wuVpobz3yhKIKXDjYFAMOOhaWPnS+GWxqGAqvU0oYZMauKGcfiicK6YGm48gFAwmbXnGLXT46byVAHxdZ3HpaL20hGblThCgZUxwdkGcl3MJpFR7DfTHhft8JEW3RahB8FfIpeUHL6dwUsuLcRW5EXLd7EC0mIbuE+gT5n3DC7XBg/q9s4lgEgL+yrIRl3yKZgzy4/tjtF7JZYm8LQOKKLfPPy5cvf0xufJ3GURHpzGt/JtZoKMV0WVdDkfN3GbKxAFPUWeZPCVXoW+iU6M0kcBpfe3AoFz6Gs7XgbFxKxMLj8JstBhz0bszjmyuebcINjhJWPXx/TDXB4s87AT+waEuFdsY4IEx2giQjz546dDHKmG2AE+n09NkiECYIgWoR8wgRBEC1CIkwQBNEiJMIEQRAtQiJMEATRIiTCBEEQLUIiTBAE0SIkwgRBEC1CIkwQBNEiJMIEQRAtQiJMEATRIiTCBEEQLUIiTBAE0SIkwivw1DqC79kW7hOnEVrJxstT7zT/wnvnMd3lR+x5e1S/XR32LPtB/EwpTRxaRPEzJIg2IBHeAKYbYKxIKymEJl7EUg9VV6EdUVHsRAKam+uuQfqfXOLcdJlSIRVTJsfcBuoV37O4LcrFnA9MKwNyAtNd7jPdpz1IE2KevQjzTsIK/5h4nK6dl8KOoWOvDwA+rhIfmbW0KyYanUs9zrMO55fcDA+ZLCJcGEO0nU3HdAMEIzkxEE5YOvmxQEAro8M+VRA6yY+kx9Z0zkf285AUrVSwDXUCrz9ao77EY+TZizDLIVZSCj+SbeE+BAAZxwlrR7ePmaA/4ay3i3uMQrSaVpKnPoo8XC4GQgvaJUvOKh83dGGYGhR4WKb3Y1mZ+96kXuLXKEIEGaNSdWV17jetL/EoefYizBH5dIst4CWGmnA/xOcu3BOFAv6YMaHFaZPSiTnlEbv/ZqRmIZlZioD9PrNK0wOedY8QACpmPV5Fh30sp+6NzSKK0kkJCa9w6UWAXMHKtVzcQoFWdhzxZOi0CPd6PVxcXOD6+hrX19e4uLhAr9dLH7Y2eT5dyKPKQmxpw4wFXbuz5iD2FbJpcWbzjjDdWBR9J5PPzHfi9qtFuZtkMBiIMznfhcwqTbt+9D300dBSb5gw03TFi4eWdgn2kyrzI7OZVX/n6bOJtui0CBuGgZOTE/R6PfR6PZycnMAwavaKUrhPN8JtImXxwqcrHxZ0moqLXIJOWQ12/ZEsSnnP0qTLo/xFnyokIxqqotszsHyaPpy0AreBpeHKByApOF20BfPnSgJLvRL7fUhNxDsX7h5ZdVuJMG58SP36tjvxOOm0CL9+/Tq9SbhtPbhPV8KBKvDp+jcFCRoF1lu8qpW0qoXWWwlMHMcspT3YAlNG3OPMwtwNUkdI81kOSqFAgfisAZGHyUaSV/Kwsbpl1aLMuoTGUCQWabHLccJQC563peHSiyApp+VRG2mrnniydFqEd4WhsoiAtE937czIyZCu0lTsXYdb5czdIBIavsipGkv3THnzGVDTLofBII5uQJyiPr1vgIFgAMi6hLLHtA2bYUlQTpvOjoinRqdF+OvXr+lNwm2bgAkID7mKY1XLFWQBs1xnsPcSG5MhXblxX2JYfbgQ5cTOpqzuGtUtgFv36bTuS6tfNdKhffmlunX+XF6kYG6kVdeJgPQiI/Fk6bQIm6aJ6XSK+XyO+XyO6XQK0+x4F3VVDDa2KMeEz/FF4U0m3JEM39nU/6pHWWhf/YW5jnEXImoUVVEBQ41nXhoO0/sA6Ht9RCJfEPEk6bQIz+dznJ+f4+joCEdHRzg/P8d8Pk8f1pzMG1Y5L2sEAWYrJm4DDCbOdaxrjqGKzmPT+MzmAkTWK/eSyKPsvvrWbAtknmF+qXUflovbSMZhnXMKoiPSGKoDHzLkjJdKh3ogIWz77RdiZ3RahLcOF8YKZajdp89+dJRZr3mljtBvjjy3SIoaz7DefVhwbyPIdVW4MrFbIk3D0Dji8fLNy5cvf09vJESYcIMRZPhwBAs+pru0KosRn//U0O0ZxooEf+WV3yJ4+5YRwZuUCHMuxc8wiwk3OEbY+P/Vx3QDHN5UbTPiKUAiXJm6Hfh5U1+Ed0GDZ2i6CEaofvwamG6AEdaMyCEeHSTCBEEQLfK8fcIEQRAtQyJMEATRIiTCBEEQLUIiTBAE0SIkwgRBEC1CIkwQBNEiJMIEQRAtQiJMEATRIiTCBEEQLUIiTBAE0SIkwgRBEC1CIkwQBNEiJMIEQRAtQiJMEATRIiTCBEEQLUIiTBAE0SIkwgRBEC1CIkwQBNEiJMIEQRAtQiJMEATRIiTCBEEQLUIiTBAE0SIkwgRBEC1CIkwQBNEiJMIEQRAt8v8BWjUJXgNlCikAAAAASUVORK5CYII=;" vertex="1" parent="1">
          <mxGeometry x="1978" y="-330" width="353" height="252" as="geometry" />
        </mxCell>
        <mxCell id="Gk-Gb2TZYQ2Sssv7sJZE-32" value="반려동물(사망)" style="shape=table;startSize=35;container=1;collapsible=1;childLayout=tableLayout;fixedRows=1;rowLines=0;fontStyle=1;align=center;resizeLast=1;html=1;" vertex="1" parent="1">
          <mxGeometry x="290" y="80" width="180" height="155" as="geometry" />
        </mxCell>
        <mxCell id="Gk-Gb2TZYQ2Sssv7sJZE-33" value="" style="shape=tableRow;horizontal=0;startSize=0;swimlaneHead=0;swimlaneBody=0;fillColor=none;collapsible=0;dropTarget=0;points=[[0,0.5],[1,0.5]];portConstraint=eastwest;top=0;left=0;right=0;bottom=1;" vertex="1" parent="Gk-Gb2TZYQ2Sssv7sJZE-32">
          <mxGeometry y="35" width="180" height="30" as="geometry" />
        </mxCell>
        <mxCell id="Gk-Gb2TZYQ2Sssv7sJZE-34" value="PK" style="shape=partialRectangle;connectable=0;fillColor=none;top=0;left=0;bottom=0;right=0;fontStyle=1;overflow=hidden;whiteSpace=wrap;html=1;" vertex="1" parent="Gk-Gb2TZYQ2Sssv7sJZE-33">
          <mxGeometry width="30" height="30" as="geometry">
            <mxRectangle width="30" height="30" as="alternateBounds" />
          </mxGeometry>
        </mxCell>
        <mxCell id="Gk-Gb2TZYQ2Sssv7sJZE-35" value="반려동물ID" style="shape=partialRectangle;connectable=0;fillColor=none;top=0;left=0;bottom=0;right=0;align=left;spacingLeft=6;fontStyle=5;overflow=hidden;whiteSpace=wrap;html=1;" vertex="1" parent="Gk-Gb2TZYQ2Sssv7sJZE-33">
          <mxGeometry x="30" width="150" height="30" as="geometry">
            <mxRectangle width="150" height="30" as="alternateBounds" />
          </mxGeometry>
        </mxCell>
        <mxCell id="Gk-Gb2TZYQ2Sssv7sJZE-36" value="" style="shape=tableRow;horizontal=0;startSize=0;swimlaneHead=0;swimlaneBody=0;fillColor=none;collapsible=0;dropTarget=0;points=[[0,0.5],[1,0.5]];portConstraint=eastwest;top=0;left=0;right=0;bottom=0;" vertex="1" parent="Gk-Gb2TZYQ2Sssv7sJZE-32">
          <mxGeometry y="65" width="180" height="30" as="geometry" />
        </mxCell>
        <mxCell id="Gk-Gb2TZYQ2Sssv7sJZE-37" value="" style="shape=partialRectangle;connectable=0;fillColor=none;top=0;left=0;bottom=0;right=0;editable=1;overflow=hidden;whiteSpace=wrap;html=1;" vertex="1" parent="Gk-Gb2TZYQ2Sssv7sJZE-36">
          <mxGeometry width="30" height="30" as="geometry">
            <mxRectangle width="30" height="30" as="alternateBounds" />
          </mxGeometry>
        </mxCell>
        <mxCell id="Gk-Gb2TZYQ2Sssv7sJZE-38" value="Row 1" style="shape=partialRectangle;connectable=0;fillColor=none;top=0;left=0;bottom=0;right=0;align=left;spacingLeft=6;overflow=hidden;whiteSpace=wrap;html=1;" vertex="1" parent="Gk-Gb2TZYQ2Sssv7sJZE-36">
          <mxGeometry x="30" width="150" height="30" as="geometry">
            <mxRectangle width="150" height="30" as="alternateBounds" />
          </mxGeometry>
        </mxCell>
        <mxCell id="Gk-Gb2TZYQ2Sssv7sJZE-39" value="" style="shape=tableRow;horizontal=0;startSize=0;swimlaneHead=0;swimlaneBody=0;fillColor=none;collapsible=0;dropTarget=0;points=[[0,0.5],[1,0.5]];portConstraint=eastwest;top=0;left=0;right=0;bottom=0;" vertex="1" parent="Gk-Gb2TZYQ2Sssv7sJZE-32">
          <mxGeometry y="95" width="180" height="30" as="geometry" />
        </mxCell>
        <mxCell id="Gk-Gb2TZYQ2Sssv7sJZE-40" value="" style="shape=partialRectangle;connectable=0;fillColor=none;top=0;left=0;bottom=0;right=0;editable=1;overflow=hidden;whiteSpace=wrap;html=1;" vertex="1" parent="Gk-Gb2TZYQ2Sssv7sJZE-39">
          <mxGeometry width="30" height="30" as="geometry">
            <mxRectangle width="30" height="30" as="alternateBounds" />
          </mxGeometry>
        </mxCell>
        <mxCell id="Gk-Gb2TZYQ2Sssv7sJZE-41" value="Row 2" style="shape=partialRectangle;connectable=0;fillColor=none;top=0;left=0;bottom=0;right=0;align=left;spacingLeft=6;overflow=hidden;whiteSpace=wrap;html=1;" vertex="1" parent="Gk-Gb2TZYQ2Sssv7sJZE-39">
          <mxGeometry x="30" width="150" height="30" as="geometry">
            <mxRectangle width="150" height="30" as="alternateBounds" />
          </mxGeometry>
        </mxCell>
        <mxCell id="Gk-Gb2TZYQ2Sssv7sJZE-42" value="" style="shape=tableRow;horizontal=0;startSize=0;swimlaneHead=0;swimlaneBody=0;fillColor=none;collapsible=0;dropTarget=0;points=[[0,0.5],[1,0.5]];portConstraint=eastwest;top=0;left=0;right=0;bottom=0;" vertex="1" parent="Gk-Gb2TZYQ2Sssv7sJZE-32">
          <mxGeometry y="125" width="180" height="30" as="geometry" />
        </mxCell>
        <mxCell id="Gk-Gb2TZYQ2Sssv7sJZE-43" value="" style="shape=partialRectangle;connectable=0;fillColor=none;top=0;left=0;bottom=0;right=0;editable=1;overflow=hidden;whiteSpace=wrap;html=1;" vertex="1" parent="Gk-Gb2TZYQ2Sssv7sJZE-42">
          <mxGeometry width="30" height="30" as="geometry">
            <mxRectangle width="30" height="30" as="alternateBounds" />
          </mxGeometry>
        </mxCell>
        <mxCell id="Gk-Gb2TZYQ2Sssv7sJZE-44" value="Row 3" style="shape=partialRectangle;connectable=0;fillColor=none;top=0;left=0;bottom=0;right=0;align=left;spacingLeft=6;overflow=hidden;whiteSpace=wrap;html=1;" vertex="1" parent="Gk-Gb2TZYQ2Sssv7sJZE-42">
          <mxGeometry x="30" width="150" height="30" as="geometry">
            <mxRectangle width="150" height="30" as="alternateBounds" />
          </mxGeometry>
        </mxCell>
        <mxCell id="Gk-Gb2TZYQ2Sssv7sJZE-45" value="조회" style="shape=table;startSize=30;container=1;collapsible=1;childLayout=tableLayout;fixedRows=1;rowLines=0;fontStyle=1;align=center;resizeLast=1;html=1;" vertex="1" parent="1">
          <mxGeometry x="1160" y="-228" width="180" height="150" as="geometry" />
        </mxCell>
        <mxCell id="Gk-Gb2TZYQ2Sssv7sJZE-46" value="" style="shape=tableRow;horizontal=0;startSize=0;swimlaneHead=0;swimlaneBody=0;fillColor=none;collapsible=0;dropTarget=0;points=[[0,0.5],[1,0.5]];portConstraint=eastwest;top=0;left=0;right=0;bottom=1;" vertex="1" parent="Gk-Gb2TZYQ2Sssv7sJZE-45">
          <mxGeometry y="30" width="180" height="30" as="geometry" />
        </mxCell>
        <mxCell id="Gk-Gb2TZYQ2Sssv7sJZE-47" value="" style="shape=partialRectangle;connectable=0;fillColor=none;top=0;left=0;bottom=0;right=0;fontStyle=1;overflow=hidden;whiteSpace=wrap;html=1;" vertex="1" parent="Gk-Gb2TZYQ2Sssv7sJZE-46">
          <mxGeometry width="30" height="30" as="geometry">
            <mxRectangle width="30" height="30" as="alternateBounds" />
          </mxGeometry>
        </mxCell>
        <mxCell id="Gk-Gb2TZYQ2Sssv7sJZE-48" value="조회ID" style="shape=partialRectangle;connectable=0;fillColor=none;top=0;left=0;bottom=0;right=0;align=left;spacingLeft=6;fontStyle=5;overflow=hidden;whiteSpace=wrap;html=1;" vertex="1" parent="Gk-Gb2TZYQ2Sssv7sJZE-46">
          <mxGeometry x="30" width="150" height="30" as="geometry">
            <mxRectangle width="150" height="30" as="alternateBounds" />
          </mxGeometry>
        </mxCell>
        <mxCell id="Gk-Gb2TZYQ2Sssv7sJZE-49" value="" style="shape=tableRow;horizontal=0;startSize=0;swimlaneHead=0;swimlaneBody=0;fillColor=none;collapsible=0;dropTarget=0;points=[[0,0.5],[1,0.5]];portConstraint=eastwest;top=0;left=0;right=0;bottom=0;" vertex="1" parent="Gk-Gb2TZYQ2Sssv7sJZE-45">
          <mxGeometry y="60" width="180" height="30" as="geometry" />
        </mxCell>
        <mxCell id="Gk-Gb2TZYQ2Sssv7sJZE-50" value="" style="shape=partialRectangle;connectable=0;fillColor=none;top=0;left=0;bottom=0;right=0;editable=1;overflow=hidden;whiteSpace=wrap;html=1;" vertex="1" parent="Gk-Gb2TZYQ2Sssv7sJZE-49">
          <mxGeometry width="30" height="30" as="geometry">
            <mxRectangle width="30" height="30" as="alternateBounds" />
          </mxGeometry>
        </mxCell>
        <mxCell id="Gk-Gb2TZYQ2Sssv7sJZE-51" value="Row 1" style="shape=partialRectangle;connectable=0;fillColor=none;top=0;left=0;bottom=0;right=0;align=left;spacingLeft=6;overflow=hidden;whiteSpace=wrap;html=1;" vertex="1" parent="Gk-Gb2TZYQ2Sssv7sJZE-49">
          <mxGeometry x="30" width="150" height="30" as="geometry">
            <mxRectangle width="150" height="30" as="alternateBounds" />
          </mxGeometry>
        </mxCell>
        <mxCell id="Gk-Gb2TZYQ2Sssv7sJZE-52" value="" style="shape=tableRow;horizontal=0;startSize=0;swimlaneHead=0;swimlaneBody=0;fillColor=none;collapsible=0;dropTarget=0;points=[[0,0.5],[1,0.5]];portConstraint=eastwest;top=0;left=0;right=0;bottom=0;" vertex="1" parent="Gk-Gb2TZYQ2Sssv7sJZE-45">
          <mxGeometry y="90" width="180" height="30" as="geometry" />
        </mxCell>
        <mxCell id="Gk-Gb2TZYQ2Sssv7sJZE-53" value="" style="shape=partialRectangle;connectable=0;fillColor=none;top=0;left=0;bottom=0;right=0;editable=1;overflow=hidden;whiteSpace=wrap;html=1;" vertex="1" parent="Gk-Gb2TZYQ2Sssv7sJZE-52">
          <mxGeometry width="30" height="30" as="geometry">
            <mxRectangle width="30" height="30" as="alternateBounds" />
          </mxGeometry>
        </mxCell>
        <mxCell id="Gk-Gb2TZYQ2Sssv7sJZE-54" value="Row 2" style="shape=partialRectangle;connectable=0;fillColor=none;top=0;left=0;bottom=0;right=0;align=left;spacingLeft=6;overflow=hidden;whiteSpace=wrap;html=1;" vertex="1" parent="Gk-Gb2TZYQ2Sssv7sJZE-52">
          <mxGeometry x="30" width="150" height="30" as="geometry">
            <mxRectangle width="150" height="30" as="alternateBounds" />
          </mxGeometry>
        </mxCell>
        <mxCell id="Gk-Gb2TZYQ2Sssv7sJZE-55" value="" style="shape=tableRow;horizontal=0;startSize=0;swimlaneHead=0;swimlaneBody=0;fillColor=none;collapsible=0;dropTarget=0;points=[[0,0.5],[1,0.5]];portConstraint=eastwest;top=0;left=0;right=0;bottom=0;" vertex="1" parent="Gk-Gb2TZYQ2Sssv7sJZE-45">
          <mxGeometry y="120" width="180" height="30" as="geometry" />
        </mxCell>
        <mxCell id="Gk-Gb2TZYQ2Sssv7sJZE-56" value="" style="shape=partialRectangle;connectable=0;fillColor=none;top=0;left=0;bottom=0;right=0;editable=1;overflow=hidden;whiteSpace=wrap;html=1;" vertex="1" parent="Gk-Gb2TZYQ2Sssv7sJZE-55">
          <mxGeometry width="30" height="30" as="geometry">
            <mxRectangle width="30" height="30" as="alternateBounds" />
          </mxGeometry>
        </mxCell>
        <mxCell id="Gk-Gb2TZYQ2Sssv7sJZE-57" value="Row 3" style="shape=partialRectangle;connectable=0;fillColor=none;top=0;left=0;bottom=0;right=0;align=left;spacingLeft=6;overflow=hidden;whiteSpace=wrap;html=1;" vertex="1" parent="Gk-Gb2TZYQ2Sssv7sJZE-55">
          <mxGeometry x="30" width="150" height="30" as="geometry">
            <mxRectangle width="150" height="30" as="alternateBounds" />
          </mxGeometry>
        </mxCell>
        <mxCell id="Gk-Gb2TZYQ2Sssv7sJZE-60" value="예약" style="shape=table;startSize=30;container=1;collapsible=1;childLayout=tableLayout;fixedRows=1;rowLines=0;fontStyle=1;align=center;resizeLast=1;html=1;" vertex="1" parent="1">
          <mxGeometry x="1400" y="50" width="180" height="150" as="geometry" />
        </mxCell>
        <mxCell id="Gk-Gb2TZYQ2Sssv7sJZE-61" value="" style="shape=tableRow;horizontal=0;startSize=0;swimlaneHead=0;swimlaneBody=0;fillColor=none;collapsible=0;dropTarget=0;points=[[0,0.5],[1,0.5]];portConstraint=eastwest;top=0;left=0;right=0;bottom=1;" vertex="1" parent="Gk-Gb2TZYQ2Sssv7sJZE-60">
          <mxGeometry y="30" width="180" height="30" as="geometry" />
        </mxCell>
        <mxCell id="Gk-Gb2TZYQ2Sssv7sJZE-62" value="" style="shape=partialRectangle;connectable=0;fillColor=none;top=0;left=0;bottom=0;right=0;fontStyle=1;overflow=hidden;whiteSpace=wrap;html=1;" vertex="1" parent="Gk-Gb2TZYQ2Sssv7sJZE-61">
          <mxGeometry width="30" height="30" as="geometry">
            <mxRectangle width="30" height="30" as="alternateBounds" />
          </mxGeometry>
        </mxCell>
        <mxCell id="Gk-Gb2TZYQ2Sssv7sJZE-63" value="예약ID" style="shape=partialRectangle;connectable=0;fillColor=none;top=0;left=0;bottom=0;right=0;align=left;spacingLeft=6;fontStyle=5;overflow=hidden;whiteSpace=wrap;html=1;" vertex="1" parent="Gk-Gb2TZYQ2Sssv7sJZE-61">
          <mxGeometry x="30" width="150" height="30" as="geometry">
            <mxRectangle width="150" height="30" as="alternateBounds" />
          </mxGeometry>
        </mxCell>
        <mxCell id="Gk-Gb2TZYQ2Sssv7sJZE-64" value="" style="shape=tableRow;horizontal=0;startSize=0;swimlaneHead=0;swimlaneBody=0;fillColor=none;collapsible=0;dropTarget=0;points=[[0,0.5],[1,0.5]];portConstraint=eastwest;top=0;left=0;right=0;bottom=0;" vertex="1" parent="Gk-Gb2TZYQ2Sssv7sJZE-60">
          <mxGeometry y="60" width="180" height="30" as="geometry" />
        </mxCell>
        <mxCell id="Gk-Gb2TZYQ2Sssv7sJZE-65" value="" style="shape=partialRectangle;connectable=0;fillColor=none;top=0;left=0;bottom=0;right=0;editable=1;overflow=hidden;whiteSpace=wrap;html=1;" vertex="1" parent="Gk-Gb2TZYQ2Sssv7sJZE-64">
          <mxGeometry width="30" height="30" as="geometry">
            <mxRectangle width="30" height="30" as="alternateBounds" />
          </mxGeometry>
        </mxCell>
        <mxCell id="Gk-Gb2TZYQ2Sssv7sJZE-66" value="Row 1" style="shape=partialRectangle;connectable=0;fillColor=none;top=0;left=0;bottom=0;right=0;align=left;spacingLeft=6;overflow=hidden;whiteSpace=wrap;html=1;" vertex="1" parent="Gk-Gb2TZYQ2Sssv7sJZE-64">
          <mxGeometry x="30" width="150" height="30" as="geometry">
            <mxRectangle width="150" height="30" as="alternateBounds" />
          </mxGeometry>
        </mxCell>
        <mxCell id="Gk-Gb2TZYQ2Sssv7sJZE-67" value="" style="shape=tableRow;horizontal=0;startSize=0;swimlaneHead=0;swimlaneBody=0;fillColor=none;collapsible=0;dropTarget=0;points=[[0,0.5],[1,0.5]];portConstraint=eastwest;top=0;left=0;right=0;bottom=0;" vertex="1" parent="Gk-Gb2TZYQ2Sssv7sJZE-60">
          <mxGeometry y="90" width="180" height="30" as="geometry" />
        </mxCell>
        <mxCell id="Gk-Gb2TZYQ2Sssv7sJZE-68" value="" style="shape=partialRectangle;connectable=0;fillColor=none;top=0;left=0;bottom=0;right=0;editable=1;overflow=hidden;whiteSpace=wrap;html=1;" vertex="1" parent="Gk-Gb2TZYQ2Sssv7sJZE-67">
          <mxGeometry width="30" height="30" as="geometry">
            <mxRectangle width="30" height="30" as="alternateBounds" />
          </mxGeometry>
        </mxCell>
        <mxCell id="Gk-Gb2TZYQ2Sssv7sJZE-69" value="Row 2" style="shape=partialRectangle;connectable=0;fillColor=none;top=0;left=0;bottom=0;right=0;align=left;spacingLeft=6;overflow=hidden;whiteSpace=wrap;html=1;" vertex="1" parent="Gk-Gb2TZYQ2Sssv7sJZE-67">
          <mxGeometry x="30" width="150" height="30" as="geometry">
            <mxRectangle width="150" height="30" as="alternateBounds" />
          </mxGeometry>
        </mxCell>
        <mxCell id="Gk-Gb2TZYQ2Sssv7sJZE-70" value="" style="shape=tableRow;horizontal=0;startSize=0;swimlaneHead=0;swimlaneBody=0;fillColor=none;collapsible=0;dropTarget=0;points=[[0,0.5],[1,0.5]];portConstraint=eastwest;top=0;left=0;right=0;bottom=0;" vertex="1" parent="Gk-Gb2TZYQ2Sssv7sJZE-60">
          <mxGeometry y="120" width="180" height="30" as="geometry" />
        </mxCell>
        <mxCell id="Gk-Gb2TZYQ2Sssv7sJZE-71" value="" style="shape=partialRectangle;connectable=0;fillColor=none;top=0;left=0;bottom=0;right=0;editable=1;overflow=hidden;whiteSpace=wrap;html=1;" vertex="1" parent="Gk-Gb2TZYQ2Sssv7sJZE-70">
          <mxGeometry width="30" height="30" as="geometry">
            <mxRectangle width="30" height="30" as="alternateBounds" />
          </mxGeometry>
        </mxCell>
        <mxCell id="Gk-Gb2TZYQ2Sssv7sJZE-72" value="Row 3" style="shape=partialRectangle;connectable=0;fillColor=none;top=0;left=0;bottom=0;right=0;align=left;spacingLeft=6;overflow=hidden;whiteSpace=wrap;html=1;" vertex="1" parent="Gk-Gb2TZYQ2Sssv7sJZE-70">
          <mxGeometry x="30" width="150" height="30" as="geometry">
            <mxRectangle width="150" height="30" as="alternateBounds" />
          </mxGeometry>
        </mxCell>
        <mxCell id="Gk-Gb2TZYQ2Sssv7sJZE-73" value="" style="endArrow=baseDash;html=1;rounded=0;exitX=0.989;exitY=0.81;exitDx=0;exitDy=0;exitPerimeter=0;startArrow=ERone;startFill=0;endFill=0;strokeWidth=2;edgeStyle=orthogonalEdgeStyle;entryX=0.343;entryY=1.044;entryDx=0;entryDy=0;entryPerimeter=0;" edge="1" parent="1" target="Gk-Gb2TZYQ2Sssv7sJZE-70">
          <mxGeometry width="50" height="50" relative="1" as="geometry">
            <mxPoint x="480" y="432.6800000000002" as="sourcePoint" />
            <mxPoint x="1450" y="210" as="targetPoint" />
            <Array as="points">
              <mxPoint x="1440" y="433" />
              <mxPoint x="1440" y="201" />
            </Array>
          </mxGeometry>
        </mxCell>
        <mxCell id="Gk-Gb2TZYQ2Sssv7sJZE-74" value="" style="endArrow=ERzeroToMany;html=1;rounded=0;entryX=0;entryY=0.5;entryDx=0;entryDy=0;exitX=1;exitY=0.5;exitDx=0;exitDy=0;startArrow=ERone;startFill=0;strokeWidth=2;endFill=0;edgeStyle=orthogonalEdgeStyle;" edge="1" parent="1">
          <mxGeometry width="50" height="50" relative="1" as="geometry">
            <mxPoint x="800.0000000000002" y="295" as="sourcePoint" />
            <mxPoint x="1400" y="160" as="targetPoint" />
            <Array as="points">
              <mxPoint x="1270" y="295" />
              <mxPoint x="1270" y="100" />
              <mxPoint x="1400" y="100" />
            </Array>
          </mxGeometry>
        </mxCell>
        <mxCell id="Gk-Gb2TZYQ2Sssv7sJZE-75" value="" style="endArrow=ERzeroToMany;html=1;rounded=0;entryX=0;entryY=0.5;entryDx=0;entryDy=0;exitX=1;exitY=0.5;exitDx=0;exitDy=0;startArrow=ERone;startFill=0;strokeWidth=2;endFill=0;edgeStyle=orthogonalEdgeStyle;" edge="1" parent="1" source="Gk-Gb2TZYQ2Sssv7sJZE-3" target="Gk-Gb2TZYQ2Sssv7sJZE-52">
          <mxGeometry width="50" height="50" relative="1" as="geometry">
            <mxPoint x="1080" y="200" as="sourcePoint" />
            <mxPoint x="1170" y="200" as="targetPoint" />
          </mxGeometry>
        </mxCell>
        <mxCell id="Gk-Gb2TZYQ2Sssv7sJZE-76" value="굿즈서비스" style="shape=table;startSize=30;container=1;collapsible=1;childLayout=tableLayout;fixedRows=1;rowLines=0;fontStyle=1;align=center;resizeLast=1;html=1;" vertex="1" parent="1">
          <mxGeometry x="300" y="540" width="180" height="150.00000000000045" as="geometry" />
        </mxCell>
        <mxCell id="Gk-Gb2TZYQ2Sssv7sJZE-77" value="" style="shape=tableRow;horizontal=0;startSize=0;swimlaneHead=0;swimlaneBody=0;fillColor=none;collapsible=0;dropTarget=0;points=[[0,0.5],[1,0.5]];portConstraint=eastwest;top=0;left=0;right=0;bottom=1;" vertex="1" parent="Gk-Gb2TZYQ2Sssv7sJZE-76">
          <mxGeometry y="30" width="180" height="30" as="geometry" />
        </mxCell>
        <mxCell id="Gk-Gb2TZYQ2Sssv7sJZE-78" value="" style="shape=partialRectangle;connectable=0;fillColor=none;top=0;left=0;bottom=0;right=0;fontStyle=1;overflow=hidden;whiteSpace=wrap;html=1;" vertex="1" parent="Gk-Gb2TZYQ2Sssv7sJZE-77">
          <mxGeometry width="30" height="30" as="geometry">
            <mxRectangle width="30" height="30" as="alternateBounds" />
          </mxGeometry>
        </mxCell>
        <mxCell id="Gk-Gb2TZYQ2Sssv7sJZE-79" value="굿즈ID" style="shape=partialRectangle;connectable=0;fillColor=none;top=0;left=0;bottom=0;right=0;align=left;spacingLeft=6;fontStyle=5;overflow=hidden;whiteSpace=wrap;html=1;" vertex="1" parent="Gk-Gb2TZYQ2Sssv7sJZE-77">
          <mxGeometry x="30" width="150" height="30" as="geometry">
            <mxRectangle width="150" height="30" as="alternateBounds" />
          </mxGeometry>
        </mxCell>
        <mxCell id="Gk-Gb2TZYQ2Sssv7sJZE-80" value="" style="shape=tableRow;horizontal=0;startSize=0;swimlaneHead=0;swimlaneBody=0;fillColor=none;collapsible=0;dropTarget=0;points=[[0,0.5],[1,0.5]];portConstraint=eastwest;top=0;left=0;right=0;bottom=0;" vertex="1" parent="Gk-Gb2TZYQ2Sssv7sJZE-76">
          <mxGeometry y="60" width="180" height="30" as="geometry" />
        </mxCell>
        <mxCell id="Gk-Gb2TZYQ2Sssv7sJZE-81" value="" style="shape=partialRectangle;connectable=0;fillColor=none;top=0;left=0;bottom=0;right=0;editable=1;overflow=hidden;whiteSpace=wrap;html=1;" vertex="1" parent="Gk-Gb2TZYQ2Sssv7sJZE-80">
          <mxGeometry width="30" height="30" as="geometry">
            <mxRectangle width="30" height="30" as="alternateBounds" />
          </mxGeometry>
        </mxCell>
        <mxCell id="Gk-Gb2TZYQ2Sssv7sJZE-82" value="Row 1" style="shape=partialRectangle;connectable=0;fillColor=none;top=0;left=0;bottom=0;right=0;align=left;spacingLeft=6;overflow=hidden;whiteSpace=wrap;html=1;" vertex="1" parent="Gk-Gb2TZYQ2Sssv7sJZE-80">
          <mxGeometry x="30" width="150" height="30" as="geometry">
            <mxRectangle width="150" height="30" as="alternateBounds" />
          </mxGeometry>
        </mxCell>
        <mxCell id="Gk-Gb2TZYQ2Sssv7sJZE-83" value="" style="shape=tableRow;horizontal=0;startSize=0;swimlaneHead=0;swimlaneBody=0;fillColor=none;collapsible=0;dropTarget=0;points=[[0,0.5],[1,0.5]];portConstraint=eastwest;top=0;left=0;right=0;bottom=0;" vertex="1" parent="Gk-Gb2TZYQ2Sssv7sJZE-76">
          <mxGeometry y="90" width="180" height="30" as="geometry" />
        </mxCell>
        <mxCell id="Gk-Gb2TZYQ2Sssv7sJZE-84" value="" style="shape=partialRectangle;connectable=0;fillColor=none;top=0;left=0;bottom=0;right=0;editable=1;overflow=hidden;whiteSpace=wrap;html=1;" vertex="1" parent="Gk-Gb2TZYQ2Sssv7sJZE-83">
          <mxGeometry width="30" height="30" as="geometry">
            <mxRectangle width="30" height="30" as="alternateBounds" />
          </mxGeometry>
        </mxCell>
        <mxCell id="Gk-Gb2TZYQ2Sssv7sJZE-85" value="Row 2" style="shape=partialRectangle;connectable=0;fillColor=none;top=0;left=0;bottom=0;right=0;align=left;spacingLeft=6;overflow=hidden;whiteSpace=wrap;html=1;" vertex="1" parent="Gk-Gb2TZYQ2Sssv7sJZE-83">
          <mxGeometry x="30" width="150" height="30" as="geometry">
            <mxRectangle width="150" height="30" as="alternateBounds" />
          </mxGeometry>
        </mxCell>
        <mxCell id="Gk-Gb2TZYQ2Sssv7sJZE-86" value="" style="shape=tableRow;horizontal=0;startSize=0;swimlaneHead=0;swimlaneBody=0;fillColor=none;collapsible=0;dropTarget=0;points=[[0,0.5],[1,0.5]];portConstraint=eastwest;top=0;left=0;right=0;bottom=0;" vertex="1" parent="Gk-Gb2TZYQ2Sssv7sJZE-76">
          <mxGeometry y="120" width="180" height="30" as="geometry" />
        </mxCell>
        <mxCell id="Gk-Gb2TZYQ2Sssv7sJZE-87" value="" style="shape=partialRectangle;connectable=0;fillColor=none;top=0;left=0;bottom=0;right=0;editable=1;overflow=hidden;whiteSpace=wrap;html=1;" vertex="1" parent="Gk-Gb2TZYQ2Sssv7sJZE-86">
          <mxGeometry width="30" height="30" as="geometry">
            <mxRectangle width="30" height="30" as="alternateBounds" />
          </mxGeometry>
        </mxCell>
        <mxCell id="Gk-Gb2TZYQ2Sssv7sJZE-88" value="Row 3" style="shape=partialRectangle;connectable=0;fillColor=none;top=0;left=0;bottom=0;right=0;align=left;spacingLeft=6;overflow=hidden;whiteSpace=wrap;html=1;" vertex="1" parent="Gk-Gb2TZYQ2Sssv7sJZE-86">
          <mxGeometry x="30" width="150" height="30" as="geometry">
            <mxRectangle width="150" height="30" as="alternateBounds" />
          </mxGeometry>
        </mxCell>
        <mxCell id="Gk-Gb2TZYQ2Sssv7sJZE-91" value="결제" style="shape=table;startSize=30;container=1;collapsible=1;childLayout=tableLayout;fixedRows=1;rowLines=0;fontStyle=1;align=center;resizeLast=1;html=1;" vertex="1" parent="1">
          <mxGeometry x="234" y="-310" width="180" height="150" as="geometry" />
        </mxCell>
        <mxCell id="Gk-Gb2TZYQ2Sssv7sJZE-92" value="" style="shape=tableRow;horizontal=0;startSize=0;swimlaneHead=0;swimlaneBody=0;fillColor=none;collapsible=0;dropTarget=0;points=[[0,0.5],[1,0.5]];portConstraint=eastwest;top=0;left=0;right=0;bottom=1;" vertex="1" parent="Gk-Gb2TZYQ2Sssv7sJZE-91">
          <mxGeometry y="30" width="180" height="30" as="geometry" />
        </mxCell>
        <mxCell id="Gk-Gb2TZYQ2Sssv7sJZE-93" value="" style="shape=partialRectangle;connectable=0;fillColor=none;top=0;left=0;bottom=0;right=0;fontStyle=1;overflow=hidden;whiteSpace=wrap;html=1;" vertex="1" parent="Gk-Gb2TZYQ2Sssv7sJZE-92">
          <mxGeometry width="30" height="30" as="geometry">
            <mxRectangle width="30" height="30" as="alternateBounds" />
          </mxGeometry>
        </mxCell>
        <mxCell id="Gk-Gb2TZYQ2Sssv7sJZE-94" value="예약ID" style="shape=partialRectangle;connectable=0;fillColor=none;top=0;left=0;bottom=0;right=0;align=left;spacingLeft=6;fontStyle=5;overflow=hidden;whiteSpace=wrap;html=1;" vertex="1" parent="Gk-Gb2TZYQ2Sssv7sJZE-92">
          <mxGeometry x="30" width="150" height="30" as="geometry">
            <mxRectangle width="150" height="30" as="alternateBounds" />
          </mxGeometry>
        </mxCell>
        <mxCell id="Gk-Gb2TZYQ2Sssv7sJZE-95" value="" style="shape=tableRow;horizontal=0;startSize=0;swimlaneHead=0;swimlaneBody=0;fillColor=none;collapsible=0;dropTarget=0;points=[[0,0.5],[1,0.5]];portConstraint=eastwest;top=0;left=0;right=0;bottom=0;" vertex="1" parent="Gk-Gb2TZYQ2Sssv7sJZE-91">
          <mxGeometry y="60" width="180" height="30" as="geometry" />
        </mxCell>
        <mxCell id="Gk-Gb2TZYQ2Sssv7sJZE-96" value="" style="shape=partialRectangle;connectable=0;fillColor=none;top=0;left=0;bottom=0;right=0;editable=1;overflow=hidden;whiteSpace=wrap;html=1;" vertex="1" parent="Gk-Gb2TZYQ2Sssv7sJZE-95">
          <mxGeometry width="30" height="30" as="geometry">
            <mxRectangle width="30" height="30" as="alternateBounds" />
          </mxGeometry>
        </mxCell>
        <mxCell id="Gk-Gb2TZYQ2Sssv7sJZE-97" value="Row 1" style="shape=partialRectangle;connectable=0;fillColor=none;top=0;left=0;bottom=0;right=0;align=left;spacingLeft=6;overflow=hidden;whiteSpace=wrap;html=1;" vertex="1" parent="Gk-Gb2TZYQ2Sssv7sJZE-95">
          <mxGeometry x="30" width="150" height="30" as="geometry">
            <mxRectangle width="150" height="30" as="alternateBounds" />
          </mxGeometry>
        </mxCell>
        <mxCell id="Gk-Gb2TZYQ2Sssv7sJZE-98" value="" style="shape=tableRow;horizontal=0;startSize=0;swimlaneHead=0;swimlaneBody=0;fillColor=none;collapsible=0;dropTarget=0;points=[[0,0.5],[1,0.5]];portConstraint=eastwest;top=0;left=0;right=0;bottom=0;" vertex="1" parent="Gk-Gb2TZYQ2Sssv7sJZE-91">
          <mxGeometry y="90" width="180" height="30" as="geometry" />
        </mxCell>
        <mxCell id="Gk-Gb2TZYQ2Sssv7sJZE-99" value="" style="shape=partialRectangle;connectable=0;fillColor=none;top=0;left=0;bottom=0;right=0;editable=1;overflow=hidden;whiteSpace=wrap;html=1;" vertex="1" parent="Gk-Gb2TZYQ2Sssv7sJZE-98">
          <mxGeometry width="30" height="30" as="geometry">
            <mxRectangle width="30" height="30" as="alternateBounds" />
          </mxGeometry>
        </mxCell>
        <mxCell id="Gk-Gb2TZYQ2Sssv7sJZE-100" value="Row 2" style="shape=partialRectangle;connectable=0;fillColor=none;top=0;left=0;bottom=0;right=0;align=left;spacingLeft=6;overflow=hidden;whiteSpace=wrap;html=1;" vertex="1" parent="Gk-Gb2TZYQ2Sssv7sJZE-98">
          <mxGeometry x="30" width="150" height="30" as="geometry">
            <mxRectangle width="150" height="30" as="alternateBounds" />
          </mxGeometry>
        </mxCell>
        <mxCell id="Gk-Gb2TZYQ2Sssv7sJZE-101" value="" style="shape=tableRow;horizontal=0;startSize=0;swimlaneHead=0;swimlaneBody=0;fillColor=none;collapsible=0;dropTarget=0;points=[[0,0.5],[1,0.5]];portConstraint=eastwest;top=0;left=0;right=0;bottom=0;" vertex="1" parent="Gk-Gb2TZYQ2Sssv7sJZE-91">
          <mxGeometry y="120" width="180" height="30" as="geometry" />
        </mxCell>
        <mxCell id="Gk-Gb2TZYQ2Sssv7sJZE-102" value="" style="shape=partialRectangle;connectable=0;fillColor=none;top=0;left=0;bottom=0;right=0;editable=1;overflow=hidden;whiteSpace=wrap;html=1;" vertex="1" parent="Gk-Gb2TZYQ2Sssv7sJZE-101">
          <mxGeometry width="30" height="30" as="geometry">
            <mxRectangle width="30" height="30" as="alternateBounds" />
          </mxGeometry>
        </mxCell>
        <mxCell id="Gk-Gb2TZYQ2Sssv7sJZE-103" value="Row 3" style="shape=partialRectangle;connectable=0;fillColor=none;top=0;left=0;bottom=0;right=0;align=left;spacingLeft=6;overflow=hidden;whiteSpace=wrap;html=1;" vertex="1" parent="Gk-Gb2TZYQ2Sssv7sJZE-101">
          <mxGeometry x="30" width="150" height="30" as="geometry">
            <mxRectangle width="150" height="30" as="alternateBounds" />
          </mxGeometry>
        </mxCell>
        <mxCell id="Gk-Gb2TZYQ2Sssv7sJZE-107" value="" style="endArrow=ERzeroToMany;html=1;rounded=0;entryX=1;entryY=0.5;entryDx=0;entryDy=0;exitX=0.5;exitY=0;exitDx=0;exitDy=0;startArrow=ERone;startFill=0;strokeWidth=2;endFill=0;edgeStyle=orthogonalEdgeStyle;" edge="1" parent="1" source="Gk-Gb2TZYQ2Sssv7sJZE-2" target="Gk-Gb2TZYQ2Sssv7sJZE-95">
          <mxGeometry width="50" height="50" relative="1" as="geometry">
            <mxPoint x="1150" y="270" as="sourcePoint" />
            <mxPoint x="1460" y="130" as="targetPoint" />
          </mxGeometry>
        </mxCell>
        <mxCell id="Gk-Gb2TZYQ2Sssv7sJZE-108" value="" style="endArrow=ERone;html=1;rounded=0;entryX=1;entryY=0.5;entryDx=0;entryDy=0;exitX=0.5;exitY=0;exitDx=0;exitDy=0;startArrow=ERone;startFill=0;endFill=0;strokeWidth=2;edgeStyle=orthogonalEdgeStyle;" edge="1" parent="1" source="Gk-Gb2TZYQ2Sssv7sJZE-60" target="Gk-Gb2TZYQ2Sssv7sJZE-92">
          <mxGeometry width="50" height="50" relative="1" as="geometry">
            <mxPoint x="1310" y="550" as="sourcePoint" />
            <mxPoint x="1743" y="834" as="targetPoint" />
            <Array as="points">
              <mxPoint x="1490" y="-265" />
            </Array>
          </mxGeometry>
        </mxCell>
        <mxCell id="Gk-Gb2TZYQ2Sssv7sJZE-109" value="커뮤니티서비스" style="shape=table;startSize=30;container=1;collapsible=1;childLayout=tableLayout;fixedRows=1;rowLines=0;fontStyle=1;align=center;resizeLast=1;html=1;" vertex="1" parent="1">
          <mxGeometry x="300" y="730" width="180" height="150.00000000000045" as="geometry" />
        </mxCell>
        <mxCell id="Gk-Gb2TZYQ2Sssv7sJZE-110" value="" style="shape=tableRow;horizontal=0;startSize=0;swimlaneHead=0;swimlaneBody=0;fillColor=none;collapsible=0;dropTarget=0;points=[[0,0.5],[1,0.5]];portConstraint=eastwest;top=0;left=0;right=0;bottom=1;" vertex="1" parent="Gk-Gb2TZYQ2Sssv7sJZE-109">
          <mxGeometry y="30" width="180" height="30" as="geometry" />
        </mxCell>
        <mxCell id="Gk-Gb2TZYQ2Sssv7sJZE-111" value="" style="shape=partialRectangle;connectable=0;fillColor=none;top=0;left=0;bottom=0;right=0;fontStyle=1;overflow=hidden;whiteSpace=wrap;html=1;" vertex="1" parent="Gk-Gb2TZYQ2Sssv7sJZE-110">
          <mxGeometry width="30" height="30" as="geometry">
            <mxRectangle width="30" height="30" as="alternateBounds" />
          </mxGeometry>
        </mxCell>
        <mxCell id="Gk-Gb2TZYQ2Sssv7sJZE-112" value="커뮤ID" style="shape=partialRectangle;connectable=0;fillColor=none;top=0;left=0;bottom=0;right=0;align=left;spacingLeft=6;fontStyle=5;overflow=hidden;whiteSpace=wrap;html=1;" vertex="1" parent="Gk-Gb2TZYQ2Sssv7sJZE-110">
          <mxGeometry x="30" width="150" height="30" as="geometry">
            <mxRectangle width="150" height="30" as="alternateBounds" />
          </mxGeometry>
        </mxCell>
        <mxCell id="Gk-Gb2TZYQ2Sssv7sJZE-113" value="" style="shape=tableRow;horizontal=0;startSize=0;swimlaneHead=0;swimlaneBody=0;fillColor=none;collapsible=0;dropTarget=0;points=[[0,0.5],[1,0.5]];portConstraint=eastwest;top=0;left=0;right=0;bottom=0;" vertex="1" parent="Gk-Gb2TZYQ2Sssv7sJZE-109">
          <mxGeometry y="60" width="180" height="30" as="geometry" />
        </mxCell>
        <mxCell id="Gk-Gb2TZYQ2Sssv7sJZE-114" value="" style="shape=partialRectangle;connectable=0;fillColor=none;top=0;left=0;bottom=0;right=0;editable=1;overflow=hidden;whiteSpace=wrap;html=1;" vertex="1" parent="Gk-Gb2TZYQ2Sssv7sJZE-113">
          <mxGeometry width="30" height="30" as="geometry">
            <mxRectangle width="30" height="30" as="alternateBounds" />
          </mxGeometry>
        </mxCell>
        <mxCell id="Gk-Gb2TZYQ2Sssv7sJZE-115" value="Row 1" style="shape=partialRectangle;connectable=0;fillColor=none;top=0;left=0;bottom=0;right=0;align=left;spacingLeft=6;overflow=hidden;whiteSpace=wrap;html=1;" vertex="1" parent="Gk-Gb2TZYQ2Sssv7sJZE-113">
          <mxGeometry x="30" width="150" height="30" as="geometry">
            <mxRectangle width="150" height="30" as="alternateBounds" />
          </mxGeometry>
        </mxCell>
        <mxCell id="Gk-Gb2TZYQ2Sssv7sJZE-116" value="" style="shape=tableRow;horizontal=0;startSize=0;swimlaneHead=0;swimlaneBody=0;fillColor=none;collapsible=0;dropTarget=0;points=[[0,0.5],[1,0.5]];portConstraint=eastwest;top=0;left=0;right=0;bottom=0;" vertex="1" parent="Gk-Gb2TZYQ2Sssv7sJZE-109">
          <mxGeometry y="90" width="180" height="30" as="geometry" />
        </mxCell>
        <mxCell id="Gk-Gb2TZYQ2Sssv7sJZE-117" value="" style="shape=partialRectangle;connectable=0;fillColor=none;top=0;left=0;bottom=0;right=0;editable=1;overflow=hidden;whiteSpace=wrap;html=1;" vertex="1" parent="Gk-Gb2TZYQ2Sssv7sJZE-116">
          <mxGeometry width="30" height="30" as="geometry">
            <mxRectangle width="30" height="30" as="alternateBounds" />
          </mxGeometry>
        </mxCell>
        <mxCell id="Gk-Gb2TZYQ2Sssv7sJZE-118" value="Row 2" style="shape=partialRectangle;connectable=0;fillColor=none;top=0;left=0;bottom=0;right=0;align=left;spacingLeft=6;overflow=hidden;whiteSpace=wrap;html=1;" vertex="1" parent="Gk-Gb2TZYQ2Sssv7sJZE-116">
          <mxGeometry x="30" width="150" height="30" as="geometry">
            <mxRectangle width="150" height="30" as="alternateBounds" />
          </mxGeometry>
        </mxCell>
        <mxCell id="Gk-Gb2TZYQ2Sssv7sJZE-119" value="" style="shape=tableRow;horizontal=0;startSize=0;swimlaneHead=0;swimlaneBody=0;fillColor=none;collapsible=0;dropTarget=0;points=[[0,0.5],[1,0.5]];portConstraint=eastwest;top=0;left=0;right=0;bottom=0;" vertex="1" parent="Gk-Gb2TZYQ2Sssv7sJZE-109">
          <mxGeometry y="120" width="180" height="30" as="geometry" />
        </mxCell>
        <mxCell id="Gk-Gb2TZYQ2Sssv7sJZE-120" value="" style="shape=partialRectangle;connectable=0;fillColor=none;top=0;left=0;bottom=0;right=0;editable=1;overflow=hidden;whiteSpace=wrap;html=1;" vertex="1" parent="Gk-Gb2TZYQ2Sssv7sJZE-119">
          <mxGeometry width="30" height="30" as="geometry">
            <mxRectangle width="30" height="30" as="alternateBounds" />
          </mxGeometry>
        </mxCell>
        <mxCell id="Gk-Gb2TZYQ2Sssv7sJZE-121" value="Row 3" style="shape=partialRectangle;connectable=0;fillColor=none;top=0;left=0;bottom=0;right=0;align=left;spacingLeft=6;overflow=hidden;whiteSpace=wrap;html=1;" vertex="1" parent="Gk-Gb2TZYQ2Sssv7sJZE-119">
          <mxGeometry x="30" width="150" height="30" as="geometry">
            <mxRectangle width="150" height="30" as="alternateBounds" />
          </mxGeometry>
        </mxCell>
        <mxCell id="Gk-Gb2TZYQ2Sssv7sJZE-135" value="심리상담서비스" style="shape=table;startSize=30;container=1;collapsible=1;childLayout=tableLayout;fixedRows=1;rowLines=0;fontStyle=1;align=center;resizeLast=1;html=1;" vertex="1" parent="1">
          <mxGeometry x="300" y="910" width="180" height="150.00000000000045" as="geometry" />
        </mxCell>
        <mxCell id="Gk-Gb2TZYQ2Sssv7sJZE-136" value="" style="shape=tableRow;horizontal=0;startSize=0;swimlaneHead=0;swimlaneBody=0;fillColor=none;collapsible=0;dropTarget=0;points=[[0,0.5],[1,0.5]];portConstraint=eastwest;top=0;left=0;right=0;bottom=1;" vertex="1" parent="Gk-Gb2TZYQ2Sssv7sJZE-135">
          <mxGeometry y="30" width="180" height="30" as="geometry" />
        </mxCell>
        <mxCell id="Gk-Gb2TZYQ2Sssv7sJZE-137" value="" style="shape=partialRectangle;connectable=0;fillColor=none;top=0;left=0;bottom=0;right=0;fontStyle=1;overflow=hidden;whiteSpace=wrap;html=1;" vertex="1" parent="Gk-Gb2TZYQ2Sssv7sJZE-136">
          <mxGeometry width="30" height="30" as="geometry">
            <mxRectangle width="30" height="30" as="alternateBounds" />
          </mxGeometry>
        </mxCell>
        <mxCell id="Gk-Gb2TZYQ2Sssv7sJZE-138" value="상담ID" style="shape=partialRectangle;connectable=0;fillColor=none;top=0;left=0;bottom=0;right=0;align=left;spacingLeft=6;fontStyle=5;overflow=hidden;whiteSpace=wrap;html=1;" vertex="1" parent="Gk-Gb2TZYQ2Sssv7sJZE-136">
          <mxGeometry x="30" width="150" height="30" as="geometry">
            <mxRectangle width="150" height="30" as="alternateBounds" />
          </mxGeometry>
        </mxCell>
        <mxCell id="Gk-Gb2TZYQ2Sssv7sJZE-139" value="" style="shape=tableRow;horizontal=0;startSize=0;swimlaneHead=0;swimlaneBody=0;fillColor=none;collapsible=0;dropTarget=0;points=[[0,0.5],[1,0.5]];portConstraint=eastwest;top=0;left=0;right=0;bottom=0;" vertex="1" parent="Gk-Gb2TZYQ2Sssv7sJZE-135">
          <mxGeometry y="60" width="180" height="30" as="geometry" />
        </mxCell>
        <mxCell id="Gk-Gb2TZYQ2Sssv7sJZE-140" value="" style="shape=partialRectangle;connectable=0;fillColor=none;top=0;left=0;bottom=0;right=0;editable=1;overflow=hidden;whiteSpace=wrap;html=1;" vertex="1" parent="Gk-Gb2TZYQ2Sssv7sJZE-139">
          <mxGeometry width="30" height="30" as="geometry">
            <mxRectangle width="30" height="30" as="alternateBounds" />
          </mxGeometry>
        </mxCell>
        <mxCell id="Gk-Gb2TZYQ2Sssv7sJZE-141" value="Row 1" style="shape=partialRectangle;connectable=0;fillColor=none;top=0;left=0;bottom=0;right=0;align=left;spacingLeft=6;overflow=hidden;whiteSpace=wrap;html=1;" vertex="1" parent="Gk-Gb2TZYQ2Sssv7sJZE-139">
          <mxGeometry x="30" width="150" height="30" as="geometry">
            <mxRectangle width="150" height="30" as="alternateBounds" />
          </mxGeometry>
        </mxCell>
        <mxCell id="Gk-Gb2TZYQ2Sssv7sJZE-142" value="" style="shape=tableRow;horizontal=0;startSize=0;swimlaneHead=0;swimlaneBody=0;fillColor=none;collapsible=0;dropTarget=0;points=[[0,0.5],[1,0.5]];portConstraint=eastwest;top=0;left=0;right=0;bottom=0;" vertex="1" parent="Gk-Gb2TZYQ2Sssv7sJZE-135">
          <mxGeometry y="90" width="180" height="30" as="geometry" />
        </mxCell>
        <mxCell id="Gk-Gb2TZYQ2Sssv7sJZE-143" value="" style="shape=partialRectangle;connectable=0;fillColor=none;top=0;left=0;bottom=0;right=0;editable=1;overflow=hidden;whiteSpace=wrap;html=1;" vertex="1" parent="Gk-Gb2TZYQ2Sssv7sJZE-142">
          <mxGeometry width="30" height="30" as="geometry">
            <mxRectangle width="30" height="30" as="alternateBounds" />
          </mxGeometry>
        </mxCell>
        <mxCell id="Gk-Gb2TZYQ2Sssv7sJZE-144" value="Row 2" style="shape=partialRectangle;connectable=0;fillColor=none;top=0;left=0;bottom=0;right=0;align=left;spacingLeft=6;overflow=hidden;whiteSpace=wrap;html=1;" vertex="1" parent="Gk-Gb2TZYQ2Sssv7sJZE-142">
          <mxGeometry x="30" width="150" height="30" as="geometry">
            <mxRectangle width="150" height="30" as="alternateBounds" />
          </mxGeometry>
        </mxCell>
        <mxCell id="Gk-Gb2TZYQ2Sssv7sJZE-145" value="" style="shape=tableRow;horizontal=0;startSize=0;swimlaneHead=0;swimlaneBody=0;fillColor=none;collapsible=0;dropTarget=0;points=[[0,0.5],[1,0.5]];portConstraint=eastwest;top=0;left=0;right=0;bottom=0;" vertex="1" parent="Gk-Gb2TZYQ2Sssv7sJZE-135">
          <mxGeometry y="120" width="180" height="30" as="geometry" />
        </mxCell>
        <mxCell id="Gk-Gb2TZYQ2Sssv7sJZE-146" value="" style="shape=partialRectangle;connectable=0;fillColor=none;top=0;left=0;bottom=0;right=0;editable=1;overflow=hidden;whiteSpace=wrap;html=1;" vertex="1" parent="Gk-Gb2TZYQ2Sssv7sJZE-145">
          <mxGeometry width="30" height="30" as="geometry">
            <mxRectangle width="30" height="30" as="alternateBounds" />
          </mxGeometry>
        </mxCell>
        <mxCell id="Gk-Gb2TZYQ2Sssv7sJZE-147" value="Row 3" style="shape=partialRectangle;connectable=0;fillColor=none;top=0;left=0;bottom=0;right=0;align=left;spacingLeft=6;overflow=hidden;whiteSpace=wrap;html=1;" vertex="1" parent="Gk-Gb2TZYQ2Sssv7sJZE-145">
          <mxGeometry x="30" width="150" height="30" as="geometry">
            <mxRectangle width="150" height="30" as="alternateBounds" />
          </mxGeometry>
        </mxCell>
        <mxCell id="Gk-Gb2TZYQ2Sssv7sJZE-148" value="" style="endArrow=ERone;html=1;rounded=0;entryX=1;entryY=0.5;entryDx=0;entryDy=0;startArrow=ERone;startFill=0;endFill=0;strokeWidth=2;edgeStyle=orthogonalEdgeStyle;" edge="1" parent="1" target="Gk-Gb2TZYQ2Sssv7sJZE-49">
          <mxGeometry width="50" height="50" relative="1" as="geometry">
            <mxPoint x="1440" y="50" as="sourcePoint" />
            <mxPoint x="1420" y="-70" as="targetPoint" />
            <Array as="points">
              <mxPoint x="1440" y="51" />
              <mxPoint x="1440" y="-153" />
            </Array>
          </mxGeometry>
        </mxCell>
        <mxCell id="Gk-Gb2TZYQ2Sssv7sJZE-149" value="" style="endArrow=ERzeroToMany;html=1;rounded=0;entryX=0.75;entryY=0;entryDx=0;entryDy=0;exitX=0;exitY=0.5;exitDx=0;exitDy=0;startArrow=ERone;startFill=0;strokeWidth=2;endFill=0;edgeStyle=orthogonalEdgeStyle;" edge="1" parent="1" source="Gk-Gb2TZYQ2Sssv7sJZE-6" target="Gk-Gb2TZYQ2Sssv7sJZE-15">
          <mxGeometry width="50" height="50" relative="1" as="geometry">
            <mxPoint x="850" y="485" as="sourcePoint" />
            <mxPoint x="1449.9999999999998" y="350" as="targetPoint" />
          </mxGeometry>
        </mxCell>
        <mxCell id="Gk-Gb2TZYQ2Sssv7sJZE-151" value="" style="endArrow=ERzeroToMany;html=1;rounded=0;entryX=1;entryY=0.5;entryDx=0;entryDy=0;startArrow=ERone;startFill=0;strokeWidth=2;endFill=0;edgeStyle=orthogonalEdgeStyle;exitX=0.489;exitY=0.911;exitDx=0;exitDy=0;exitPerimeter=0;" edge="1" parent="1" target="Gk-Gb2TZYQ2Sssv7sJZE-80">
          <mxGeometry width="50" height="50" relative="1" as="geometry">
            <mxPoint x="698.0200000000002" y="337.3299999999999" as="sourcePoint" />
            <mxPoint x="380" y="540" as="targetPoint" />
            <Array as="points">
              <mxPoint x="698" y="615" />
            </Array>
          </mxGeometry>
        </mxCell>
        <mxCell id="Gk-Gb2TZYQ2Sssv7sJZE-152" value="" style="endArrow=ERzeroToMany;html=1;rounded=0;entryX=1;entryY=0.5;entryDx=0;entryDy=0;startArrow=ERone;startFill=0;strokeWidth=2;endFill=0;edgeStyle=orthogonalEdgeStyle;" edge="1" parent="1" target="Gk-Gb2TZYQ2Sssv7sJZE-83">
          <mxGeometry width="50" height="50" relative="1" as="geometry">
            <mxPoint x="1500" y="200" as="sourcePoint" />
            <mxPoint x="1320" y="477.6700000000001" as="targetPoint" />
            <Array as="points">
              <mxPoint x="1500" y="200" />
              <mxPoint x="1500" y="645" />
            </Array>
          </mxGeometry>
        </mxCell>
      </root>
    </mxGraphModel>
  </diagram>
</mxfile>
